%TF.GenerationSoftware,KiCad,Pcbnew,7.0.10*%
%TF.CreationDate,2024-03-27T14:17:34+01:00*%
%TF.ProjectId,carte pami,63617274-6520-4706-916d-692e6b696361,rev?*%
%TF.SameCoordinates,Original*%
%TF.FileFunction,Drillmap*%
%TF.FilePolarity,Positive*%
%FSLAX45Y45*%
G04 Gerber Fmt 4.5, Leading zero omitted, Abs format (unit mm)*
G04 Created by KiCad (PCBNEW 7.0.10) date 2024-03-27 14:17:34*
%MOMM*%
%LPD*%
G01*
G04 APERTURE LIST*
%ADD10C,0.100000*%
%ADD11C,0.200000*%
%ADD12C,0.225000*%
%ADD13C,0.325000*%
G04 APERTURE END LIST*
D10*
X9398000Y-4286250D02*
X15430500Y-4286250D01*
X15430500Y-11969750D01*
X9398000Y-11969750D01*
X9398000Y-4286250D01*
D11*
D12*
X10385000Y-4907500D02*
X10610000Y-5132500D01*
X10610000Y-4907500D02*
X10385000Y-5132500D01*
X10385000Y-10107500D02*
X10610000Y-10332500D01*
X10610000Y-10107500D02*
X10385000Y-10332500D01*
X12885000Y-4907500D02*
X13110000Y-5132500D01*
X13110000Y-4907500D02*
X12885000Y-5132500D01*
X12885000Y-10107500D02*
X13110000Y-10332500D01*
X13110000Y-10107500D02*
X12885000Y-10332500D01*
D13*
X11402000Y-11558000D02*
G75*
G03*
X11077000Y-11558000I-162500J0D01*
G01*
X11077000Y-11558000D02*
G75*
G03*
X11402000Y-11558000I162500J0D01*
G01*
X12418000Y-11558000D02*
G75*
G03*
X12093000Y-11558000I-162500J0D01*
G01*
X12093000Y-11558000D02*
G75*
G03*
X12418000Y-11558000I162500J0D01*
G01*
X14196000Y-11557000D02*
G75*
G03*
X13871000Y-11557000I-162500J0D01*
G01*
X13871000Y-11557000D02*
G75*
G03*
X14196000Y-11557000I162500J0D01*
G01*
X15212000Y-11557000D02*
G75*
G03*
X14887000Y-11557000I-162500J0D01*
G01*
X14887000Y-11557000D02*
G75*
G03*
X15212000Y-11557000I162500J0D01*
G01*
D11*
X9653777Y-12286234D02*
X9653777Y-12086234D01*
X9653777Y-12086234D02*
X9701396Y-12086234D01*
X9701396Y-12086234D02*
X9729967Y-12095758D01*
X9729967Y-12095758D02*
X9749015Y-12114805D01*
X9749015Y-12114805D02*
X9758539Y-12133853D01*
X9758539Y-12133853D02*
X9768063Y-12171948D01*
X9768063Y-12171948D02*
X9768063Y-12200519D01*
X9768063Y-12200519D02*
X9758539Y-12238615D01*
X9758539Y-12238615D02*
X9749015Y-12257662D01*
X9749015Y-12257662D02*
X9729967Y-12276710D01*
X9729967Y-12276710D02*
X9701396Y-12286234D01*
X9701396Y-12286234D02*
X9653777Y-12286234D01*
X9853777Y-12286234D02*
X9853777Y-12152900D01*
X9853777Y-12190996D02*
X9863301Y-12171948D01*
X9863301Y-12171948D02*
X9872824Y-12162424D01*
X9872824Y-12162424D02*
X9891872Y-12152900D01*
X9891872Y-12152900D02*
X9910920Y-12152900D01*
X9977586Y-12286234D02*
X9977586Y-12152900D01*
X9977586Y-12086234D02*
X9968063Y-12095758D01*
X9968063Y-12095758D02*
X9977586Y-12105281D01*
X9977586Y-12105281D02*
X9987110Y-12095758D01*
X9987110Y-12095758D02*
X9977586Y-12086234D01*
X9977586Y-12086234D02*
X9977586Y-12105281D01*
X10101396Y-12286234D02*
X10082348Y-12276710D01*
X10082348Y-12276710D02*
X10072824Y-12257662D01*
X10072824Y-12257662D02*
X10072824Y-12086234D01*
X10206158Y-12286234D02*
X10187110Y-12276710D01*
X10187110Y-12276710D02*
X10177586Y-12257662D01*
X10177586Y-12257662D02*
X10177586Y-12086234D01*
X10434729Y-12286234D02*
X10434729Y-12086234D01*
X10434729Y-12086234D02*
X10501396Y-12229091D01*
X10501396Y-12229091D02*
X10568063Y-12086234D01*
X10568063Y-12086234D02*
X10568063Y-12286234D01*
X10749015Y-12286234D02*
X10749015Y-12181472D01*
X10749015Y-12181472D02*
X10739491Y-12162424D01*
X10739491Y-12162424D02*
X10720444Y-12152900D01*
X10720444Y-12152900D02*
X10682348Y-12152900D01*
X10682348Y-12152900D02*
X10663301Y-12162424D01*
X10749015Y-12276710D02*
X10729967Y-12286234D01*
X10729967Y-12286234D02*
X10682348Y-12286234D01*
X10682348Y-12286234D02*
X10663301Y-12276710D01*
X10663301Y-12276710D02*
X10653777Y-12257662D01*
X10653777Y-12257662D02*
X10653777Y-12238615D01*
X10653777Y-12238615D02*
X10663301Y-12219567D01*
X10663301Y-12219567D02*
X10682348Y-12210043D01*
X10682348Y-12210043D02*
X10729967Y-12210043D01*
X10729967Y-12210043D02*
X10749015Y-12200519D01*
X10844253Y-12152900D02*
X10844253Y-12352900D01*
X10844253Y-12162424D02*
X10863301Y-12152900D01*
X10863301Y-12152900D02*
X10901396Y-12152900D01*
X10901396Y-12152900D02*
X10920444Y-12162424D01*
X10920444Y-12162424D02*
X10929967Y-12171948D01*
X10929967Y-12171948D02*
X10939491Y-12190996D01*
X10939491Y-12190996D02*
X10939491Y-12248138D01*
X10939491Y-12248138D02*
X10929967Y-12267186D01*
X10929967Y-12267186D02*
X10920444Y-12276710D01*
X10920444Y-12276710D02*
X10901396Y-12286234D01*
X10901396Y-12286234D02*
X10863301Y-12286234D01*
X10863301Y-12286234D02*
X10844253Y-12276710D01*
X11025205Y-12267186D02*
X11034729Y-12276710D01*
X11034729Y-12276710D02*
X11025205Y-12286234D01*
X11025205Y-12286234D02*
X11015682Y-12276710D01*
X11015682Y-12276710D02*
X11025205Y-12267186D01*
X11025205Y-12267186D02*
X11025205Y-12286234D01*
X11025205Y-12162424D02*
X11034729Y-12171948D01*
X11034729Y-12171948D02*
X11025205Y-12181472D01*
X11025205Y-12181472D02*
X11015682Y-12171948D01*
X11015682Y-12171948D02*
X11025205Y-12162424D01*
X11025205Y-12162424D02*
X11025205Y-12181472D01*
X9193000Y-12514750D02*
X9393000Y-12714750D01*
X9393000Y-12514750D02*
X9193000Y-12714750D01*
X9644253Y-12525281D02*
X9653777Y-12515758D01*
X9653777Y-12515758D02*
X9672824Y-12506234D01*
X9672824Y-12506234D02*
X9720444Y-12506234D01*
X9720444Y-12506234D02*
X9739491Y-12515758D01*
X9739491Y-12515758D02*
X9749015Y-12525281D01*
X9749015Y-12525281D02*
X9758539Y-12544329D01*
X9758539Y-12544329D02*
X9758539Y-12563377D01*
X9758539Y-12563377D02*
X9749015Y-12591948D01*
X9749015Y-12591948D02*
X9634729Y-12706234D01*
X9634729Y-12706234D02*
X9758539Y-12706234D01*
X9844253Y-12687186D02*
X9853777Y-12696710D01*
X9853777Y-12696710D02*
X9844253Y-12706234D01*
X9844253Y-12706234D02*
X9834729Y-12696710D01*
X9834729Y-12696710D02*
X9844253Y-12687186D01*
X9844253Y-12687186D02*
X9844253Y-12706234D01*
X9929967Y-12525281D02*
X9939491Y-12515758D01*
X9939491Y-12515758D02*
X9958539Y-12506234D01*
X9958539Y-12506234D02*
X10006158Y-12506234D01*
X10006158Y-12506234D02*
X10025205Y-12515758D01*
X10025205Y-12515758D02*
X10034729Y-12525281D01*
X10034729Y-12525281D02*
X10044253Y-12544329D01*
X10044253Y-12544329D02*
X10044253Y-12563377D01*
X10044253Y-12563377D02*
X10034729Y-12591948D01*
X10034729Y-12591948D02*
X9920444Y-12706234D01*
X9920444Y-12706234D02*
X10044253Y-12706234D01*
X10225205Y-12506234D02*
X10129967Y-12506234D01*
X10129967Y-12506234D02*
X10120444Y-12601472D01*
X10120444Y-12601472D02*
X10129967Y-12591948D01*
X10129967Y-12591948D02*
X10149015Y-12582424D01*
X10149015Y-12582424D02*
X10196634Y-12582424D01*
X10196634Y-12582424D02*
X10215682Y-12591948D01*
X10215682Y-12591948D02*
X10225205Y-12601472D01*
X10225205Y-12601472D02*
X10234729Y-12620519D01*
X10234729Y-12620519D02*
X10234729Y-12668138D01*
X10234729Y-12668138D02*
X10225205Y-12687186D01*
X10225205Y-12687186D02*
X10215682Y-12696710D01*
X10215682Y-12696710D02*
X10196634Y-12706234D01*
X10196634Y-12706234D02*
X10149015Y-12706234D01*
X10149015Y-12706234D02*
X10129967Y-12696710D01*
X10129967Y-12696710D02*
X10120444Y-12687186D01*
X10358539Y-12506234D02*
X10377586Y-12506234D01*
X10377586Y-12506234D02*
X10396634Y-12515758D01*
X10396634Y-12515758D02*
X10406158Y-12525281D01*
X10406158Y-12525281D02*
X10415682Y-12544329D01*
X10415682Y-12544329D02*
X10425205Y-12582424D01*
X10425205Y-12582424D02*
X10425205Y-12630043D01*
X10425205Y-12630043D02*
X10415682Y-12668138D01*
X10415682Y-12668138D02*
X10406158Y-12687186D01*
X10406158Y-12687186D02*
X10396634Y-12696710D01*
X10396634Y-12696710D02*
X10377586Y-12706234D01*
X10377586Y-12706234D02*
X10358539Y-12706234D01*
X10358539Y-12706234D02*
X10339491Y-12696710D01*
X10339491Y-12696710D02*
X10329967Y-12687186D01*
X10329967Y-12687186D02*
X10320444Y-12668138D01*
X10320444Y-12668138D02*
X10310920Y-12630043D01*
X10310920Y-12630043D02*
X10310920Y-12582424D01*
X10310920Y-12582424D02*
X10320444Y-12544329D01*
X10320444Y-12544329D02*
X10329967Y-12525281D01*
X10329967Y-12525281D02*
X10339491Y-12515758D01*
X10339491Y-12515758D02*
X10358539Y-12506234D01*
X10510920Y-12706234D02*
X10510920Y-12572900D01*
X10510920Y-12591948D02*
X10520444Y-12582424D01*
X10520444Y-12582424D02*
X10539491Y-12572900D01*
X10539491Y-12572900D02*
X10568063Y-12572900D01*
X10568063Y-12572900D02*
X10587110Y-12582424D01*
X10587110Y-12582424D02*
X10596634Y-12601472D01*
X10596634Y-12601472D02*
X10596634Y-12706234D01*
X10596634Y-12601472D02*
X10606158Y-12582424D01*
X10606158Y-12582424D02*
X10625205Y-12572900D01*
X10625205Y-12572900D02*
X10653777Y-12572900D01*
X10653777Y-12572900D02*
X10672825Y-12582424D01*
X10672825Y-12582424D02*
X10682348Y-12601472D01*
X10682348Y-12601472D02*
X10682348Y-12706234D01*
X10777586Y-12706234D02*
X10777586Y-12572900D01*
X10777586Y-12591948D02*
X10787110Y-12582424D01*
X10787110Y-12582424D02*
X10806158Y-12572900D01*
X10806158Y-12572900D02*
X10834729Y-12572900D01*
X10834729Y-12572900D02*
X10853777Y-12582424D01*
X10853777Y-12582424D02*
X10863301Y-12601472D01*
X10863301Y-12601472D02*
X10863301Y-12706234D01*
X10863301Y-12601472D02*
X10872825Y-12582424D01*
X10872825Y-12582424D02*
X10891872Y-12572900D01*
X10891872Y-12572900D02*
X10920444Y-12572900D01*
X10920444Y-12572900D02*
X10939491Y-12582424D01*
X10939491Y-12582424D02*
X10949015Y-12601472D01*
X10949015Y-12601472D02*
X10949015Y-12706234D01*
X11339491Y-12496710D02*
X11168063Y-12753853D01*
X11596634Y-12506234D02*
X11615682Y-12506234D01*
X11615682Y-12506234D02*
X11634729Y-12515758D01*
X11634729Y-12515758D02*
X11644253Y-12525281D01*
X11644253Y-12525281D02*
X11653777Y-12544329D01*
X11653777Y-12544329D02*
X11663301Y-12582424D01*
X11663301Y-12582424D02*
X11663301Y-12630043D01*
X11663301Y-12630043D02*
X11653777Y-12668138D01*
X11653777Y-12668138D02*
X11644253Y-12687186D01*
X11644253Y-12687186D02*
X11634729Y-12696710D01*
X11634729Y-12696710D02*
X11615682Y-12706234D01*
X11615682Y-12706234D02*
X11596634Y-12706234D01*
X11596634Y-12706234D02*
X11577586Y-12696710D01*
X11577586Y-12696710D02*
X11568063Y-12687186D01*
X11568063Y-12687186D02*
X11558539Y-12668138D01*
X11558539Y-12668138D02*
X11549015Y-12630043D01*
X11549015Y-12630043D02*
X11549015Y-12582424D01*
X11549015Y-12582424D02*
X11558539Y-12544329D01*
X11558539Y-12544329D02*
X11568063Y-12525281D01*
X11568063Y-12525281D02*
X11577586Y-12515758D01*
X11577586Y-12515758D02*
X11596634Y-12506234D01*
X11749015Y-12687186D02*
X11758539Y-12696710D01*
X11758539Y-12696710D02*
X11749015Y-12706234D01*
X11749015Y-12706234D02*
X11739491Y-12696710D01*
X11739491Y-12696710D02*
X11749015Y-12687186D01*
X11749015Y-12687186D02*
X11749015Y-12706234D01*
X11882348Y-12506234D02*
X11901396Y-12506234D01*
X11901396Y-12506234D02*
X11920444Y-12515758D01*
X11920444Y-12515758D02*
X11929967Y-12525281D01*
X11929967Y-12525281D02*
X11939491Y-12544329D01*
X11939491Y-12544329D02*
X11949015Y-12582424D01*
X11949015Y-12582424D02*
X11949015Y-12630043D01*
X11949015Y-12630043D02*
X11939491Y-12668138D01*
X11939491Y-12668138D02*
X11929967Y-12687186D01*
X11929967Y-12687186D02*
X11920444Y-12696710D01*
X11920444Y-12696710D02*
X11901396Y-12706234D01*
X11901396Y-12706234D02*
X11882348Y-12706234D01*
X11882348Y-12706234D02*
X11863301Y-12696710D01*
X11863301Y-12696710D02*
X11853777Y-12687186D01*
X11853777Y-12687186D02*
X11844253Y-12668138D01*
X11844253Y-12668138D02*
X11834729Y-12630043D01*
X11834729Y-12630043D02*
X11834729Y-12582424D01*
X11834729Y-12582424D02*
X11844253Y-12544329D01*
X11844253Y-12544329D02*
X11853777Y-12525281D01*
X11853777Y-12525281D02*
X11863301Y-12515758D01*
X11863301Y-12515758D02*
X11882348Y-12506234D01*
X12063301Y-12591948D02*
X12044253Y-12582424D01*
X12044253Y-12582424D02*
X12034729Y-12572900D01*
X12034729Y-12572900D02*
X12025206Y-12553853D01*
X12025206Y-12553853D02*
X12025206Y-12544329D01*
X12025206Y-12544329D02*
X12034729Y-12525281D01*
X12034729Y-12525281D02*
X12044253Y-12515758D01*
X12044253Y-12515758D02*
X12063301Y-12506234D01*
X12063301Y-12506234D02*
X12101396Y-12506234D01*
X12101396Y-12506234D02*
X12120444Y-12515758D01*
X12120444Y-12515758D02*
X12129967Y-12525281D01*
X12129967Y-12525281D02*
X12139491Y-12544329D01*
X12139491Y-12544329D02*
X12139491Y-12553853D01*
X12139491Y-12553853D02*
X12129967Y-12572900D01*
X12129967Y-12572900D02*
X12120444Y-12582424D01*
X12120444Y-12582424D02*
X12101396Y-12591948D01*
X12101396Y-12591948D02*
X12063301Y-12591948D01*
X12063301Y-12591948D02*
X12044253Y-12601472D01*
X12044253Y-12601472D02*
X12034729Y-12610996D01*
X12034729Y-12610996D02*
X12025206Y-12630043D01*
X12025206Y-12630043D02*
X12025206Y-12668138D01*
X12025206Y-12668138D02*
X12034729Y-12687186D01*
X12034729Y-12687186D02*
X12044253Y-12696710D01*
X12044253Y-12696710D02*
X12063301Y-12706234D01*
X12063301Y-12706234D02*
X12101396Y-12706234D01*
X12101396Y-12706234D02*
X12120444Y-12696710D01*
X12120444Y-12696710D02*
X12129967Y-12687186D01*
X12129967Y-12687186D02*
X12139491Y-12668138D01*
X12139491Y-12668138D02*
X12139491Y-12630043D01*
X12139491Y-12630043D02*
X12129967Y-12610996D01*
X12129967Y-12610996D02*
X12120444Y-12601472D01*
X12120444Y-12601472D02*
X12101396Y-12591948D01*
X12253777Y-12591948D02*
X12234729Y-12582424D01*
X12234729Y-12582424D02*
X12225206Y-12572900D01*
X12225206Y-12572900D02*
X12215682Y-12553853D01*
X12215682Y-12553853D02*
X12215682Y-12544329D01*
X12215682Y-12544329D02*
X12225206Y-12525281D01*
X12225206Y-12525281D02*
X12234729Y-12515758D01*
X12234729Y-12515758D02*
X12253777Y-12506234D01*
X12253777Y-12506234D02*
X12291872Y-12506234D01*
X12291872Y-12506234D02*
X12310920Y-12515758D01*
X12310920Y-12515758D02*
X12320444Y-12525281D01*
X12320444Y-12525281D02*
X12329967Y-12544329D01*
X12329967Y-12544329D02*
X12329967Y-12553853D01*
X12329967Y-12553853D02*
X12320444Y-12572900D01*
X12320444Y-12572900D02*
X12310920Y-12582424D01*
X12310920Y-12582424D02*
X12291872Y-12591948D01*
X12291872Y-12591948D02*
X12253777Y-12591948D01*
X12253777Y-12591948D02*
X12234729Y-12601472D01*
X12234729Y-12601472D02*
X12225206Y-12610996D01*
X12225206Y-12610996D02*
X12215682Y-12630043D01*
X12215682Y-12630043D02*
X12215682Y-12668138D01*
X12215682Y-12668138D02*
X12225206Y-12687186D01*
X12225206Y-12687186D02*
X12234729Y-12696710D01*
X12234729Y-12696710D02*
X12253777Y-12706234D01*
X12253777Y-12706234D02*
X12291872Y-12706234D01*
X12291872Y-12706234D02*
X12310920Y-12696710D01*
X12310920Y-12696710D02*
X12320444Y-12687186D01*
X12320444Y-12687186D02*
X12329967Y-12668138D01*
X12329967Y-12668138D02*
X12329967Y-12630043D01*
X12329967Y-12630043D02*
X12320444Y-12610996D01*
X12320444Y-12610996D02*
X12310920Y-12601472D01*
X12310920Y-12601472D02*
X12291872Y-12591948D01*
X12501396Y-12506234D02*
X12463301Y-12506234D01*
X12463301Y-12506234D02*
X12444253Y-12515758D01*
X12444253Y-12515758D02*
X12434729Y-12525281D01*
X12434729Y-12525281D02*
X12415682Y-12553853D01*
X12415682Y-12553853D02*
X12406158Y-12591948D01*
X12406158Y-12591948D02*
X12406158Y-12668138D01*
X12406158Y-12668138D02*
X12415682Y-12687186D01*
X12415682Y-12687186D02*
X12425206Y-12696710D01*
X12425206Y-12696710D02*
X12444253Y-12706234D01*
X12444253Y-12706234D02*
X12482348Y-12706234D01*
X12482348Y-12706234D02*
X12501396Y-12696710D01*
X12501396Y-12696710D02*
X12510920Y-12687186D01*
X12510920Y-12687186D02*
X12520444Y-12668138D01*
X12520444Y-12668138D02*
X12520444Y-12620519D01*
X12520444Y-12620519D02*
X12510920Y-12601472D01*
X12510920Y-12601472D02*
X12501396Y-12591948D01*
X12501396Y-12591948D02*
X12482348Y-12582424D01*
X12482348Y-12582424D02*
X12444253Y-12582424D01*
X12444253Y-12582424D02*
X12425206Y-12591948D01*
X12425206Y-12591948D02*
X12415682Y-12601472D01*
X12415682Y-12601472D02*
X12406158Y-12620519D01*
X12596634Y-12506234D02*
X12596634Y-12544329D01*
X12672825Y-12506234D02*
X12672825Y-12544329D01*
X12968063Y-12782424D02*
X12958539Y-12772900D01*
X12958539Y-12772900D02*
X12939491Y-12744329D01*
X12939491Y-12744329D02*
X12929968Y-12725281D01*
X12929968Y-12725281D02*
X12920444Y-12696710D01*
X12920444Y-12696710D02*
X12910920Y-12649091D01*
X12910920Y-12649091D02*
X12910920Y-12610996D01*
X12910920Y-12610996D02*
X12920444Y-12563377D01*
X12920444Y-12563377D02*
X12929968Y-12534805D01*
X12929968Y-12534805D02*
X12939491Y-12515758D01*
X12939491Y-12515758D02*
X12958539Y-12487186D01*
X12958539Y-12487186D02*
X12968063Y-12477662D01*
X13129968Y-12572900D02*
X13129968Y-12706234D01*
X13082348Y-12496710D02*
X13034729Y-12639567D01*
X13034729Y-12639567D02*
X13158539Y-12639567D01*
X13387110Y-12706234D02*
X13387110Y-12506234D01*
X13472825Y-12706234D02*
X13472825Y-12601472D01*
X13472825Y-12601472D02*
X13463301Y-12582424D01*
X13463301Y-12582424D02*
X13444253Y-12572900D01*
X13444253Y-12572900D02*
X13415682Y-12572900D01*
X13415682Y-12572900D02*
X13396634Y-12582424D01*
X13396634Y-12582424D02*
X13387110Y-12591948D01*
X13596634Y-12706234D02*
X13577587Y-12696710D01*
X13577587Y-12696710D02*
X13568063Y-12687186D01*
X13568063Y-12687186D02*
X13558539Y-12668138D01*
X13558539Y-12668138D02*
X13558539Y-12610996D01*
X13558539Y-12610996D02*
X13568063Y-12591948D01*
X13568063Y-12591948D02*
X13577587Y-12582424D01*
X13577587Y-12582424D02*
X13596634Y-12572900D01*
X13596634Y-12572900D02*
X13625206Y-12572900D01*
X13625206Y-12572900D02*
X13644253Y-12582424D01*
X13644253Y-12582424D02*
X13653777Y-12591948D01*
X13653777Y-12591948D02*
X13663301Y-12610996D01*
X13663301Y-12610996D02*
X13663301Y-12668138D01*
X13663301Y-12668138D02*
X13653777Y-12687186D01*
X13653777Y-12687186D02*
X13644253Y-12696710D01*
X13644253Y-12696710D02*
X13625206Y-12706234D01*
X13625206Y-12706234D02*
X13596634Y-12706234D01*
X13777587Y-12706234D02*
X13758539Y-12696710D01*
X13758539Y-12696710D02*
X13749015Y-12677662D01*
X13749015Y-12677662D02*
X13749015Y-12506234D01*
X13929968Y-12696710D02*
X13910920Y-12706234D01*
X13910920Y-12706234D02*
X13872825Y-12706234D01*
X13872825Y-12706234D02*
X13853777Y-12696710D01*
X13853777Y-12696710D02*
X13844253Y-12677662D01*
X13844253Y-12677662D02*
X13844253Y-12601472D01*
X13844253Y-12601472D02*
X13853777Y-12582424D01*
X13853777Y-12582424D02*
X13872825Y-12572900D01*
X13872825Y-12572900D02*
X13910920Y-12572900D01*
X13910920Y-12572900D02*
X13929968Y-12582424D01*
X13929968Y-12582424D02*
X13939491Y-12601472D01*
X13939491Y-12601472D02*
X13939491Y-12620519D01*
X13939491Y-12620519D02*
X13844253Y-12639567D01*
X14015682Y-12696710D02*
X14034730Y-12706234D01*
X14034730Y-12706234D02*
X14072825Y-12706234D01*
X14072825Y-12706234D02*
X14091872Y-12696710D01*
X14091872Y-12696710D02*
X14101396Y-12677662D01*
X14101396Y-12677662D02*
X14101396Y-12668138D01*
X14101396Y-12668138D02*
X14091872Y-12649091D01*
X14091872Y-12649091D02*
X14072825Y-12639567D01*
X14072825Y-12639567D02*
X14044253Y-12639567D01*
X14044253Y-12639567D02*
X14025206Y-12630043D01*
X14025206Y-12630043D02*
X14015682Y-12610996D01*
X14015682Y-12610996D02*
X14015682Y-12601472D01*
X14015682Y-12601472D02*
X14025206Y-12582424D01*
X14025206Y-12582424D02*
X14044253Y-12572900D01*
X14044253Y-12572900D02*
X14072825Y-12572900D01*
X14072825Y-12572900D02*
X14091872Y-12582424D01*
X14168063Y-12782424D02*
X14177587Y-12772900D01*
X14177587Y-12772900D02*
X14196634Y-12744329D01*
X14196634Y-12744329D02*
X14206158Y-12725281D01*
X14206158Y-12725281D02*
X14215682Y-12696710D01*
X14215682Y-12696710D02*
X14225206Y-12649091D01*
X14225206Y-12649091D02*
X14225206Y-12610996D01*
X14225206Y-12610996D02*
X14215682Y-12563377D01*
X14215682Y-12563377D02*
X14206158Y-12534805D01*
X14206158Y-12534805D02*
X14196634Y-12515758D01*
X14196634Y-12515758D02*
X14177587Y-12487186D01*
X14177587Y-12487186D02*
X14168063Y-12477662D01*
X14529968Y-12782424D02*
X14520444Y-12772900D01*
X14520444Y-12772900D02*
X14501396Y-12744329D01*
X14501396Y-12744329D02*
X14491872Y-12725281D01*
X14491872Y-12725281D02*
X14482349Y-12696710D01*
X14482349Y-12696710D02*
X14472825Y-12649091D01*
X14472825Y-12649091D02*
X14472825Y-12610996D01*
X14472825Y-12610996D02*
X14482349Y-12563377D01*
X14482349Y-12563377D02*
X14491872Y-12534805D01*
X14491872Y-12534805D02*
X14501396Y-12515758D01*
X14501396Y-12515758D02*
X14520444Y-12487186D01*
X14520444Y-12487186D02*
X14529968Y-12477662D01*
X14606158Y-12572900D02*
X14606158Y-12706234D01*
X14606158Y-12591948D02*
X14615682Y-12582424D01*
X14615682Y-12582424D02*
X14634730Y-12572900D01*
X14634730Y-12572900D02*
X14663301Y-12572900D01*
X14663301Y-12572900D02*
X14682349Y-12582424D01*
X14682349Y-12582424D02*
X14691872Y-12601472D01*
X14691872Y-12601472D02*
X14691872Y-12706234D01*
X14815682Y-12706234D02*
X14796634Y-12696710D01*
X14796634Y-12696710D02*
X14787111Y-12687186D01*
X14787111Y-12687186D02*
X14777587Y-12668138D01*
X14777587Y-12668138D02*
X14777587Y-12610996D01*
X14777587Y-12610996D02*
X14787111Y-12591948D01*
X14787111Y-12591948D02*
X14796634Y-12582424D01*
X14796634Y-12582424D02*
X14815682Y-12572900D01*
X14815682Y-12572900D02*
X14844253Y-12572900D01*
X14844253Y-12572900D02*
X14863301Y-12582424D01*
X14863301Y-12582424D02*
X14872825Y-12591948D01*
X14872825Y-12591948D02*
X14882349Y-12610996D01*
X14882349Y-12610996D02*
X14882349Y-12668138D01*
X14882349Y-12668138D02*
X14872825Y-12687186D01*
X14872825Y-12687186D02*
X14863301Y-12696710D01*
X14863301Y-12696710D02*
X14844253Y-12706234D01*
X14844253Y-12706234D02*
X14815682Y-12706234D01*
X14939492Y-12572900D02*
X15015682Y-12572900D01*
X14968063Y-12506234D02*
X14968063Y-12677662D01*
X14968063Y-12677662D02*
X14977587Y-12696710D01*
X14977587Y-12696710D02*
X14996634Y-12706234D01*
X14996634Y-12706234D02*
X15015682Y-12706234D01*
X15234730Y-12572900D02*
X15234730Y-12772900D01*
X15234730Y-12582424D02*
X15253777Y-12572900D01*
X15253777Y-12572900D02*
X15291873Y-12572900D01*
X15291873Y-12572900D02*
X15310920Y-12582424D01*
X15310920Y-12582424D02*
X15320444Y-12591948D01*
X15320444Y-12591948D02*
X15329968Y-12610996D01*
X15329968Y-12610996D02*
X15329968Y-12668138D01*
X15329968Y-12668138D02*
X15320444Y-12687186D01*
X15320444Y-12687186D02*
X15310920Y-12696710D01*
X15310920Y-12696710D02*
X15291873Y-12706234D01*
X15291873Y-12706234D02*
X15253777Y-12706234D01*
X15253777Y-12706234D02*
X15234730Y-12696710D01*
X15444253Y-12706234D02*
X15425206Y-12696710D01*
X15425206Y-12696710D02*
X15415682Y-12677662D01*
X15415682Y-12677662D02*
X15415682Y-12506234D01*
X15606158Y-12706234D02*
X15606158Y-12601472D01*
X15606158Y-12601472D02*
X15596634Y-12582424D01*
X15596634Y-12582424D02*
X15577587Y-12572900D01*
X15577587Y-12572900D02*
X15539492Y-12572900D01*
X15539492Y-12572900D02*
X15520444Y-12582424D01*
X15606158Y-12696710D02*
X15587111Y-12706234D01*
X15587111Y-12706234D02*
X15539492Y-12706234D01*
X15539492Y-12706234D02*
X15520444Y-12696710D01*
X15520444Y-12696710D02*
X15510920Y-12677662D01*
X15510920Y-12677662D02*
X15510920Y-12658615D01*
X15510920Y-12658615D02*
X15520444Y-12639567D01*
X15520444Y-12639567D02*
X15539492Y-12630043D01*
X15539492Y-12630043D02*
X15587111Y-12630043D01*
X15587111Y-12630043D02*
X15606158Y-12620519D01*
X15672825Y-12572900D02*
X15749015Y-12572900D01*
X15701396Y-12506234D02*
X15701396Y-12677662D01*
X15701396Y-12677662D02*
X15710920Y-12696710D01*
X15710920Y-12696710D02*
X15729968Y-12706234D01*
X15729968Y-12706234D02*
X15749015Y-12706234D01*
X15891873Y-12696710D02*
X15872825Y-12706234D01*
X15872825Y-12706234D02*
X15834730Y-12706234D01*
X15834730Y-12706234D02*
X15815682Y-12696710D01*
X15815682Y-12696710D02*
X15806158Y-12677662D01*
X15806158Y-12677662D02*
X15806158Y-12601472D01*
X15806158Y-12601472D02*
X15815682Y-12582424D01*
X15815682Y-12582424D02*
X15834730Y-12572900D01*
X15834730Y-12572900D02*
X15872825Y-12572900D01*
X15872825Y-12572900D02*
X15891873Y-12582424D01*
X15891873Y-12582424D02*
X15901396Y-12601472D01*
X15901396Y-12601472D02*
X15901396Y-12620519D01*
X15901396Y-12620519D02*
X15806158Y-12639567D01*
X16072825Y-12706234D02*
X16072825Y-12506234D01*
X16072825Y-12696710D02*
X16053777Y-12706234D01*
X16053777Y-12706234D02*
X16015682Y-12706234D01*
X16015682Y-12706234D02*
X15996634Y-12696710D01*
X15996634Y-12696710D02*
X15987111Y-12687186D01*
X15987111Y-12687186D02*
X15977587Y-12668138D01*
X15977587Y-12668138D02*
X15977587Y-12610996D01*
X15977587Y-12610996D02*
X15987111Y-12591948D01*
X15987111Y-12591948D02*
X15996634Y-12582424D01*
X15996634Y-12582424D02*
X16015682Y-12572900D01*
X16015682Y-12572900D02*
X16053777Y-12572900D01*
X16053777Y-12572900D02*
X16072825Y-12582424D01*
X16149015Y-12782424D02*
X16158539Y-12772900D01*
X16158539Y-12772900D02*
X16177587Y-12744329D01*
X16177587Y-12744329D02*
X16187111Y-12725281D01*
X16187111Y-12725281D02*
X16196634Y-12696710D01*
X16196634Y-12696710D02*
X16206158Y-12649091D01*
X16206158Y-12649091D02*
X16206158Y-12610996D01*
X16206158Y-12610996D02*
X16196634Y-12563377D01*
X16196634Y-12563377D02*
X16187111Y-12534805D01*
X16187111Y-12534805D02*
X16177587Y-12515758D01*
X16177587Y-12515758D02*
X16158539Y-12487186D01*
X16158539Y-12487186D02*
X16149015Y-12477662D01*
X9393000Y-12934750D02*
G75*
G03*
X9193000Y-12934750I-100000J0D01*
G01*
X9193000Y-12934750D02*
G75*
G03*
X9393000Y-12934750I100000J0D01*
G01*
X9634729Y-12826234D02*
X9758539Y-12826234D01*
X9758539Y-12826234D02*
X9691872Y-12902424D01*
X9691872Y-12902424D02*
X9720444Y-12902424D01*
X9720444Y-12902424D02*
X9739491Y-12911948D01*
X9739491Y-12911948D02*
X9749015Y-12921472D01*
X9749015Y-12921472D02*
X9758539Y-12940519D01*
X9758539Y-12940519D02*
X9758539Y-12988138D01*
X9758539Y-12988138D02*
X9749015Y-13007186D01*
X9749015Y-13007186D02*
X9739491Y-13016710D01*
X9739491Y-13016710D02*
X9720444Y-13026234D01*
X9720444Y-13026234D02*
X9663301Y-13026234D01*
X9663301Y-13026234D02*
X9644253Y-13016710D01*
X9644253Y-13016710D02*
X9634729Y-13007186D01*
X9844253Y-13007186D02*
X9853777Y-13016710D01*
X9853777Y-13016710D02*
X9844253Y-13026234D01*
X9844253Y-13026234D02*
X9834729Y-13016710D01*
X9834729Y-13016710D02*
X9844253Y-13007186D01*
X9844253Y-13007186D02*
X9844253Y-13026234D01*
X9929967Y-12845281D02*
X9939491Y-12835758D01*
X9939491Y-12835758D02*
X9958539Y-12826234D01*
X9958539Y-12826234D02*
X10006158Y-12826234D01*
X10006158Y-12826234D02*
X10025205Y-12835758D01*
X10025205Y-12835758D02*
X10034729Y-12845281D01*
X10034729Y-12845281D02*
X10044253Y-12864329D01*
X10044253Y-12864329D02*
X10044253Y-12883377D01*
X10044253Y-12883377D02*
X10034729Y-12911948D01*
X10034729Y-12911948D02*
X9920444Y-13026234D01*
X9920444Y-13026234D02*
X10044253Y-13026234D01*
X10225205Y-12826234D02*
X10129967Y-12826234D01*
X10129967Y-12826234D02*
X10120444Y-12921472D01*
X10120444Y-12921472D02*
X10129967Y-12911948D01*
X10129967Y-12911948D02*
X10149015Y-12902424D01*
X10149015Y-12902424D02*
X10196634Y-12902424D01*
X10196634Y-12902424D02*
X10215682Y-12911948D01*
X10215682Y-12911948D02*
X10225205Y-12921472D01*
X10225205Y-12921472D02*
X10234729Y-12940519D01*
X10234729Y-12940519D02*
X10234729Y-12988138D01*
X10234729Y-12988138D02*
X10225205Y-13007186D01*
X10225205Y-13007186D02*
X10215682Y-13016710D01*
X10215682Y-13016710D02*
X10196634Y-13026234D01*
X10196634Y-13026234D02*
X10149015Y-13026234D01*
X10149015Y-13026234D02*
X10129967Y-13016710D01*
X10129967Y-13016710D02*
X10120444Y-13007186D01*
X10358539Y-12826234D02*
X10377586Y-12826234D01*
X10377586Y-12826234D02*
X10396634Y-12835758D01*
X10396634Y-12835758D02*
X10406158Y-12845281D01*
X10406158Y-12845281D02*
X10415682Y-12864329D01*
X10415682Y-12864329D02*
X10425205Y-12902424D01*
X10425205Y-12902424D02*
X10425205Y-12950043D01*
X10425205Y-12950043D02*
X10415682Y-12988138D01*
X10415682Y-12988138D02*
X10406158Y-13007186D01*
X10406158Y-13007186D02*
X10396634Y-13016710D01*
X10396634Y-13016710D02*
X10377586Y-13026234D01*
X10377586Y-13026234D02*
X10358539Y-13026234D01*
X10358539Y-13026234D02*
X10339491Y-13016710D01*
X10339491Y-13016710D02*
X10329967Y-13007186D01*
X10329967Y-13007186D02*
X10320444Y-12988138D01*
X10320444Y-12988138D02*
X10310920Y-12950043D01*
X10310920Y-12950043D02*
X10310920Y-12902424D01*
X10310920Y-12902424D02*
X10320444Y-12864329D01*
X10320444Y-12864329D02*
X10329967Y-12845281D01*
X10329967Y-12845281D02*
X10339491Y-12835758D01*
X10339491Y-12835758D02*
X10358539Y-12826234D01*
X10510920Y-13026234D02*
X10510920Y-12892900D01*
X10510920Y-12911948D02*
X10520444Y-12902424D01*
X10520444Y-12902424D02*
X10539491Y-12892900D01*
X10539491Y-12892900D02*
X10568063Y-12892900D01*
X10568063Y-12892900D02*
X10587110Y-12902424D01*
X10587110Y-12902424D02*
X10596634Y-12921472D01*
X10596634Y-12921472D02*
X10596634Y-13026234D01*
X10596634Y-12921472D02*
X10606158Y-12902424D01*
X10606158Y-12902424D02*
X10625205Y-12892900D01*
X10625205Y-12892900D02*
X10653777Y-12892900D01*
X10653777Y-12892900D02*
X10672825Y-12902424D01*
X10672825Y-12902424D02*
X10682348Y-12921472D01*
X10682348Y-12921472D02*
X10682348Y-13026234D01*
X10777586Y-13026234D02*
X10777586Y-12892900D01*
X10777586Y-12911948D02*
X10787110Y-12902424D01*
X10787110Y-12902424D02*
X10806158Y-12892900D01*
X10806158Y-12892900D02*
X10834729Y-12892900D01*
X10834729Y-12892900D02*
X10853777Y-12902424D01*
X10853777Y-12902424D02*
X10863301Y-12921472D01*
X10863301Y-12921472D02*
X10863301Y-13026234D01*
X10863301Y-12921472D02*
X10872825Y-12902424D01*
X10872825Y-12902424D02*
X10891872Y-12892900D01*
X10891872Y-12892900D02*
X10920444Y-12892900D01*
X10920444Y-12892900D02*
X10939491Y-12902424D01*
X10939491Y-12902424D02*
X10949015Y-12921472D01*
X10949015Y-12921472D02*
X10949015Y-13026234D01*
X11339491Y-12816710D02*
X11168063Y-13073853D01*
X11596634Y-12826234D02*
X11615682Y-12826234D01*
X11615682Y-12826234D02*
X11634729Y-12835758D01*
X11634729Y-12835758D02*
X11644253Y-12845281D01*
X11644253Y-12845281D02*
X11653777Y-12864329D01*
X11653777Y-12864329D02*
X11663301Y-12902424D01*
X11663301Y-12902424D02*
X11663301Y-12950043D01*
X11663301Y-12950043D02*
X11653777Y-12988138D01*
X11653777Y-12988138D02*
X11644253Y-13007186D01*
X11644253Y-13007186D02*
X11634729Y-13016710D01*
X11634729Y-13016710D02*
X11615682Y-13026234D01*
X11615682Y-13026234D02*
X11596634Y-13026234D01*
X11596634Y-13026234D02*
X11577586Y-13016710D01*
X11577586Y-13016710D02*
X11568063Y-13007186D01*
X11568063Y-13007186D02*
X11558539Y-12988138D01*
X11558539Y-12988138D02*
X11549015Y-12950043D01*
X11549015Y-12950043D02*
X11549015Y-12902424D01*
X11549015Y-12902424D02*
X11558539Y-12864329D01*
X11558539Y-12864329D02*
X11568063Y-12845281D01*
X11568063Y-12845281D02*
X11577586Y-12835758D01*
X11577586Y-12835758D02*
X11596634Y-12826234D01*
X11749015Y-13007186D02*
X11758539Y-13016710D01*
X11758539Y-13016710D02*
X11749015Y-13026234D01*
X11749015Y-13026234D02*
X11739491Y-13016710D01*
X11739491Y-13016710D02*
X11749015Y-13007186D01*
X11749015Y-13007186D02*
X11749015Y-13026234D01*
X11949015Y-13026234D02*
X11834729Y-13026234D01*
X11891872Y-13026234D02*
X11891872Y-12826234D01*
X11891872Y-12826234D02*
X11872825Y-12854805D01*
X11872825Y-12854805D02*
X11853777Y-12873853D01*
X11853777Y-12873853D02*
X11834729Y-12883377D01*
X12025206Y-12845281D02*
X12034729Y-12835758D01*
X12034729Y-12835758D02*
X12053777Y-12826234D01*
X12053777Y-12826234D02*
X12101396Y-12826234D01*
X12101396Y-12826234D02*
X12120444Y-12835758D01*
X12120444Y-12835758D02*
X12129967Y-12845281D01*
X12129967Y-12845281D02*
X12139491Y-12864329D01*
X12139491Y-12864329D02*
X12139491Y-12883377D01*
X12139491Y-12883377D02*
X12129967Y-12911948D01*
X12129967Y-12911948D02*
X12015682Y-13026234D01*
X12015682Y-13026234D02*
X12139491Y-13026234D01*
X12253777Y-12911948D02*
X12234729Y-12902424D01*
X12234729Y-12902424D02*
X12225206Y-12892900D01*
X12225206Y-12892900D02*
X12215682Y-12873853D01*
X12215682Y-12873853D02*
X12215682Y-12864329D01*
X12215682Y-12864329D02*
X12225206Y-12845281D01*
X12225206Y-12845281D02*
X12234729Y-12835758D01*
X12234729Y-12835758D02*
X12253777Y-12826234D01*
X12253777Y-12826234D02*
X12291872Y-12826234D01*
X12291872Y-12826234D02*
X12310920Y-12835758D01*
X12310920Y-12835758D02*
X12320444Y-12845281D01*
X12320444Y-12845281D02*
X12329967Y-12864329D01*
X12329967Y-12864329D02*
X12329967Y-12873853D01*
X12329967Y-12873853D02*
X12320444Y-12892900D01*
X12320444Y-12892900D02*
X12310920Y-12902424D01*
X12310920Y-12902424D02*
X12291872Y-12911948D01*
X12291872Y-12911948D02*
X12253777Y-12911948D01*
X12253777Y-12911948D02*
X12234729Y-12921472D01*
X12234729Y-12921472D02*
X12225206Y-12930996D01*
X12225206Y-12930996D02*
X12215682Y-12950043D01*
X12215682Y-12950043D02*
X12215682Y-12988138D01*
X12215682Y-12988138D02*
X12225206Y-13007186D01*
X12225206Y-13007186D02*
X12234729Y-13016710D01*
X12234729Y-13016710D02*
X12253777Y-13026234D01*
X12253777Y-13026234D02*
X12291872Y-13026234D01*
X12291872Y-13026234D02*
X12310920Y-13016710D01*
X12310920Y-13016710D02*
X12320444Y-13007186D01*
X12320444Y-13007186D02*
X12329967Y-12988138D01*
X12329967Y-12988138D02*
X12329967Y-12950043D01*
X12329967Y-12950043D02*
X12320444Y-12930996D01*
X12320444Y-12930996D02*
X12310920Y-12921472D01*
X12310920Y-12921472D02*
X12291872Y-12911948D01*
X12453777Y-12826234D02*
X12472825Y-12826234D01*
X12472825Y-12826234D02*
X12491872Y-12835758D01*
X12491872Y-12835758D02*
X12501396Y-12845281D01*
X12501396Y-12845281D02*
X12510920Y-12864329D01*
X12510920Y-12864329D02*
X12520444Y-12902424D01*
X12520444Y-12902424D02*
X12520444Y-12950043D01*
X12520444Y-12950043D02*
X12510920Y-12988138D01*
X12510920Y-12988138D02*
X12501396Y-13007186D01*
X12501396Y-13007186D02*
X12491872Y-13016710D01*
X12491872Y-13016710D02*
X12472825Y-13026234D01*
X12472825Y-13026234D02*
X12453777Y-13026234D01*
X12453777Y-13026234D02*
X12434729Y-13016710D01*
X12434729Y-13016710D02*
X12425206Y-13007186D01*
X12425206Y-13007186D02*
X12415682Y-12988138D01*
X12415682Y-12988138D02*
X12406158Y-12950043D01*
X12406158Y-12950043D02*
X12406158Y-12902424D01*
X12406158Y-12902424D02*
X12415682Y-12864329D01*
X12415682Y-12864329D02*
X12425206Y-12845281D01*
X12425206Y-12845281D02*
X12434729Y-12835758D01*
X12434729Y-12835758D02*
X12453777Y-12826234D01*
X12596634Y-12826234D02*
X12596634Y-12864329D01*
X12672825Y-12826234D02*
X12672825Y-12864329D01*
X12968063Y-13102424D02*
X12958539Y-13092900D01*
X12958539Y-13092900D02*
X12939491Y-13064329D01*
X12939491Y-13064329D02*
X12929968Y-13045281D01*
X12929968Y-13045281D02*
X12920444Y-13016710D01*
X12920444Y-13016710D02*
X12910920Y-12969091D01*
X12910920Y-12969091D02*
X12910920Y-12930996D01*
X12910920Y-12930996D02*
X12920444Y-12883377D01*
X12920444Y-12883377D02*
X12929968Y-12854805D01*
X12929968Y-12854805D02*
X12939491Y-12835758D01*
X12939491Y-12835758D02*
X12958539Y-12807186D01*
X12958539Y-12807186D02*
X12968063Y-12797662D01*
X13129968Y-12892900D02*
X13129968Y-13026234D01*
X13082348Y-12816710D02*
X13034729Y-12959567D01*
X13034729Y-12959567D02*
X13158539Y-12959567D01*
X13387110Y-13026234D02*
X13387110Y-12826234D01*
X13472825Y-13026234D02*
X13472825Y-12921472D01*
X13472825Y-12921472D02*
X13463301Y-12902424D01*
X13463301Y-12902424D02*
X13444253Y-12892900D01*
X13444253Y-12892900D02*
X13415682Y-12892900D01*
X13415682Y-12892900D02*
X13396634Y-12902424D01*
X13396634Y-12902424D02*
X13387110Y-12911948D01*
X13596634Y-13026234D02*
X13577587Y-13016710D01*
X13577587Y-13016710D02*
X13568063Y-13007186D01*
X13568063Y-13007186D02*
X13558539Y-12988138D01*
X13558539Y-12988138D02*
X13558539Y-12930996D01*
X13558539Y-12930996D02*
X13568063Y-12911948D01*
X13568063Y-12911948D02*
X13577587Y-12902424D01*
X13577587Y-12902424D02*
X13596634Y-12892900D01*
X13596634Y-12892900D02*
X13625206Y-12892900D01*
X13625206Y-12892900D02*
X13644253Y-12902424D01*
X13644253Y-12902424D02*
X13653777Y-12911948D01*
X13653777Y-12911948D02*
X13663301Y-12930996D01*
X13663301Y-12930996D02*
X13663301Y-12988138D01*
X13663301Y-12988138D02*
X13653777Y-13007186D01*
X13653777Y-13007186D02*
X13644253Y-13016710D01*
X13644253Y-13016710D02*
X13625206Y-13026234D01*
X13625206Y-13026234D02*
X13596634Y-13026234D01*
X13777587Y-13026234D02*
X13758539Y-13016710D01*
X13758539Y-13016710D02*
X13749015Y-12997662D01*
X13749015Y-12997662D02*
X13749015Y-12826234D01*
X13929968Y-13016710D02*
X13910920Y-13026234D01*
X13910920Y-13026234D02*
X13872825Y-13026234D01*
X13872825Y-13026234D02*
X13853777Y-13016710D01*
X13853777Y-13016710D02*
X13844253Y-12997662D01*
X13844253Y-12997662D02*
X13844253Y-12921472D01*
X13844253Y-12921472D02*
X13853777Y-12902424D01*
X13853777Y-12902424D02*
X13872825Y-12892900D01*
X13872825Y-12892900D02*
X13910920Y-12892900D01*
X13910920Y-12892900D02*
X13929968Y-12902424D01*
X13929968Y-12902424D02*
X13939491Y-12921472D01*
X13939491Y-12921472D02*
X13939491Y-12940519D01*
X13939491Y-12940519D02*
X13844253Y-12959567D01*
X14015682Y-13016710D02*
X14034730Y-13026234D01*
X14034730Y-13026234D02*
X14072825Y-13026234D01*
X14072825Y-13026234D02*
X14091872Y-13016710D01*
X14091872Y-13016710D02*
X14101396Y-12997662D01*
X14101396Y-12997662D02*
X14101396Y-12988138D01*
X14101396Y-12988138D02*
X14091872Y-12969091D01*
X14091872Y-12969091D02*
X14072825Y-12959567D01*
X14072825Y-12959567D02*
X14044253Y-12959567D01*
X14044253Y-12959567D02*
X14025206Y-12950043D01*
X14025206Y-12950043D02*
X14015682Y-12930996D01*
X14015682Y-12930996D02*
X14015682Y-12921472D01*
X14015682Y-12921472D02*
X14025206Y-12902424D01*
X14025206Y-12902424D02*
X14044253Y-12892900D01*
X14044253Y-12892900D02*
X14072825Y-12892900D01*
X14072825Y-12892900D02*
X14091872Y-12902424D01*
X14168063Y-13102424D02*
X14177587Y-13092900D01*
X14177587Y-13092900D02*
X14196634Y-13064329D01*
X14196634Y-13064329D02*
X14206158Y-13045281D01*
X14206158Y-13045281D02*
X14215682Y-13016710D01*
X14215682Y-13016710D02*
X14225206Y-12969091D01*
X14225206Y-12969091D02*
X14225206Y-12930996D01*
X14225206Y-12930996D02*
X14215682Y-12883377D01*
X14215682Y-12883377D02*
X14206158Y-12854805D01*
X14206158Y-12854805D02*
X14196634Y-12835758D01*
X14196634Y-12835758D02*
X14177587Y-12807186D01*
X14177587Y-12807186D02*
X14168063Y-12797662D01*
X14529968Y-13102424D02*
X14520444Y-13092900D01*
X14520444Y-13092900D02*
X14501396Y-13064329D01*
X14501396Y-13064329D02*
X14491872Y-13045281D01*
X14491872Y-13045281D02*
X14482349Y-13016710D01*
X14482349Y-13016710D02*
X14472825Y-12969091D01*
X14472825Y-12969091D02*
X14472825Y-12930996D01*
X14472825Y-12930996D02*
X14482349Y-12883377D01*
X14482349Y-12883377D02*
X14491872Y-12854805D01*
X14491872Y-12854805D02*
X14501396Y-12835758D01*
X14501396Y-12835758D02*
X14520444Y-12807186D01*
X14520444Y-12807186D02*
X14529968Y-12797662D01*
X14606158Y-12892900D02*
X14606158Y-13026234D01*
X14606158Y-12911948D02*
X14615682Y-12902424D01*
X14615682Y-12902424D02*
X14634730Y-12892900D01*
X14634730Y-12892900D02*
X14663301Y-12892900D01*
X14663301Y-12892900D02*
X14682349Y-12902424D01*
X14682349Y-12902424D02*
X14691872Y-12921472D01*
X14691872Y-12921472D02*
X14691872Y-13026234D01*
X14815682Y-13026234D02*
X14796634Y-13016710D01*
X14796634Y-13016710D02*
X14787111Y-13007186D01*
X14787111Y-13007186D02*
X14777587Y-12988138D01*
X14777587Y-12988138D02*
X14777587Y-12930996D01*
X14777587Y-12930996D02*
X14787111Y-12911948D01*
X14787111Y-12911948D02*
X14796634Y-12902424D01*
X14796634Y-12902424D02*
X14815682Y-12892900D01*
X14815682Y-12892900D02*
X14844253Y-12892900D01*
X14844253Y-12892900D02*
X14863301Y-12902424D01*
X14863301Y-12902424D02*
X14872825Y-12911948D01*
X14872825Y-12911948D02*
X14882349Y-12930996D01*
X14882349Y-12930996D02*
X14882349Y-12988138D01*
X14882349Y-12988138D02*
X14872825Y-13007186D01*
X14872825Y-13007186D02*
X14863301Y-13016710D01*
X14863301Y-13016710D02*
X14844253Y-13026234D01*
X14844253Y-13026234D02*
X14815682Y-13026234D01*
X14939492Y-12892900D02*
X15015682Y-12892900D01*
X14968063Y-12826234D02*
X14968063Y-12997662D01*
X14968063Y-12997662D02*
X14977587Y-13016710D01*
X14977587Y-13016710D02*
X14996634Y-13026234D01*
X14996634Y-13026234D02*
X15015682Y-13026234D01*
X15234730Y-12892900D02*
X15234730Y-13092900D01*
X15234730Y-12902424D02*
X15253777Y-12892900D01*
X15253777Y-12892900D02*
X15291873Y-12892900D01*
X15291873Y-12892900D02*
X15310920Y-12902424D01*
X15310920Y-12902424D02*
X15320444Y-12911948D01*
X15320444Y-12911948D02*
X15329968Y-12930996D01*
X15329968Y-12930996D02*
X15329968Y-12988138D01*
X15329968Y-12988138D02*
X15320444Y-13007186D01*
X15320444Y-13007186D02*
X15310920Y-13016710D01*
X15310920Y-13016710D02*
X15291873Y-13026234D01*
X15291873Y-13026234D02*
X15253777Y-13026234D01*
X15253777Y-13026234D02*
X15234730Y-13016710D01*
X15444253Y-13026234D02*
X15425206Y-13016710D01*
X15425206Y-13016710D02*
X15415682Y-12997662D01*
X15415682Y-12997662D02*
X15415682Y-12826234D01*
X15606158Y-13026234D02*
X15606158Y-12921472D01*
X15606158Y-12921472D02*
X15596634Y-12902424D01*
X15596634Y-12902424D02*
X15577587Y-12892900D01*
X15577587Y-12892900D02*
X15539492Y-12892900D01*
X15539492Y-12892900D02*
X15520444Y-12902424D01*
X15606158Y-13016710D02*
X15587111Y-13026234D01*
X15587111Y-13026234D02*
X15539492Y-13026234D01*
X15539492Y-13026234D02*
X15520444Y-13016710D01*
X15520444Y-13016710D02*
X15510920Y-12997662D01*
X15510920Y-12997662D02*
X15510920Y-12978615D01*
X15510920Y-12978615D02*
X15520444Y-12959567D01*
X15520444Y-12959567D02*
X15539492Y-12950043D01*
X15539492Y-12950043D02*
X15587111Y-12950043D01*
X15587111Y-12950043D02*
X15606158Y-12940519D01*
X15672825Y-12892900D02*
X15749015Y-12892900D01*
X15701396Y-12826234D02*
X15701396Y-12997662D01*
X15701396Y-12997662D02*
X15710920Y-13016710D01*
X15710920Y-13016710D02*
X15729968Y-13026234D01*
X15729968Y-13026234D02*
X15749015Y-13026234D01*
X15891873Y-13016710D02*
X15872825Y-13026234D01*
X15872825Y-13026234D02*
X15834730Y-13026234D01*
X15834730Y-13026234D02*
X15815682Y-13016710D01*
X15815682Y-13016710D02*
X15806158Y-12997662D01*
X15806158Y-12997662D02*
X15806158Y-12921472D01*
X15806158Y-12921472D02*
X15815682Y-12902424D01*
X15815682Y-12902424D02*
X15834730Y-12892900D01*
X15834730Y-12892900D02*
X15872825Y-12892900D01*
X15872825Y-12892900D02*
X15891873Y-12902424D01*
X15891873Y-12902424D02*
X15901396Y-12921472D01*
X15901396Y-12921472D02*
X15901396Y-12940519D01*
X15901396Y-12940519D02*
X15806158Y-12959567D01*
X16072825Y-13026234D02*
X16072825Y-12826234D01*
X16072825Y-13016710D02*
X16053777Y-13026234D01*
X16053777Y-13026234D02*
X16015682Y-13026234D01*
X16015682Y-13026234D02*
X15996634Y-13016710D01*
X15996634Y-13016710D02*
X15987111Y-13007186D01*
X15987111Y-13007186D02*
X15977587Y-12988138D01*
X15977587Y-12988138D02*
X15977587Y-12930996D01*
X15977587Y-12930996D02*
X15987111Y-12911948D01*
X15987111Y-12911948D02*
X15996634Y-12902424D01*
X15996634Y-12902424D02*
X16015682Y-12892900D01*
X16015682Y-12892900D02*
X16053777Y-12892900D01*
X16053777Y-12892900D02*
X16072825Y-12902424D01*
X16149015Y-13102424D02*
X16158539Y-13092900D01*
X16158539Y-13092900D02*
X16177587Y-13064329D01*
X16177587Y-13064329D02*
X16187111Y-13045281D01*
X16187111Y-13045281D02*
X16196634Y-13016710D01*
X16196634Y-13016710D02*
X16206158Y-12969091D01*
X16206158Y-12969091D02*
X16206158Y-12930996D01*
X16206158Y-12930996D02*
X16196634Y-12883377D01*
X16196634Y-12883377D02*
X16187111Y-12854805D01*
X16187111Y-12854805D02*
X16177587Y-12835758D01*
X16177587Y-12835758D02*
X16158539Y-12807186D01*
X16158539Y-12807186D02*
X16149015Y-12797662D01*
M02*
