%TF.GenerationSoftware,KiCad,Pcbnew,7.0.10*%
%TF.CreationDate,2024-03-27T14:16:48+01:00*%
%TF.ProjectId,carte pami,63617274-6520-4706-916d-692e6b696361,rev?*%
%TF.SameCoordinates,Original*%
%TF.FileFunction,Legend,Top*%
%TF.FilePolarity,Positive*%
%FSLAX46Y46*%
G04 Gerber Fmt 4.6, Leading zero omitted, Abs format (unit mm)*
G04 Created by KiCad (PCBNEW 7.0.10) date 2024-03-27 14:16:48*
%MOMM*%
%LPD*%
G01*
G04 APERTURE LIST*
G04 Aperture macros list*
%AMRoundRect*
0 Rectangle with rounded corners*
0 $1 Rounding radius*
0 $2 $3 $4 $5 $6 $7 $8 $9 X,Y pos of 4 corners*
0 Add a 4 corners polygon primitive as box body*
4,1,4,$2,$3,$4,$5,$6,$7,$8,$9,$2,$3,0*
0 Add four circle primitives for the rounded corners*
1,1,$1+$1,$2,$3*
1,1,$1+$1,$4,$5*
1,1,$1+$1,$6,$7*
1,1,$1+$1,$8,$9*
0 Add four rect primitives between the rounded corners*
20,1,$1+$1,$2,$3,$4,$5,0*
20,1,$1+$1,$4,$5,$6,$7,0*
20,1,$1+$1,$6,$7,$8,$9,0*
20,1,$1+$1,$8,$9,$2,$3,0*%
G04 Aperture macros list end*
%ADD10C,0.150000*%
%ADD11C,0.120000*%
%ADD12C,0.127000*%
%ADD13C,0.300000*%
%ADD14R,1.600000X1.600000*%
%ADD15C,1.600000*%
%ADD16RoundRect,0.250000X-1.050000X0.750000X-1.050000X-0.750000X1.050000X-0.750000X1.050000X0.750000X0*%
%ADD17O,2.600000X2.000000*%
%ADD18C,6.400000*%
%ADD19R,1.700000X1.700000*%
%ADD20O,1.700000X1.700000*%
%ADD21C,3.250000*%
%ADD22RoundRect,0.102000X-0.704000X0.704000X-0.704000X-0.704000X0.704000X-0.704000X0.704000X0.704000X0*%
%ADD23C,1.612000*%
%ADD24C,2.250000*%
%ADD25RoundRect,0.102000X0.675000X0.675000X-0.675000X0.675000X-0.675000X-0.675000X0.675000X-0.675000X0*%
%ADD26C,1.554000*%
%ADD27R,2.200000X2.200000*%
%ADD28O,2.200000X2.200000*%
%ADD29R,1.400000X1.400000*%
%ADD30C,1.400000*%
G04 APERTURE END LIST*
D10*
X101927255Y-113169819D02*
X102117731Y-113169819D01*
X102117731Y-113169819D02*
X102212969Y-113217438D01*
X102212969Y-113217438D02*
X102308207Y-113312676D01*
X102308207Y-113312676D02*
X102355826Y-113503152D01*
X102355826Y-113503152D02*
X102355826Y-113836485D01*
X102355826Y-113836485D02*
X102308207Y-114026961D01*
X102308207Y-114026961D02*
X102212969Y-114122200D01*
X102212969Y-114122200D02*
X102117731Y-114169819D01*
X102117731Y-114169819D02*
X101927255Y-114169819D01*
X101927255Y-114169819D02*
X101832017Y-114122200D01*
X101832017Y-114122200D02*
X101736779Y-114026961D01*
X101736779Y-114026961D02*
X101689160Y-113836485D01*
X101689160Y-113836485D02*
X101689160Y-113503152D01*
X101689160Y-113503152D02*
X101736779Y-113312676D01*
X101736779Y-113312676D02*
X101832017Y-113217438D01*
X101832017Y-113217438D02*
X101927255Y-113169819D01*
X102784398Y-114169819D02*
X102784398Y-113169819D01*
X102784398Y-113169819D02*
X103355826Y-114169819D01*
X103355826Y-114169819D02*
X103355826Y-113169819D01*
X104070112Y-114503152D02*
X104070112Y-113074580D01*
X104974874Y-113169819D02*
X105165350Y-113169819D01*
X105165350Y-113169819D02*
X105260588Y-113217438D01*
X105260588Y-113217438D02*
X105355826Y-113312676D01*
X105355826Y-113312676D02*
X105403445Y-113503152D01*
X105403445Y-113503152D02*
X105403445Y-113836485D01*
X105403445Y-113836485D02*
X105355826Y-114026961D01*
X105355826Y-114026961D02*
X105260588Y-114122200D01*
X105260588Y-114122200D02*
X105165350Y-114169819D01*
X105165350Y-114169819D02*
X104974874Y-114169819D01*
X104974874Y-114169819D02*
X104879636Y-114122200D01*
X104879636Y-114122200D02*
X104784398Y-114026961D01*
X104784398Y-114026961D02*
X104736779Y-113836485D01*
X104736779Y-113836485D02*
X104736779Y-113503152D01*
X104736779Y-113503152D02*
X104784398Y-113312676D01*
X104784398Y-113312676D02*
X104879636Y-113217438D01*
X104879636Y-113217438D02*
X104974874Y-113169819D01*
X106165350Y-113646009D02*
X105832017Y-113646009D01*
X105832017Y-114169819D02*
X105832017Y-113169819D01*
X105832017Y-113169819D02*
X106308207Y-113169819D01*
X107022493Y-113646009D02*
X106689160Y-113646009D01*
X106689160Y-114169819D02*
X106689160Y-113169819D01*
X106689160Y-113169819D02*
X107165350Y-113169819D01*
X126274580Y-116991792D02*
X126322200Y-117039411D01*
X126322200Y-117039411D02*
X126369819Y-117182268D01*
X126369819Y-117182268D02*
X126369819Y-117277506D01*
X126369819Y-117277506D02*
X126322200Y-117420363D01*
X126322200Y-117420363D02*
X126226961Y-117515601D01*
X126226961Y-117515601D02*
X126131723Y-117563220D01*
X126131723Y-117563220D02*
X125941247Y-117610839D01*
X125941247Y-117610839D02*
X125798390Y-117610839D01*
X125798390Y-117610839D02*
X125607914Y-117563220D01*
X125607914Y-117563220D02*
X125512676Y-117515601D01*
X125512676Y-117515601D02*
X125417438Y-117420363D01*
X125417438Y-117420363D02*
X125369819Y-117277506D01*
X125369819Y-117277506D02*
X125369819Y-117182268D01*
X125369819Y-117182268D02*
X125417438Y-117039411D01*
X125417438Y-117039411D02*
X125465057Y-116991792D01*
X126369819Y-116420363D02*
X126322200Y-116515601D01*
X126322200Y-116515601D02*
X126274580Y-116563220D01*
X126274580Y-116563220D02*
X126179342Y-116610839D01*
X126179342Y-116610839D02*
X125893628Y-116610839D01*
X125893628Y-116610839D02*
X125798390Y-116563220D01*
X125798390Y-116563220D02*
X125750771Y-116515601D01*
X125750771Y-116515601D02*
X125703152Y-116420363D01*
X125703152Y-116420363D02*
X125703152Y-116277506D01*
X125703152Y-116277506D02*
X125750771Y-116182268D01*
X125750771Y-116182268D02*
X125798390Y-116134649D01*
X125798390Y-116134649D02*
X125893628Y-116087030D01*
X125893628Y-116087030D02*
X126179342Y-116087030D01*
X126179342Y-116087030D02*
X126274580Y-116134649D01*
X126274580Y-116134649D02*
X126322200Y-116182268D01*
X126322200Y-116182268D02*
X126369819Y-116277506D01*
X126369819Y-116277506D02*
X126369819Y-116420363D01*
X125703152Y-115658458D02*
X126369819Y-115658458D01*
X125798390Y-115658458D02*
X125750771Y-115610839D01*
X125750771Y-115610839D02*
X125703152Y-115515601D01*
X125703152Y-115515601D02*
X125703152Y-115372744D01*
X125703152Y-115372744D02*
X125750771Y-115277506D01*
X125750771Y-115277506D02*
X125846009Y-115229887D01*
X125846009Y-115229887D02*
X126369819Y-115229887D01*
X125703152Y-114753696D02*
X126369819Y-114753696D01*
X125798390Y-114753696D02*
X125750771Y-114706077D01*
X125750771Y-114706077D02*
X125703152Y-114610839D01*
X125703152Y-114610839D02*
X125703152Y-114467982D01*
X125703152Y-114467982D02*
X125750771Y-114372744D01*
X125750771Y-114372744D02*
X125846009Y-114325125D01*
X125846009Y-114325125D02*
X126369819Y-114325125D01*
X126369819Y-112658458D02*
X125369819Y-112658458D01*
X126322200Y-112658458D02*
X126369819Y-112753696D01*
X126369819Y-112753696D02*
X126369819Y-112944172D01*
X126369819Y-112944172D02*
X126322200Y-113039410D01*
X126322200Y-113039410D02*
X126274580Y-113087029D01*
X126274580Y-113087029D02*
X126179342Y-113134648D01*
X126179342Y-113134648D02*
X125893628Y-113134648D01*
X125893628Y-113134648D02*
X125798390Y-113087029D01*
X125798390Y-113087029D02*
X125750771Y-113039410D01*
X125750771Y-113039410D02*
X125703152Y-112944172D01*
X125703152Y-112944172D02*
X125703152Y-112753696D01*
X125703152Y-112753696D02*
X125750771Y-112658458D01*
X126369819Y-112182267D02*
X125703152Y-112182267D01*
X125893628Y-112182267D02*
X125798390Y-112134648D01*
X125798390Y-112134648D02*
X125750771Y-112087029D01*
X125750771Y-112087029D02*
X125703152Y-111991791D01*
X125703152Y-111991791D02*
X125703152Y-111896553D01*
X126369819Y-111563219D02*
X125703152Y-111563219D01*
X125369819Y-111563219D02*
X125417438Y-111610838D01*
X125417438Y-111610838D02*
X125465057Y-111563219D01*
X125465057Y-111563219D02*
X125417438Y-111515600D01*
X125417438Y-111515600D02*
X125369819Y-111563219D01*
X125369819Y-111563219D02*
X125465057Y-111563219D01*
X125703152Y-111182267D02*
X126369819Y-110944172D01*
X126369819Y-110944172D02*
X125703152Y-110706077D01*
X126322200Y-109944172D02*
X126369819Y-110039410D01*
X126369819Y-110039410D02*
X126369819Y-110229886D01*
X126369819Y-110229886D02*
X126322200Y-110325124D01*
X126322200Y-110325124D02*
X126226961Y-110372743D01*
X126226961Y-110372743D02*
X125846009Y-110372743D01*
X125846009Y-110372743D02*
X125750771Y-110325124D01*
X125750771Y-110325124D02*
X125703152Y-110229886D01*
X125703152Y-110229886D02*
X125703152Y-110039410D01*
X125703152Y-110039410D02*
X125750771Y-109944172D01*
X125750771Y-109944172D02*
X125846009Y-109896553D01*
X125846009Y-109896553D02*
X125941247Y-109896553D01*
X125941247Y-109896553D02*
X126036485Y-110372743D01*
X126369819Y-109467981D02*
X125703152Y-109467981D01*
X125893628Y-109467981D02*
X125798390Y-109420362D01*
X125798390Y-109420362D02*
X125750771Y-109372743D01*
X125750771Y-109372743D02*
X125703152Y-109277505D01*
X125703152Y-109277505D02*
X125703152Y-109182267D01*
X100089160Y-112622200D02*
X100232017Y-112669819D01*
X100232017Y-112669819D02*
X100470112Y-112669819D01*
X100470112Y-112669819D02*
X100565350Y-112622200D01*
X100565350Y-112622200D02*
X100612969Y-112574580D01*
X100612969Y-112574580D02*
X100660588Y-112479342D01*
X100660588Y-112479342D02*
X100660588Y-112384104D01*
X100660588Y-112384104D02*
X100612969Y-112288866D01*
X100612969Y-112288866D02*
X100565350Y-112241247D01*
X100565350Y-112241247D02*
X100470112Y-112193628D01*
X100470112Y-112193628D02*
X100279636Y-112146009D01*
X100279636Y-112146009D02*
X100184398Y-112098390D01*
X100184398Y-112098390D02*
X100136779Y-112050771D01*
X100136779Y-112050771D02*
X100089160Y-111955533D01*
X100089160Y-111955533D02*
X100089160Y-111860295D01*
X100089160Y-111860295D02*
X100136779Y-111765057D01*
X100136779Y-111765057D02*
X100184398Y-111717438D01*
X100184398Y-111717438D02*
X100279636Y-111669819D01*
X100279636Y-111669819D02*
X100517731Y-111669819D01*
X100517731Y-111669819D02*
X100660588Y-111717438D01*
X101470112Y-112622200D02*
X101374874Y-112669819D01*
X101374874Y-112669819D02*
X101184398Y-112669819D01*
X101184398Y-112669819D02*
X101089160Y-112622200D01*
X101089160Y-112622200D02*
X101041541Y-112526961D01*
X101041541Y-112526961D02*
X101041541Y-112146009D01*
X101041541Y-112146009D02*
X101089160Y-112050771D01*
X101089160Y-112050771D02*
X101184398Y-112003152D01*
X101184398Y-112003152D02*
X101374874Y-112003152D01*
X101374874Y-112003152D02*
X101470112Y-112050771D01*
X101470112Y-112050771D02*
X101517731Y-112146009D01*
X101517731Y-112146009D02*
X101517731Y-112241247D01*
X101517731Y-112241247D02*
X101041541Y-112336485D01*
X101946303Y-112669819D02*
X101946303Y-112003152D01*
X101946303Y-112193628D02*
X101993922Y-112098390D01*
X101993922Y-112098390D02*
X102041541Y-112050771D01*
X102041541Y-112050771D02*
X102136779Y-112003152D01*
X102136779Y-112003152D02*
X102232017Y-112003152D01*
X102565351Y-112669819D02*
X102565351Y-112003152D01*
X102565351Y-111669819D02*
X102517732Y-111717438D01*
X102517732Y-111717438D02*
X102565351Y-111765057D01*
X102565351Y-111765057D02*
X102612970Y-111717438D01*
X102612970Y-111717438D02*
X102565351Y-111669819D01*
X102565351Y-111669819D02*
X102565351Y-111765057D01*
X103470112Y-112669819D02*
X103470112Y-112146009D01*
X103470112Y-112146009D02*
X103422493Y-112050771D01*
X103422493Y-112050771D02*
X103327255Y-112003152D01*
X103327255Y-112003152D02*
X103136779Y-112003152D01*
X103136779Y-112003152D02*
X103041541Y-112050771D01*
X103470112Y-112622200D02*
X103374874Y-112669819D01*
X103374874Y-112669819D02*
X103136779Y-112669819D01*
X103136779Y-112669819D02*
X103041541Y-112622200D01*
X103041541Y-112622200D02*
X102993922Y-112526961D01*
X102993922Y-112526961D02*
X102993922Y-112431723D01*
X102993922Y-112431723D02*
X103041541Y-112336485D01*
X103041541Y-112336485D02*
X103136779Y-112288866D01*
X103136779Y-112288866D02*
X103374874Y-112288866D01*
X103374874Y-112288866D02*
X103470112Y-112241247D01*
X104089160Y-112669819D02*
X103993922Y-112622200D01*
X103993922Y-112622200D02*
X103946303Y-112526961D01*
X103946303Y-112526961D02*
X103946303Y-111669819D01*
X105660589Y-112669819D02*
X105660589Y-111669819D01*
X105660589Y-112622200D02*
X105565351Y-112669819D01*
X105565351Y-112669819D02*
X105374875Y-112669819D01*
X105374875Y-112669819D02*
X105279637Y-112622200D01*
X105279637Y-112622200D02*
X105232018Y-112574580D01*
X105232018Y-112574580D02*
X105184399Y-112479342D01*
X105184399Y-112479342D02*
X105184399Y-112193628D01*
X105184399Y-112193628D02*
X105232018Y-112098390D01*
X105232018Y-112098390D02*
X105279637Y-112050771D01*
X105279637Y-112050771D02*
X105374875Y-112003152D01*
X105374875Y-112003152D02*
X105565351Y-112003152D01*
X105565351Y-112003152D02*
X105660589Y-112050771D01*
X106136780Y-112669819D02*
X106136780Y-112003152D01*
X106136780Y-112193628D02*
X106184399Y-112098390D01*
X106184399Y-112098390D02*
X106232018Y-112050771D01*
X106232018Y-112050771D02*
X106327256Y-112003152D01*
X106327256Y-112003152D02*
X106422494Y-112003152D01*
X106755828Y-112669819D02*
X106755828Y-112003152D01*
X106755828Y-111669819D02*
X106708209Y-111717438D01*
X106708209Y-111717438D02*
X106755828Y-111765057D01*
X106755828Y-111765057D02*
X106803447Y-111717438D01*
X106803447Y-111717438D02*
X106755828Y-111669819D01*
X106755828Y-111669819D02*
X106755828Y-111765057D01*
X107136780Y-112003152D02*
X107374875Y-112669819D01*
X107374875Y-112669819D02*
X107612970Y-112003152D01*
X108374875Y-112622200D02*
X108279637Y-112669819D01*
X108279637Y-112669819D02*
X108089161Y-112669819D01*
X108089161Y-112669819D02*
X107993923Y-112622200D01*
X107993923Y-112622200D02*
X107946304Y-112526961D01*
X107946304Y-112526961D02*
X107946304Y-112146009D01*
X107946304Y-112146009D02*
X107993923Y-112050771D01*
X107993923Y-112050771D02*
X108089161Y-112003152D01*
X108089161Y-112003152D02*
X108279637Y-112003152D01*
X108279637Y-112003152D02*
X108374875Y-112050771D01*
X108374875Y-112050771D02*
X108422494Y-112146009D01*
X108422494Y-112146009D02*
X108422494Y-112241247D01*
X108422494Y-112241247D02*
X107946304Y-112336485D01*
X108851066Y-112669819D02*
X108851066Y-112003152D01*
X108851066Y-112193628D02*
X108898685Y-112098390D01*
X108898685Y-112098390D02*
X108946304Y-112050771D01*
X108946304Y-112050771D02*
X109041542Y-112003152D01*
X109041542Y-112003152D02*
X109136780Y-112003152D01*
X153674580Y-115791792D02*
X153722200Y-115839411D01*
X153722200Y-115839411D02*
X153769819Y-115982268D01*
X153769819Y-115982268D02*
X153769819Y-116077506D01*
X153769819Y-116077506D02*
X153722200Y-116220363D01*
X153722200Y-116220363D02*
X153626961Y-116315601D01*
X153626961Y-116315601D02*
X153531723Y-116363220D01*
X153531723Y-116363220D02*
X153341247Y-116410839D01*
X153341247Y-116410839D02*
X153198390Y-116410839D01*
X153198390Y-116410839D02*
X153007914Y-116363220D01*
X153007914Y-116363220D02*
X152912676Y-116315601D01*
X152912676Y-116315601D02*
X152817438Y-116220363D01*
X152817438Y-116220363D02*
X152769819Y-116077506D01*
X152769819Y-116077506D02*
X152769819Y-115982268D01*
X152769819Y-115982268D02*
X152817438Y-115839411D01*
X152817438Y-115839411D02*
X152865057Y-115791792D01*
X153769819Y-115220363D02*
X153722200Y-115315601D01*
X153722200Y-115315601D02*
X153674580Y-115363220D01*
X153674580Y-115363220D02*
X153579342Y-115410839D01*
X153579342Y-115410839D02*
X153293628Y-115410839D01*
X153293628Y-115410839D02*
X153198390Y-115363220D01*
X153198390Y-115363220D02*
X153150771Y-115315601D01*
X153150771Y-115315601D02*
X153103152Y-115220363D01*
X153103152Y-115220363D02*
X153103152Y-115077506D01*
X153103152Y-115077506D02*
X153150771Y-114982268D01*
X153150771Y-114982268D02*
X153198390Y-114934649D01*
X153198390Y-114934649D02*
X153293628Y-114887030D01*
X153293628Y-114887030D02*
X153579342Y-114887030D01*
X153579342Y-114887030D02*
X153674580Y-114934649D01*
X153674580Y-114934649D02*
X153722200Y-114982268D01*
X153722200Y-114982268D02*
X153769819Y-115077506D01*
X153769819Y-115077506D02*
X153769819Y-115220363D01*
X153103152Y-114458458D02*
X153769819Y-114458458D01*
X153198390Y-114458458D02*
X153150771Y-114410839D01*
X153150771Y-114410839D02*
X153103152Y-114315601D01*
X153103152Y-114315601D02*
X153103152Y-114172744D01*
X153103152Y-114172744D02*
X153150771Y-114077506D01*
X153150771Y-114077506D02*
X153246009Y-114029887D01*
X153246009Y-114029887D02*
X153769819Y-114029887D01*
X153103152Y-113553696D02*
X153769819Y-113553696D01*
X153198390Y-113553696D02*
X153150771Y-113506077D01*
X153150771Y-113506077D02*
X153103152Y-113410839D01*
X153103152Y-113410839D02*
X153103152Y-113267982D01*
X153103152Y-113267982D02*
X153150771Y-113172744D01*
X153150771Y-113172744D02*
X153246009Y-113125125D01*
X153246009Y-113125125D02*
X153769819Y-113125125D01*
X153769819Y-111887029D02*
X152769819Y-111887029D01*
X153150771Y-111887029D02*
X153103152Y-111791791D01*
X153103152Y-111791791D02*
X153103152Y-111601315D01*
X153103152Y-111601315D02*
X153150771Y-111506077D01*
X153150771Y-111506077D02*
X153198390Y-111458458D01*
X153198390Y-111458458D02*
X153293628Y-111410839D01*
X153293628Y-111410839D02*
X153579342Y-111410839D01*
X153579342Y-111410839D02*
X153674580Y-111458458D01*
X153674580Y-111458458D02*
X153722200Y-111506077D01*
X153722200Y-111506077D02*
X153769819Y-111601315D01*
X153769819Y-111601315D02*
X153769819Y-111791791D01*
X153769819Y-111791791D02*
X153722200Y-111887029D01*
X153769819Y-110839410D02*
X153722200Y-110934648D01*
X153722200Y-110934648D02*
X153674580Y-110982267D01*
X153674580Y-110982267D02*
X153579342Y-111029886D01*
X153579342Y-111029886D02*
X153293628Y-111029886D01*
X153293628Y-111029886D02*
X153198390Y-110982267D01*
X153198390Y-110982267D02*
X153150771Y-110934648D01*
X153150771Y-110934648D02*
X153103152Y-110839410D01*
X153103152Y-110839410D02*
X153103152Y-110696553D01*
X153103152Y-110696553D02*
X153150771Y-110601315D01*
X153150771Y-110601315D02*
X153198390Y-110553696D01*
X153198390Y-110553696D02*
X153293628Y-110506077D01*
X153293628Y-110506077D02*
X153579342Y-110506077D01*
X153579342Y-110506077D02*
X153674580Y-110553696D01*
X153674580Y-110553696D02*
X153722200Y-110601315D01*
X153722200Y-110601315D02*
X153769819Y-110696553D01*
X153769819Y-110696553D02*
X153769819Y-110839410D01*
X153103152Y-110077505D02*
X153769819Y-110077505D01*
X153198390Y-110077505D02*
X153150771Y-110029886D01*
X153150771Y-110029886D02*
X153103152Y-109934648D01*
X153103152Y-109934648D02*
X153103152Y-109791791D01*
X153103152Y-109791791D02*
X153150771Y-109696553D01*
X153150771Y-109696553D02*
X153246009Y-109648934D01*
X153246009Y-109648934D02*
X153769819Y-109648934D01*
X153103152Y-108744172D02*
X153769819Y-108744172D01*
X153103152Y-109172743D02*
X153626961Y-109172743D01*
X153626961Y-109172743D02*
X153722200Y-109125124D01*
X153722200Y-109125124D02*
X153769819Y-109029886D01*
X153769819Y-109029886D02*
X153769819Y-108887029D01*
X153769819Y-108887029D02*
X153722200Y-108791791D01*
X153722200Y-108791791D02*
X153674580Y-108744172D01*
X153722200Y-108315600D02*
X153769819Y-108220362D01*
X153769819Y-108220362D02*
X153769819Y-108029886D01*
X153769819Y-108029886D02*
X153722200Y-107934648D01*
X153722200Y-107934648D02*
X153626961Y-107887029D01*
X153626961Y-107887029D02*
X153579342Y-107887029D01*
X153579342Y-107887029D02*
X153484104Y-107934648D01*
X153484104Y-107934648D02*
X153436485Y-108029886D01*
X153436485Y-108029886D02*
X153436485Y-108172743D01*
X153436485Y-108172743D02*
X153388866Y-108267981D01*
X153388866Y-108267981D02*
X153293628Y-108315600D01*
X153293628Y-108315600D02*
X153246009Y-108315600D01*
X153246009Y-108315600D02*
X153150771Y-108267981D01*
X153150771Y-108267981D02*
X153103152Y-108172743D01*
X153103152Y-108172743D02*
X153103152Y-108029886D01*
X153103152Y-108029886D02*
X153150771Y-107934648D01*
X145233333Y-51359580D02*
X145185714Y-51407200D01*
X145185714Y-51407200D02*
X145042857Y-51454819D01*
X145042857Y-51454819D02*
X144947619Y-51454819D01*
X144947619Y-51454819D02*
X144804762Y-51407200D01*
X144804762Y-51407200D02*
X144709524Y-51311961D01*
X144709524Y-51311961D02*
X144661905Y-51216723D01*
X144661905Y-51216723D02*
X144614286Y-51026247D01*
X144614286Y-51026247D02*
X144614286Y-50883390D01*
X144614286Y-50883390D02*
X144661905Y-50692914D01*
X144661905Y-50692914D02*
X144709524Y-50597676D01*
X144709524Y-50597676D02*
X144804762Y-50502438D01*
X144804762Y-50502438D02*
X144947619Y-50454819D01*
X144947619Y-50454819D02*
X145042857Y-50454819D01*
X145042857Y-50454819D02*
X145185714Y-50502438D01*
X145185714Y-50502438D02*
X145233333Y-50550057D01*
X146185714Y-51454819D02*
X145614286Y-51454819D01*
X145900000Y-51454819D02*
X145900000Y-50454819D01*
X145900000Y-50454819D02*
X145804762Y-50597676D01*
X145804762Y-50597676D02*
X145709524Y-50692914D01*
X145709524Y-50692914D02*
X145614286Y-50740533D01*
X146774819Y-91768333D02*
X147489104Y-91768333D01*
X147489104Y-91768333D02*
X147631961Y-91815952D01*
X147631961Y-91815952D02*
X147727200Y-91911190D01*
X147727200Y-91911190D02*
X147774819Y-92054047D01*
X147774819Y-92054047D02*
X147774819Y-92149285D01*
X146870057Y-91339761D02*
X146822438Y-91292142D01*
X146822438Y-91292142D02*
X146774819Y-91196904D01*
X146774819Y-91196904D02*
X146774819Y-90958809D01*
X146774819Y-90958809D02*
X146822438Y-90863571D01*
X146822438Y-90863571D02*
X146870057Y-90815952D01*
X146870057Y-90815952D02*
X146965295Y-90768333D01*
X146965295Y-90768333D02*
X147060533Y-90768333D01*
X147060533Y-90768333D02*
X147203390Y-90815952D01*
X147203390Y-90815952D02*
X147774819Y-91387380D01*
X147774819Y-91387380D02*
X147774819Y-90768333D01*
X117141506Y-113754561D02*
X117141506Y-114469190D01*
X117141506Y-114469190D02*
X117093865Y-114612116D01*
X117093865Y-114612116D02*
X116998581Y-114707400D01*
X116998581Y-114707400D02*
X116855655Y-114755041D01*
X116855655Y-114755041D02*
X116760371Y-114755041D01*
X118141986Y-114755041D02*
X117570283Y-114755041D01*
X117856135Y-114755041D02*
X117856135Y-113754561D01*
X117856135Y-113754561D02*
X117760851Y-113897487D01*
X117760851Y-113897487D02*
X117665567Y-113992771D01*
X117665567Y-113992771D02*
X117570283Y-114040413D01*
X145081506Y-113119561D02*
X145081506Y-113834190D01*
X145081506Y-113834190D02*
X145033865Y-113977116D01*
X145033865Y-113977116D02*
X144938581Y-114072400D01*
X144938581Y-114072400D02*
X144795655Y-114120041D01*
X144795655Y-114120041D02*
X144700371Y-114120041D01*
X145986702Y-113453055D02*
X145986702Y-114120041D01*
X145748493Y-113071920D02*
X145510283Y-113786548D01*
X145510283Y-113786548D02*
X146129628Y-113786548D01*
X146774819Y-78438333D02*
X147489104Y-78438333D01*
X147489104Y-78438333D02*
X147631961Y-78485952D01*
X147631961Y-78485952D02*
X147727200Y-78581190D01*
X147727200Y-78581190D02*
X147774819Y-78724047D01*
X147774819Y-78724047D02*
X147774819Y-78819285D01*
X146774819Y-78057380D02*
X146774819Y-77438333D01*
X146774819Y-77438333D02*
X147155771Y-77771666D01*
X147155771Y-77771666D02*
X147155771Y-77628809D01*
X147155771Y-77628809D02*
X147203390Y-77533571D01*
X147203390Y-77533571D02*
X147251009Y-77485952D01*
X147251009Y-77485952D02*
X147346247Y-77438333D01*
X147346247Y-77438333D02*
X147584342Y-77438333D01*
X147584342Y-77438333D02*
X147679580Y-77485952D01*
X147679580Y-77485952D02*
X147727200Y-77533571D01*
X147727200Y-77533571D02*
X147774819Y-77628809D01*
X147774819Y-77628809D02*
X147774819Y-77914523D01*
X147774819Y-77914523D02*
X147727200Y-78009761D01*
X147727200Y-78009761D02*
X147679580Y-78057380D01*
X116713095Y-75654819D02*
X116713095Y-76464342D01*
X116713095Y-76464342D02*
X116760714Y-76559580D01*
X116760714Y-76559580D02*
X116808333Y-76607200D01*
X116808333Y-76607200D02*
X116903571Y-76654819D01*
X116903571Y-76654819D02*
X117094047Y-76654819D01*
X117094047Y-76654819D02*
X117189285Y-76607200D01*
X117189285Y-76607200D02*
X117236904Y-76559580D01*
X117236904Y-76559580D02*
X117284523Y-76464342D01*
X117284523Y-76464342D02*
X117284523Y-75654819D01*
X118284523Y-76654819D02*
X117713095Y-76654819D01*
X117998809Y-76654819D02*
X117998809Y-75654819D01*
X117998809Y-75654819D02*
X117903571Y-75797676D01*
X117903571Y-75797676D02*
X117808333Y-75892914D01*
X117808333Y-75892914D02*
X117713095Y-75940533D01*
X145869819Y-66778094D02*
X144869819Y-66778094D01*
X144869819Y-66778094D02*
X144869819Y-66539999D01*
X144869819Y-66539999D02*
X144917438Y-66397142D01*
X144917438Y-66397142D02*
X145012676Y-66301904D01*
X145012676Y-66301904D02*
X145107914Y-66254285D01*
X145107914Y-66254285D02*
X145298390Y-66206666D01*
X145298390Y-66206666D02*
X145441247Y-66206666D01*
X145441247Y-66206666D02*
X145631723Y-66254285D01*
X145631723Y-66254285D02*
X145726961Y-66301904D01*
X145726961Y-66301904D02*
X145822200Y-66397142D01*
X145822200Y-66397142D02*
X145869819Y-66539999D01*
X145869819Y-66539999D02*
X145869819Y-66778094D01*
X145869819Y-65254285D02*
X145869819Y-65825713D01*
X145869819Y-65539999D02*
X144869819Y-65539999D01*
X144869819Y-65539999D02*
X145012676Y-65635237D01*
X145012676Y-65635237D02*
X145107914Y-65730475D01*
X145107914Y-65730475D02*
X145155533Y-65825713D01*
X102866667Y-109307200D02*
X103009524Y-109354819D01*
X103009524Y-109354819D02*
X103247619Y-109354819D01*
X103247619Y-109354819D02*
X103342857Y-109307200D01*
X103342857Y-109307200D02*
X103390476Y-109259580D01*
X103390476Y-109259580D02*
X103438095Y-109164342D01*
X103438095Y-109164342D02*
X103438095Y-109069104D01*
X103438095Y-109069104D02*
X103390476Y-108973866D01*
X103390476Y-108973866D02*
X103342857Y-108926247D01*
X103342857Y-108926247D02*
X103247619Y-108878628D01*
X103247619Y-108878628D02*
X103057143Y-108831009D01*
X103057143Y-108831009D02*
X102961905Y-108783390D01*
X102961905Y-108783390D02*
X102914286Y-108735771D01*
X102914286Y-108735771D02*
X102866667Y-108640533D01*
X102866667Y-108640533D02*
X102866667Y-108545295D01*
X102866667Y-108545295D02*
X102914286Y-108450057D01*
X102914286Y-108450057D02*
X102961905Y-108402438D01*
X102961905Y-108402438D02*
X103057143Y-108354819D01*
X103057143Y-108354819D02*
X103295238Y-108354819D01*
X103295238Y-108354819D02*
X103438095Y-108402438D01*
X103771429Y-108354819D02*
X104009524Y-109354819D01*
X104009524Y-109354819D02*
X104200000Y-108640533D01*
X104200000Y-108640533D02*
X104390476Y-109354819D01*
X104390476Y-109354819D02*
X104628572Y-108354819D01*
X104961905Y-108450057D02*
X105009524Y-108402438D01*
X105009524Y-108402438D02*
X105104762Y-108354819D01*
X105104762Y-108354819D02*
X105342857Y-108354819D01*
X105342857Y-108354819D02*
X105438095Y-108402438D01*
X105438095Y-108402438D02*
X105485714Y-108450057D01*
X105485714Y-108450057D02*
X105533333Y-108545295D01*
X105533333Y-108545295D02*
X105533333Y-108640533D01*
X105533333Y-108640533D02*
X105485714Y-108783390D01*
X105485714Y-108783390D02*
X104914286Y-109354819D01*
X104914286Y-109354819D02*
X105533333Y-109354819D01*
D11*
%TO.C,C1*%
X148074698Y-55655000D02*
X147274698Y-55655000D01*
X147674698Y-56055000D02*
X147674698Y-55255000D01*
X143665000Y-57420000D02*
X143665000Y-49260000D01*
X143625000Y-57420000D02*
X143625000Y-49260000D01*
X143585000Y-57420000D02*
X143585000Y-49260000D01*
X143545000Y-57419000D02*
X143545000Y-49261000D01*
X143505000Y-57417000D02*
X143505000Y-49263000D01*
X143465000Y-57416000D02*
X143465000Y-49264000D01*
X143425000Y-57414000D02*
X143425000Y-49266000D01*
X143385000Y-57411000D02*
X143385000Y-49269000D01*
X143345000Y-57408000D02*
X143345000Y-49272000D01*
X143305000Y-57405000D02*
X143305000Y-49275000D01*
X143265000Y-57401000D02*
X143265000Y-49279000D01*
X143225000Y-57397000D02*
X143225000Y-49283000D01*
X143185000Y-57392000D02*
X143185000Y-49288000D01*
X143145000Y-57388000D02*
X143145000Y-49292000D01*
X143105000Y-57382000D02*
X143105000Y-49298000D01*
X143065000Y-57377000D02*
X143065000Y-49303000D01*
X143025000Y-57370000D02*
X143025000Y-49310000D01*
X142985000Y-57364000D02*
X142985000Y-49316000D01*
X142944000Y-57357000D02*
X142944000Y-54380000D01*
X142944000Y-52300000D02*
X142944000Y-49323000D01*
X142904000Y-57350000D02*
X142904000Y-54380000D01*
X142904000Y-52300000D02*
X142904000Y-49330000D01*
X142864000Y-57342000D02*
X142864000Y-54380000D01*
X142864000Y-52300000D02*
X142864000Y-49338000D01*
X142824000Y-57334000D02*
X142824000Y-54380000D01*
X142824000Y-52300000D02*
X142824000Y-49346000D01*
X142784000Y-57325000D02*
X142784000Y-54380000D01*
X142784000Y-52300000D02*
X142784000Y-49355000D01*
X142744000Y-57316000D02*
X142744000Y-54380000D01*
X142744000Y-52300000D02*
X142744000Y-49364000D01*
X142704000Y-57307000D02*
X142704000Y-54380000D01*
X142704000Y-52300000D02*
X142704000Y-49373000D01*
X142664000Y-57297000D02*
X142664000Y-54380000D01*
X142664000Y-52300000D02*
X142664000Y-49383000D01*
X142624000Y-57287000D02*
X142624000Y-54380000D01*
X142624000Y-52300000D02*
X142624000Y-49393000D01*
X142584000Y-57276000D02*
X142584000Y-54380000D01*
X142584000Y-52300000D02*
X142584000Y-49404000D01*
X142544000Y-57265000D02*
X142544000Y-54380000D01*
X142544000Y-52300000D02*
X142544000Y-49415000D01*
X142504000Y-57254000D02*
X142504000Y-54380000D01*
X142504000Y-52300000D02*
X142504000Y-49426000D01*
X142464000Y-57242000D02*
X142464000Y-54380000D01*
X142464000Y-52300000D02*
X142464000Y-49438000D01*
X142424000Y-57229000D02*
X142424000Y-54380000D01*
X142424000Y-52300000D02*
X142424000Y-49451000D01*
X142384000Y-57217000D02*
X142384000Y-54380000D01*
X142384000Y-52300000D02*
X142384000Y-49463000D01*
X142344000Y-57203000D02*
X142344000Y-54380000D01*
X142344000Y-52300000D02*
X142344000Y-49477000D01*
X142304000Y-57190000D02*
X142304000Y-54380000D01*
X142304000Y-52300000D02*
X142304000Y-49490000D01*
X142264000Y-57175000D02*
X142264000Y-54380000D01*
X142264000Y-52300000D02*
X142264000Y-49505000D01*
X142224000Y-57161000D02*
X142224000Y-54380000D01*
X142224000Y-52300000D02*
X142224000Y-49519000D01*
X142184000Y-57145000D02*
X142184000Y-54380000D01*
X142184000Y-52300000D02*
X142184000Y-49535000D01*
X142144000Y-57130000D02*
X142144000Y-54380000D01*
X142144000Y-52300000D02*
X142144000Y-49550000D01*
X142104000Y-57114000D02*
X142104000Y-54380000D01*
X142104000Y-52300000D02*
X142104000Y-49566000D01*
X142064000Y-57097000D02*
X142064000Y-54380000D01*
X142064000Y-52300000D02*
X142064000Y-49583000D01*
X142024000Y-57080000D02*
X142024000Y-54380000D01*
X142024000Y-52300000D02*
X142024000Y-49600000D01*
X141984000Y-57062000D02*
X141984000Y-54380000D01*
X141984000Y-52300000D02*
X141984000Y-49618000D01*
X141944000Y-57044000D02*
X141944000Y-54380000D01*
X141944000Y-52300000D02*
X141944000Y-49636000D01*
X141904000Y-57026000D02*
X141904000Y-54380000D01*
X141904000Y-52300000D02*
X141904000Y-49654000D01*
X141864000Y-57006000D02*
X141864000Y-54380000D01*
X141864000Y-52300000D02*
X141864000Y-49674000D01*
X141824000Y-56987000D02*
X141824000Y-54380000D01*
X141824000Y-52300000D02*
X141824000Y-49693000D01*
X141784000Y-56967000D02*
X141784000Y-54380000D01*
X141784000Y-52300000D02*
X141784000Y-49713000D01*
X141744000Y-56946000D02*
X141744000Y-54380000D01*
X141744000Y-52300000D02*
X141744000Y-49734000D01*
X141704000Y-56924000D02*
X141704000Y-54380000D01*
X141704000Y-52300000D02*
X141704000Y-49756000D01*
X141664000Y-56902000D02*
X141664000Y-54380000D01*
X141664000Y-52300000D02*
X141664000Y-49778000D01*
X141624000Y-56880000D02*
X141624000Y-54380000D01*
X141624000Y-52300000D02*
X141624000Y-49800000D01*
X141584000Y-56857000D02*
X141584000Y-54380000D01*
X141584000Y-52300000D02*
X141584000Y-49823000D01*
X141544000Y-56833000D02*
X141544000Y-54380000D01*
X141544000Y-52300000D02*
X141544000Y-49847000D01*
X141504000Y-56809000D02*
X141504000Y-54380000D01*
X141504000Y-52300000D02*
X141504000Y-49871000D01*
X141464000Y-56784000D02*
X141464000Y-54380000D01*
X141464000Y-52300000D02*
X141464000Y-49896000D01*
X141424000Y-56758000D02*
X141424000Y-54380000D01*
X141424000Y-52300000D02*
X141424000Y-49922000D01*
X141384000Y-56732000D02*
X141384000Y-54380000D01*
X141384000Y-52300000D02*
X141384000Y-49948000D01*
X141344000Y-56705000D02*
X141344000Y-54380000D01*
X141344000Y-52300000D02*
X141344000Y-49975000D01*
X141304000Y-56678000D02*
X141304000Y-54380000D01*
X141304000Y-52300000D02*
X141304000Y-50002000D01*
X141264000Y-56649000D02*
X141264000Y-54380000D01*
X141264000Y-52300000D02*
X141264000Y-50031000D01*
X141224000Y-56620000D02*
X141224000Y-54380000D01*
X141224000Y-52300000D02*
X141224000Y-50060000D01*
X141184000Y-56590000D02*
X141184000Y-54380000D01*
X141184000Y-52300000D02*
X141184000Y-50090000D01*
X141144000Y-56560000D02*
X141144000Y-54380000D01*
X141144000Y-52300000D02*
X141144000Y-50120000D01*
X141104000Y-56529000D02*
X141104000Y-54380000D01*
X141104000Y-52300000D02*
X141104000Y-50151000D01*
X141064000Y-56496000D02*
X141064000Y-54380000D01*
X141064000Y-52300000D02*
X141064000Y-50184000D01*
X141024000Y-56464000D02*
X141024000Y-54380000D01*
X141024000Y-52300000D02*
X141024000Y-50216000D01*
X140984000Y-56430000D02*
X140984000Y-54380000D01*
X140984000Y-52300000D02*
X140984000Y-50250000D01*
X140944000Y-56395000D02*
X140944000Y-54380000D01*
X140944000Y-52300000D02*
X140944000Y-50285000D01*
X140904000Y-56359000D02*
X140904000Y-54380000D01*
X140904000Y-52300000D02*
X140904000Y-50321000D01*
X140864000Y-56323000D02*
X140864000Y-50357000D01*
X140824000Y-56285000D02*
X140824000Y-50395000D01*
X140784000Y-56247000D02*
X140784000Y-50433000D01*
X140744000Y-56207000D02*
X140744000Y-50473000D01*
X140704000Y-56166000D02*
X140704000Y-50514000D01*
X140664000Y-56124000D02*
X140664000Y-50556000D01*
X140624000Y-56081000D02*
X140624000Y-50599000D01*
X140584000Y-56037000D02*
X140584000Y-50643000D01*
X140544000Y-55991000D02*
X140544000Y-50689000D01*
X140504000Y-55944000D02*
X140504000Y-50736000D01*
X140464000Y-55896000D02*
X140464000Y-50784000D01*
X140424000Y-55845000D02*
X140424000Y-50835000D01*
X140384000Y-55794000D02*
X140384000Y-50886000D01*
X140344000Y-55740000D02*
X140344000Y-50940000D01*
X140304000Y-55685000D02*
X140304000Y-50995000D01*
X140264000Y-55627000D02*
X140264000Y-51053000D01*
X140224000Y-55568000D02*
X140224000Y-51112000D01*
X140184000Y-55506000D02*
X140184000Y-51174000D01*
X140144000Y-55442000D02*
X140144000Y-51238000D01*
X140104000Y-55374000D02*
X140104000Y-51306000D01*
X140064000Y-55304000D02*
X140064000Y-51376000D01*
X140024000Y-55230000D02*
X140024000Y-51450000D01*
X139984000Y-55153000D02*
X139984000Y-51527000D01*
X139944000Y-55071000D02*
X139944000Y-51609000D01*
X139904000Y-54985000D02*
X139904000Y-51695000D01*
X139864000Y-54892000D02*
X139864000Y-51788000D01*
X139824000Y-54793000D02*
X139824000Y-51887000D01*
X139784000Y-54686000D02*
X139784000Y-51994000D01*
X139744000Y-54569000D02*
X139744000Y-52111000D01*
X139704000Y-54438000D02*
X139704000Y-52242000D01*
X139664000Y-54288000D02*
X139664000Y-52392000D01*
X139624000Y-54108000D02*
X139624000Y-52572000D01*
X139584000Y-53873000D02*
X139584000Y-52807000D01*
X147785000Y-53340000D02*
G75*
G03*
X139545000Y-53340000I-4120000J0D01*
G01*
X139545000Y-53340000D02*
G75*
G03*
X147785000Y-53340000I4120000J0D01*
G01*
%TO.C,J2*%
X149975000Y-86325000D02*
X149975000Y-88735000D01*
X147565000Y-86325000D02*
X149975000Y-86325000D01*
X149675000Y-86625000D02*
X140955000Y-86625000D01*
X140955000Y-86625000D02*
X140955000Y-96245000D01*
X148065000Y-87235000D02*
X142565000Y-87235000D01*
X142565000Y-87235000D02*
X142565000Y-89535000D01*
X142565000Y-89535000D02*
X141565000Y-89535000D01*
X141565000Y-89535000D02*
X141565000Y-92135000D01*
X142565000Y-92135000D02*
X142565000Y-93035000D01*
X141565000Y-92135000D02*
X142565000Y-92135000D01*
X142565000Y-93035000D02*
X141565000Y-93035000D01*
X141565000Y-93035000D02*
X141565000Y-95635000D01*
X148065000Y-95635000D02*
X148065000Y-87235000D01*
X141565000Y-95635000D02*
X148065000Y-95635000D01*
X149675000Y-96245000D02*
X149675000Y-86625000D01*
X140955000Y-96245000D02*
X149675000Y-96245000D01*
%TO.C,J5*%
X153095000Y-100905000D02*
X153095000Y-102235000D01*
X151765000Y-100905000D02*
X153095000Y-100905000D01*
X150495000Y-100905000D02*
X137735000Y-100905000D01*
X150495000Y-100905000D02*
X150495000Y-103565000D01*
X137735000Y-100905000D02*
X137735000Y-103565000D01*
X150495000Y-103565000D02*
X137735000Y-103565000D01*
%TO.C,J6*%
X99635000Y-52010000D02*
X100965000Y-52010000D01*
X99635000Y-53340000D02*
X99635000Y-52010000D01*
X99635000Y-54610000D02*
X99635000Y-100390000D01*
X99635000Y-54610000D02*
X102295000Y-54610000D01*
X99635000Y-100390000D02*
X102295000Y-100390000D01*
X102295000Y-54610000D02*
X102295000Y-100390000D01*
D12*
%TO.C,J1*%
X124075000Y-105380000D02*
X110870000Y-105380000D01*
X110870000Y-123480000D02*
X124075000Y-123480000D01*
D13*
X121120000Y-104470000D02*
G75*
G03*
X120820000Y-104470000I-150000J0D01*
G01*
X120820000Y-104470000D02*
G75*
G03*
X121120000Y-104470000I150000J0D01*
G01*
D12*
%TO.C,J4*%
X152015000Y-105370000D02*
X138810000Y-105370000D01*
X138810000Y-123470000D02*
X152015000Y-123470000D01*
D13*
X149060000Y-104460000D02*
G75*
G03*
X148760000Y-104460000I-150000J0D01*
G01*
X148760000Y-104460000D02*
G75*
G03*
X149060000Y-104460000I150000J0D01*
G01*
D11*
%TO.C,J3*%
X150075000Y-72995000D02*
X150075000Y-75405000D01*
X147665000Y-72995000D02*
X150075000Y-72995000D01*
X149775000Y-73295000D02*
X141055000Y-73295000D01*
X141055000Y-73295000D02*
X141055000Y-82915000D01*
X148165000Y-73905000D02*
X142665000Y-73905000D01*
X142665000Y-73905000D02*
X142665000Y-76205000D01*
X142665000Y-76205000D02*
X141665000Y-76205000D01*
X141665000Y-76205000D02*
X141665000Y-78805000D01*
X142665000Y-78805000D02*
X142665000Y-79705000D01*
X141665000Y-78805000D02*
X142665000Y-78805000D01*
X142665000Y-79705000D02*
X141665000Y-79705000D01*
X141665000Y-79705000D02*
X141665000Y-82305000D01*
X148165000Y-82305000D02*
X148165000Y-73905000D01*
X141665000Y-82305000D02*
X148165000Y-82305000D01*
X149775000Y-82915000D02*
X149775000Y-73295000D01*
X141055000Y-82915000D02*
X149775000Y-82915000D01*
D12*
%TO.C,U1*%
X131475000Y-103700000D02*
X131475000Y-48700000D01*
X131475000Y-103700000D02*
X103475000Y-103700000D01*
X131475000Y-48700000D02*
X103475000Y-48700000D01*
X103475000Y-103700000D02*
X103475000Y-48700000D01*
D11*
%TO.C,J7*%
X135315000Y-100390000D02*
X133985000Y-100390000D01*
X135315000Y-99060000D02*
X135315000Y-100390000D01*
X135315000Y-97790000D02*
X135315000Y-52010000D01*
X135315000Y-97790000D02*
X132655000Y-97790000D01*
X135315000Y-52010000D02*
X132655000Y-52010000D01*
X132655000Y-97790000D02*
X132655000Y-52010000D01*
%TO.C,D1*%
X145415000Y-61665000D02*
X145415000Y-62685000D01*
X146885000Y-62685000D02*
X143945000Y-62685000D01*
X143945000Y-62685000D02*
X143945000Y-68125000D01*
X146885000Y-63465000D02*
X143945000Y-63465000D01*
X146885000Y-63585000D02*
X143945000Y-63585000D01*
X146885000Y-63705000D02*
X143945000Y-63705000D01*
X146885000Y-68125000D02*
X146885000Y-62685000D01*
X143945000Y-68125000D02*
X146885000Y-68125000D01*
X145415000Y-69145000D02*
X145415000Y-68125000D01*
%TO.C,SW2*%
X109080000Y-111240000D02*
X109080000Y-110040000D01*
X108780000Y-110940000D02*
X108780000Y-106740000D01*
X108780000Y-106740000D02*
X107580000Y-106740000D01*
X107880000Y-111240000D02*
X109080000Y-111240000D01*
X107580000Y-110940000D02*
X108780000Y-110940000D01*
X100780000Y-110940000D02*
X99580000Y-110940000D01*
X99580000Y-110940000D02*
X99580000Y-106740000D01*
X99580000Y-106740000D02*
X100780000Y-106740000D01*
%TD*%
%LPC*%
D14*
%TO.C,C1*%
X145415000Y-53340000D03*
D15*
X141915000Y-53340000D03*
%TD*%
D16*
%TO.C,J2*%
X145415000Y-89535000D03*
D17*
X145415000Y-93035000D03*
%TD*%
D18*
%TO.C,H2*%
X150495000Y-46355000D03*
%TD*%
D19*
%TO.C,J5*%
X151765000Y-102235000D03*
D20*
X149225000Y-102235000D03*
X146685000Y-102235000D03*
X144145000Y-102235000D03*
X141605000Y-102235000D03*
X139065000Y-102235000D03*
%TD*%
D19*
%TO.C,J6*%
X100965000Y-53340000D03*
D20*
X100965000Y-55880000D03*
X100965000Y-58420000D03*
X100965000Y-60960000D03*
X100965000Y-63500000D03*
X100965000Y-66040000D03*
X100965000Y-68580000D03*
X100965000Y-71120000D03*
X100965000Y-73660000D03*
X100965000Y-76200000D03*
X100965000Y-78740000D03*
X100965000Y-81280000D03*
X100965000Y-83820000D03*
X100965000Y-86360000D03*
X100965000Y-88900000D03*
X100965000Y-91440000D03*
X100965000Y-93980000D03*
X100965000Y-96520000D03*
X100965000Y-99060000D03*
%TD*%
D21*
%TO.C,J1*%
X122555000Y-115580000D03*
X112395000Y-115580000D03*
D22*
X120645000Y-109220000D03*
D23*
X119375000Y-106680000D03*
X118105000Y-109220000D03*
X116835000Y-106680000D03*
X115565000Y-109220000D03*
X114295000Y-106680000D03*
%TD*%
D18*
%TO.C,H1*%
X97790000Y-46355000D03*
%TD*%
D21*
%TO.C,J4*%
X150495000Y-115570000D03*
X140335000Y-115570000D03*
D22*
X148585000Y-109210000D03*
D23*
X147315000Y-106670000D03*
X146045000Y-109210000D03*
X144775000Y-106670000D03*
X143505000Y-109210000D03*
X142235000Y-106670000D03*
%TD*%
D16*
%TO.C,J3*%
X145515000Y-76205000D03*
D17*
X145515000Y-79705000D03*
%TD*%
D24*
%TO.C,U1*%
X129975000Y-102200000D03*
X129975000Y-50200000D03*
X104975000Y-102200000D03*
X104975000Y-50200000D03*
D25*
X104475000Y-99060000D03*
D26*
X104475000Y-96520000D03*
X104475000Y-93980000D03*
X104475000Y-91440000D03*
X104475000Y-88900000D03*
X104475000Y-86360000D03*
X104475000Y-83820000D03*
X104475000Y-81280000D03*
X104475000Y-78740000D03*
X104475000Y-76200000D03*
X104475000Y-73660000D03*
X104475000Y-71120000D03*
X104475000Y-68580000D03*
X104475000Y-66040000D03*
X104475000Y-63500000D03*
X104475000Y-60960000D03*
X104475000Y-58420000D03*
X104475000Y-55880000D03*
X104475000Y-53340000D03*
D25*
X130475000Y-53340000D03*
D26*
X130475000Y-55880000D03*
X130475000Y-58420000D03*
X130475000Y-60960000D03*
X130475000Y-63500000D03*
X130475000Y-66040000D03*
X130475000Y-68580000D03*
X130475000Y-71120000D03*
X130475000Y-73660000D03*
X130475000Y-76200000D03*
X130475000Y-78740000D03*
X130475000Y-81280000D03*
X130475000Y-83820000D03*
X130475000Y-86360000D03*
X130475000Y-88900000D03*
X130475000Y-91440000D03*
X130475000Y-93980000D03*
X130475000Y-96520000D03*
X130475000Y-99060000D03*
%TD*%
D18*
%TO.C,H4*%
X133350000Y-115570000D03*
%TD*%
D19*
%TO.C,J7*%
X133985000Y-99060000D03*
D20*
X133985000Y-96520000D03*
X133985000Y-93980000D03*
X133985000Y-91440000D03*
X133985000Y-88900000D03*
X133985000Y-86360000D03*
X133985000Y-83820000D03*
X133985000Y-81280000D03*
X133985000Y-78740000D03*
X133985000Y-76200000D03*
X133985000Y-73660000D03*
X133985000Y-71120000D03*
X133985000Y-68580000D03*
X133985000Y-66040000D03*
X133985000Y-63500000D03*
X133985000Y-60960000D03*
X133985000Y-58420000D03*
X133985000Y-55880000D03*
X133985000Y-53340000D03*
%TD*%
D27*
%TO.C,D1*%
X145415000Y-60325000D03*
D28*
X145415000Y-70485000D03*
%TD*%
D29*
%TO.C,SW2*%
X106680000Y-110490000D03*
D30*
X104180000Y-110490000D03*
X101680000Y-110490000D03*
X106680000Y-107190000D03*
X104180000Y-107190000D03*
X101680000Y-107190000D03*
%TD*%
D18*
%TO.C,H3*%
X97790000Y-115570000D03*
%TD*%
%LPD*%
M02*
