%TF.GenerationSoftware,KiCad,Pcbnew,7.0.10*%
%TF.CreationDate,2024-03-27T14:16:48+01:00*%
%TF.ProjectId,carte pami,63617274-6520-4706-916d-692e6b696361,rev?*%
%TF.SameCoordinates,Original*%
%TF.FileFunction,Copper,L2,Bot*%
%TF.FilePolarity,Positive*%
%FSLAX46Y46*%
G04 Gerber Fmt 4.6, Leading zero omitted, Abs format (unit mm)*
G04 Created by KiCad (PCBNEW 7.0.10) date 2024-03-27 14:16:48*
%MOMM*%
%LPD*%
G01*
G04 APERTURE LIST*
G04 Aperture macros list*
%AMRoundRect*
0 Rectangle with rounded corners*
0 $1 Rounding radius*
0 $2 $3 $4 $5 $6 $7 $8 $9 X,Y pos of 4 corners*
0 Add a 4 corners polygon primitive as box body*
4,1,4,$2,$3,$4,$5,$6,$7,$8,$9,$2,$3,0*
0 Add four circle primitives for the rounded corners*
1,1,$1+$1,$2,$3*
1,1,$1+$1,$4,$5*
1,1,$1+$1,$6,$7*
1,1,$1+$1,$8,$9*
0 Add four rect primitives between the rounded corners*
20,1,$1+$1,$2,$3,$4,$5,0*
20,1,$1+$1,$4,$5,$6,$7,0*
20,1,$1+$1,$6,$7,$8,$9,0*
20,1,$1+$1,$8,$9,$2,$3,0*%
G04 Aperture macros list end*
%TA.AperFunction,ComponentPad*%
%ADD10R,1.600000X1.600000*%
%TD*%
%TA.AperFunction,ComponentPad*%
%ADD11C,1.600000*%
%TD*%
%TA.AperFunction,ComponentPad*%
%ADD12RoundRect,0.250000X-1.050000X0.750000X-1.050000X-0.750000X1.050000X-0.750000X1.050000X0.750000X0*%
%TD*%
%TA.AperFunction,ComponentPad*%
%ADD13O,2.600000X2.000000*%
%TD*%
%TA.AperFunction,ComponentPad*%
%ADD14C,6.400000*%
%TD*%
%TA.AperFunction,ComponentPad*%
%ADD15R,1.700000X1.700000*%
%TD*%
%TA.AperFunction,ComponentPad*%
%ADD16O,1.700000X1.700000*%
%TD*%
%TA.AperFunction,ComponentPad*%
%ADD17R,1.408000X1.408000*%
%TD*%
%TA.AperFunction,ComponentPad*%
%ADD18C,1.408000*%
%TD*%
%TA.AperFunction,ComponentPad*%
%ADD19R,1.350000X1.350000*%
%TD*%
%TA.AperFunction,ComponentPad*%
%ADD20C,1.350000*%
%TD*%
%TA.AperFunction,ComponentPad*%
%ADD21R,2.200000X2.200000*%
%TD*%
%TA.AperFunction,ComponentPad*%
%ADD22O,2.200000X2.200000*%
%TD*%
%TA.AperFunction,ComponentPad*%
%ADD23R,1.400000X1.400000*%
%TD*%
%TA.AperFunction,ComponentPad*%
%ADD24C,1.400000*%
%TD*%
%TA.AperFunction,Conductor*%
%ADD25C,1.500000*%
%TD*%
%TA.AperFunction,Conductor*%
%ADD26C,0.500000*%
%TD*%
G04 APERTURE END LIST*
D10*
%TO.P,C1,1*%
%TO.N,Net-(D1-K)*%
X145415000Y-53340000D03*
D11*
%TO.P,C1,2*%
%TO.N,5v*%
X141915000Y-53340000D03*
%TD*%
D12*
%TO.P,J2,1,Pin_1*%
%TO.N,Net-(J2-Pin_1)*%
X145415000Y-89535000D03*
D13*
%TO.P,J2,2,Pin_2*%
%TO.N,GND*%
X145415000Y-93035000D03*
%TD*%
D14*
%TO.P,H2,1*%
%TO.N,N/C*%
X150495000Y-46355000D03*
%TD*%
D15*
%TO.P,J5,1,Pin_1*%
%TO.N,Net-(J5-Pin_1)*%
X151765000Y-102235000D03*
D16*
%TO.P,J5,2,Pin_2*%
%TO.N,Net-(J5-Pin_2)*%
X149225000Y-102235000D03*
%TO.P,J5,3,Pin_3*%
%TO.N,Net-(J5-Pin_3)*%
X146685000Y-102235000D03*
%TO.P,J5,4,Pin_4*%
%TO.N,Net-(J5-Pin_4)*%
X144145000Y-102235000D03*
%TO.P,J5,5,Pin_5*%
%TO.N,Net-(J5-Pin_5)*%
X141605000Y-102235000D03*
%TO.P,J5,6,Pin_6*%
%TO.N,Net-(J5-Pin_6)*%
X139065000Y-102235000D03*
%TD*%
D15*
%TO.P,J6,1,Pin_1*%
%TO.N,CLK*%
X100965000Y-53340000D03*
D16*
%TO.P,J6,2,Pin_2*%
%TO.N,SD0*%
X100965000Y-55880000D03*
%TO.P,J6,3,Pin_3*%
%TO.N,SD1*%
X100965000Y-58420000D03*
%TO.P,J6,4,Pin_4*%
%TO.N,G15*%
X100965000Y-60960000D03*
%TO.P,J6,5,Pin_5*%
%TO.N,G2*%
X100965000Y-63500000D03*
%TO.P,J6,6,Pin_6*%
%TO.N,G0*%
X100965000Y-66040000D03*
%TO.P,J6,7,Pin_7*%
%TO.N,G4*%
X100965000Y-68580000D03*
%TO.P,J6,8,Pin_8*%
%TO.N,G16*%
X100965000Y-71120000D03*
%TO.P,J6,9,Pin_9*%
%TO.N,G17*%
X100965000Y-73660000D03*
%TO.P,J6,10,Pin_10*%
%TO.N,G5*%
X100965000Y-76200000D03*
%TO.P,J6,11,Pin_11*%
%TO.N,G18*%
X100965000Y-78740000D03*
%TO.P,J6,12,Pin_12*%
%TO.N,G19*%
X100965000Y-81280000D03*
%TO.P,J6,13,Pin_13*%
%TO.N,GND*%
X100965000Y-83820000D03*
%TO.P,J6,14,Pin_14*%
%TO.N,G21*%
X100965000Y-86360000D03*
%TO.P,J6,15,Pin_15*%
%TO.N,RXD1*%
X100965000Y-88900000D03*
%TO.P,J6,16,Pin_16*%
%TO.N,TXD1*%
X100965000Y-91440000D03*
%TO.P,J6,17,Pin_17*%
%TO.N,G22*%
X100965000Y-93980000D03*
%TO.P,J6,18,Pin_18*%
%TO.N,G23*%
X100965000Y-96520000D03*
%TO.P,J6,19,Pin_19*%
%TO.N,GND*%
X100965000Y-99060000D03*
%TD*%
D17*
%TO.P,J1,1*%
%TO.N,G22*%
X120645000Y-109220000D03*
D18*
%TO.P,J1,2*%
%TO.N,G21*%
X119375000Y-106680000D03*
%TO.P,J1,3*%
%TO.N,V-M*%
X118105000Y-109220000D03*
%TO.P,J1,4*%
%TO.N,GND*%
X116835000Y-106680000D03*
%TO.P,J1,5*%
%TO.N,TXD*%
X115565000Y-109220000D03*
%TO.P,J1,6*%
%TO.N,RXD*%
X114295000Y-106680000D03*
%TD*%
D14*
%TO.P,H1,1*%
%TO.N,N/C*%
X97790000Y-46355000D03*
%TD*%
D17*
%TO.P,J4,1*%
%TO.N,Net-(J5-Pin_1)*%
X148585000Y-109210000D03*
D18*
%TO.P,J4,2*%
%TO.N,Net-(J5-Pin_2)*%
X147315000Y-106670000D03*
%TO.P,J4,3*%
%TO.N,Net-(J5-Pin_3)*%
X146045000Y-109210000D03*
%TO.P,J4,4*%
%TO.N,Net-(J5-Pin_4)*%
X144775000Y-106670000D03*
%TO.P,J4,5*%
%TO.N,Net-(J5-Pin_5)*%
X143505000Y-109210000D03*
%TO.P,J4,6*%
%TO.N,Net-(J5-Pin_6)*%
X142235000Y-106670000D03*
%TD*%
D12*
%TO.P,J3,1,Pin_1*%
%TO.N,V-M*%
X145515000Y-76205000D03*
D13*
%TO.P,J3,2,Pin_2*%
%TO.N,Net-(J2-Pin_1)*%
X145515000Y-79705000D03*
%TD*%
D19*
%TO.P,U1,J4_1,GND_J4_1*%
%TO.N,GND*%
X104475000Y-99060000D03*
D20*
%TO.P,U1,J4_2,G23*%
%TO.N,G23*%
X104475000Y-96520000D03*
%TO.P,U1,J4_3,G22*%
%TO.N,G22*%
X104475000Y-93980000D03*
%TO.P,U1,J4_4,TXD*%
%TO.N,TXD1*%
X104475000Y-91440000D03*
%TO.P,U1,J4_5,RXD*%
%TO.N,RXD1*%
X104475000Y-88900000D03*
%TO.P,U1,J4_6,G21*%
%TO.N,G21*%
X104475000Y-86360000D03*
%TO.P,U1,J4_7,GND_J4_7*%
%TO.N,GND*%
X104475000Y-83820000D03*
%TO.P,U1,J4_8,G19*%
%TO.N,G19*%
X104475000Y-81280000D03*
%TO.P,U1,J4_9,G18*%
%TO.N,G18*%
X104475000Y-78740000D03*
%TO.P,U1,J4_10,G5*%
%TO.N,G5*%
X104475000Y-76200000D03*
%TO.P,U1,J4_11,G17*%
%TO.N,G17*%
X104475000Y-73660000D03*
%TO.P,U1,J4_12,G16*%
%TO.N,G16*%
X104475000Y-71120000D03*
%TO.P,U1,J4_13,G4*%
%TO.N,G4*%
X104475000Y-68580000D03*
%TO.P,U1,J4_14,G0*%
%TO.N,G0*%
X104475000Y-66040000D03*
%TO.P,U1,J4_15,G2*%
%TO.N,G2*%
X104475000Y-63500000D03*
%TO.P,U1,J4_16,G15*%
%TO.N,G15*%
X104475000Y-60960000D03*
%TO.P,U1,J4_17,SD1*%
%TO.N,SD1*%
X104475000Y-58420000D03*
%TO.P,U1,J4_18,SD0*%
%TO.N,SD0*%
X104475000Y-55880000D03*
%TO.P,U1,J4_19,CLK*%
%TO.N,CLK*%
X104475000Y-53340000D03*
D19*
%TO.P,U1,J5_1,5V*%
%TO.N,5v*%
X130475000Y-53340000D03*
D20*
%TO.P,U1,J5_2,CMD*%
%TO.N,CMD*%
X130475000Y-55880000D03*
%TO.P,U1,J5_3,SD3*%
%TO.N,SD3*%
X130475000Y-58420000D03*
%TO.P,U1,J5_4,SD2*%
%TO.N,SD2*%
X130475000Y-60960000D03*
%TO.P,U1,J5_5,G13*%
%TO.N,G13*%
X130475000Y-63500000D03*
%TO.P,U1,J5_6,GND_J5_6*%
%TO.N,GND*%
X130475000Y-66040000D03*
%TO.P,U1,J5_7,G12*%
%TO.N,G12*%
X130475000Y-68580000D03*
%TO.P,U1,J5_8,G14*%
%TO.N,G14*%
X130475000Y-71120000D03*
%TO.P,U1,J5_9,G27*%
%TO.N,G27*%
X130475000Y-73660000D03*
%TO.P,U1,J5_10,G26*%
%TO.N,G26*%
X130475000Y-76200000D03*
%TO.P,U1,J5_11,G25*%
%TO.N,G25*%
X130475000Y-78740000D03*
%TO.P,U1,J5_12,G33*%
%TO.N,G33*%
X130475000Y-81280000D03*
%TO.P,U1,J5_13,G32*%
%TO.N,G32*%
X130475000Y-83820000D03*
%TO.P,U1,J5_14,G35*%
%TO.N,G35*%
X130475000Y-86360000D03*
%TO.P,U1,J5_15,G34*%
%TO.N,G34*%
X130475000Y-88900000D03*
%TO.P,U1,J5_16,SN*%
%TO.N,SM*%
X130475000Y-91440000D03*
%TO.P,U1,J5_17,SP*%
%TO.N,SP*%
X130475000Y-93980000D03*
%TO.P,U1,J5_18,EN*%
%TO.N,EN*%
X130475000Y-96520000D03*
%TO.P,U1,J5_19,3V3*%
%TO.N,3v3*%
X130475000Y-99060000D03*
%TD*%
D14*
%TO.P,H4,1*%
%TO.N,N/C*%
X133350000Y-115570000D03*
%TD*%
D15*
%TO.P,J7,1,Pin_1*%
%TO.N,3v3*%
X133985000Y-99060000D03*
D16*
%TO.P,J7,2,Pin_2*%
%TO.N,EN*%
X133985000Y-96520000D03*
%TO.P,J7,3,Pin_3*%
%TO.N,SP*%
X133985000Y-93980000D03*
%TO.P,J7,4,Pin_4*%
%TO.N,SM*%
X133985000Y-91440000D03*
%TO.P,J7,5,Pin_5*%
%TO.N,G34*%
X133985000Y-88900000D03*
%TO.P,J7,6,Pin_6*%
%TO.N,G35*%
X133985000Y-86360000D03*
%TO.P,J7,7,Pin_7*%
%TO.N,G32*%
X133985000Y-83820000D03*
%TO.P,J7,8,Pin_8*%
%TO.N,G33*%
X133985000Y-81280000D03*
%TO.P,J7,9,Pin_9*%
%TO.N,G25*%
X133985000Y-78740000D03*
%TO.P,J7,10,Pin_10*%
%TO.N,G26*%
X133985000Y-76200000D03*
%TO.P,J7,11,Pin_11*%
%TO.N,G27*%
X133985000Y-73660000D03*
%TO.P,J7,12,Pin_12*%
%TO.N,G14*%
X133985000Y-71120000D03*
%TO.P,J7,13,Pin_13*%
%TO.N,G12*%
X133985000Y-68580000D03*
%TO.P,J7,14,Pin_14*%
%TO.N,GND*%
X133985000Y-66040000D03*
%TO.P,J7,15,Pin_15*%
%TO.N,G13*%
X133985000Y-63500000D03*
%TO.P,J7,16,Pin_16*%
%TO.N,SD2*%
X133985000Y-60960000D03*
%TO.P,J7,17,Pin_17*%
%TO.N,SD3*%
X133985000Y-58420000D03*
%TO.P,J7,18,Pin_18*%
%TO.N,CMD*%
X133985000Y-55880000D03*
%TO.P,J7,19,Pin_19*%
%TO.N,5v*%
X133985000Y-53340000D03*
%TD*%
D21*
%TO.P,D1,1,K*%
%TO.N,Net-(D1-K)*%
X145415000Y-60325000D03*
D22*
%TO.P,D1,2,A*%
%TO.N,V-M*%
X145415000Y-70485000D03*
%TD*%
D23*
%TO.P,SW2,1,A*%
%TO.N,unconnected-(SW2-A-Pad1)*%
X106680000Y-110490000D03*
D24*
%TO.P,SW2,2,B*%
%TO.N,TXD1*%
X104180000Y-110490000D03*
%TO.P,SW2,3,C*%
%TO.N,RXD*%
X101680000Y-110490000D03*
%TO.P,SW2,4,A*%
%TO.N,unconnected-(SW2-A-Pad4)*%
X106680000Y-107190000D03*
%TO.P,SW2,5,B*%
%TO.N,RXD1*%
X104180000Y-107190000D03*
%TO.P,SW2,6,C*%
%TO.N,TXD*%
X101680000Y-107190000D03*
%TD*%
D14*
%TO.P,H3,1*%
%TO.N,N/C*%
X97790000Y-115570000D03*
%TD*%
D25*
%TO.N,GND*%
X145415000Y-93035000D02*
X144470000Y-93035000D01*
X135255000Y-66040000D02*
X133985000Y-66040000D01*
X140335000Y-88900000D02*
X140335000Y-71120000D01*
X140335000Y-71120000D02*
X135255000Y-66040000D01*
X144470000Y-93035000D02*
X140335000Y-88900000D01*
D26*
%TO.N,G22*%
X121285000Y-108580000D02*
X121285000Y-106045000D01*
X121285000Y-106045000D02*
X109220000Y-93980000D01*
X109220000Y-93980000D02*
X104475000Y-93980000D01*
X120645000Y-109220000D02*
X121285000Y-108580000D01*
%TD*%
M02*
