%TF.GenerationSoftware,KiCad,Pcbnew,7.0.10*%
%TF.CreationDate,2024-04-02T13:30:31+02:00*%
%TF.ProjectId,carte pami,63617274-6520-4706-916d-692e6b696361,rev?*%
%TF.SameCoordinates,Original*%
%TF.FileFunction,Drillmap*%
%TF.FilePolarity,Positive*%
%FSLAX45Y45*%
G04 Gerber Fmt 4.5, Leading zero omitted, Abs format (unit mm)*
G04 Created by KiCad (PCBNEW 7.0.10) date 2024-04-02 13:30:31*
%MOMM*%
%LPD*%
G01*
G04 APERTURE LIST*
%ADD10C,0.100000*%
%ADD11C,0.200000*%
%ADD12C,0.110000*%
%ADD13C,0.160000*%
%ADD14C,0.320000*%
G04 APERTURE END LIST*
D10*
X9398000Y-4286250D02*
X15430500Y-4286250D01*
X15430500Y-11969750D01*
X9398000Y-11969750D01*
X9398000Y-4286250D01*
D11*
D10*
X10123000Y-10674000D02*
X10213000Y-10764000D01*
X10213000Y-10674000D02*
X10123000Y-10764000D01*
X10123000Y-11004000D02*
X10213000Y-11094000D01*
X10213000Y-11004000D02*
X10123000Y-11094000D01*
X10373000Y-10674000D02*
X10463000Y-10764000D01*
X10463000Y-10674000D02*
X10373000Y-10764000D01*
X10373000Y-11004000D02*
X10463000Y-11094000D01*
X10463000Y-11004000D02*
X10373000Y-11094000D01*
X10402500Y-5289000D02*
X10492500Y-5379000D01*
X10492500Y-5289000D02*
X10402500Y-5379000D01*
X10402500Y-5543000D02*
X10492500Y-5633000D01*
X10492500Y-5543000D02*
X10402500Y-5633000D01*
X10402500Y-5797000D02*
X10492500Y-5887000D01*
X10492500Y-5797000D02*
X10402500Y-5887000D01*
X10402500Y-6051000D02*
X10492500Y-6141000D01*
X10492500Y-6051000D02*
X10402500Y-6141000D01*
X10402500Y-6305000D02*
X10492500Y-6395000D01*
X10492500Y-6305000D02*
X10402500Y-6395000D01*
X10402500Y-6559000D02*
X10492500Y-6649000D01*
X10492500Y-6559000D02*
X10402500Y-6649000D01*
X10402500Y-6813000D02*
X10492500Y-6903000D01*
X10492500Y-6813000D02*
X10402500Y-6903000D01*
X10402500Y-7067000D02*
X10492500Y-7157000D01*
X10492500Y-7067000D02*
X10402500Y-7157000D01*
X10402500Y-7321000D02*
X10492500Y-7411000D01*
X10492500Y-7321000D02*
X10402500Y-7411000D01*
X10402500Y-7575000D02*
X10492500Y-7665000D01*
X10492500Y-7575000D02*
X10402500Y-7665000D01*
X10402500Y-7829000D02*
X10492500Y-7919000D01*
X10492500Y-7829000D02*
X10402500Y-7919000D01*
X10402500Y-8083000D02*
X10492500Y-8173000D01*
X10492500Y-8083000D02*
X10402500Y-8173000D01*
X10402500Y-8337000D02*
X10492500Y-8427000D01*
X10492500Y-8337000D02*
X10402500Y-8427000D01*
X10402500Y-8591000D02*
X10492500Y-8681000D01*
X10492500Y-8591000D02*
X10402500Y-8681000D01*
X10402500Y-8845000D02*
X10492500Y-8935000D01*
X10492500Y-8845000D02*
X10402500Y-8935000D01*
X10402500Y-9099000D02*
X10492500Y-9189000D01*
X10492500Y-9099000D02*
X10402500Y-9189000D01*
X10402500Y-9353000D02*
X10492500Y-9443000D01*
X10492500Y-9353000D02*
X10402500Y-9443000D01*
X10402500Y-9607000D02*
X10492500Y-9697000D01*
X10492500Y-9607000D02*
X10402500Y-9697000D01*
X10402500Y-9861000D02*
X10492500Y-9951000D01*
X10492500Y-9861000D02*
X10402500Y-9951000D01*
X10623000Y-10674000D02*
X10713000Y-10764000D01*
X10713000Y-10674000D02*
X10623000Y-10764000D01*
X10623000Y-11004000D02*
X10713000Y-11094000D01*
X10713000Y-11004000D02*
X10623000Y-11094000D01*
X11384500Y-10623000D02*
X11474500Y-10713000D01*
X11474500Y-10623000D02*
X11384500Y-10713000D01*
X11511500Y-10877000D02*
X11601500Y-10967000D01*
X11601500Y-10877000D02*
X11511500Y-10967000D01*
X11638500Y-10623000D02*
X11728500Y-10713000D01*
X11728500Y-10623000D02*
X11638500Y-10713000D01*
X11765500Y-10877000D02*
X11855500Y-10967000D01*
X11855500Y-10877000D02*
X11765500Y-10967000D01*
X11892500Y-10623000D02*
X11982500Y-10713000D01*
X11982500Y-10623000D02*
X11892500Y-10713000D01*
X12019500Y-10877000D02*
X12109500Y-10967000D01*
X12109500Y-10877000D02*
X12019500Y-10967000D01*
X13002500Y-5289000D02*
X13092500Y-5379000D01*
X13092500Y-5289000D02*
X13002500Y-5379000D01*
X13002500Y-5543000D02*
X13092500Y-5633000D01*
X13092500Y-5543000D02*
X13002500Y-5633000D01*
X13002500Y-5797000D02*
X13092500Y-5887000D01*
X13092500Y-5797000D02*
X13002500Y-5887000D01*
X13002500Y-6051000D02*
X13092500Y-6141000D01*
X13092500Y-6051000D02*
X13002500Y-6141000D01*
X13002500Y-6305000D02*
X13092500Y-6395000D01*
X13092500Y-6305000D02*
X13002500Y-6395000D01*
X13002500Y-6559000D02*
X13092500Y-6649000D01*
X13092500Y-6559000D02*
X13002500Y-6649000D01*
X13002500Y-6813000D02*
X13092500Y-6903000D01*
X13092500Y-6813000D02*
X13002500Y-6903000D01*
X13002500Y-7067000D02*
X13092500Y-7157000D01*
X13092500Y-7067000D02*
X13002500Y-7157000D01*
X13002500Y-7321000D02*
X13092500Y-7411000D01*
X13092500Y-7321000D02*
X13002500Y-7411000D01*
X13002500Y-7575000D02*
X13092500Y-7665000D01*
X13092500Y-7575000D02*
X13002500Y-7665000D01*
X13002500Y-7829000D02*
X13092500Y-7919000D01*
X13092500Y-7829000D02*
X13002500Y-7919000D01*
X13002500Y-8083000D02*
X13092500Y-8173000D01*
X13092500Y-8083000D02*
X13002500Y-8173000D01*
X13002500Y-8337000D02*
X13092500Y-8427000D01*
X13092500Y-8337000D02*
X13002500Y-8427000D01*
X13002500Y-8591000D02*
X13092500Y-8681000D01*
X13092500Y-8591000D02*
X13002500Y-8681000D01*
X13002500Y-8845000D02*
X13092500Y-8935000D01*
X13092500Y-8845000D02*
X13002500Y-8935000D01*
X13002500Y-9099000D02*
X13092500Y-9189000D01*
X13092500Y-9099000D02*
X13002500Y-9189000D01*
X13002500Y-9353000D02*
X13092500Y-9443000D01*
X13092500Y-9353000D02*
X13002500Y-9443000D01*
X13002500Y-9607000D02*
X13092500Y-9697000D01*
X13092500Y-9607000D02*
X13002500Y-9697000D01*
X13002500Y-9861000D02*
X13092500Y-9951000D01*
X13092500Y-9861000D02*
X13002500Y-9951000D01*
X14178500Y-10622000D02*
X14268500Y-10712000D01*
X14268500Y-10622000D02*
X14178500Y-10712000D01*
X14305500Y-10876000D02*
X14395500Y-10966000D01*
X14395500Y-10876000D02*
X14305500Y-10966000D01*
X14432500Y-10622000D02*
X14522500Y-10712000D01*
X14522500Y-10622000D02*
X14432500Y-10712000D01*
X14559500Y-10876000D02*
X14649500Y-10966000D01*
X14649500Y-10876000D02*
X14559500Y-10966000D01*
X14686500Y-10622000D02*
X14776500Y-10712000D01*
X14776500Y-10622000D02*
X14686500Y-10712000D01*
X14813500Y-10876000D02*
X14903500Y-10966000D01*
X14903500Y-10876000D02*
X14813500Y-10966000D01*
X10146500Y-5334000D02*
G75*
G03*
X10046500Y-5334000I-50000J0D01*
G01*
X10046500Y-5334000D02*
G75*
G03*
X10146500Y-5334000I50000J0D01*
G01*
X10146500Y-5588000D02*
G75*
G03*
X10046500Y-5588000I-50000J0D01*
G01*
X10046500Y-5588000D02*
G75*
G03*
X10146500Y-5588000I50000J0D01*
G01*
X10146500Y-5842000D02*
G75*
G03*
X10046500Y-5842000I-50000J0D01*
G01*
X10046500Y-5842000D02*
G75*
G03*
X10146500Y-5842000I50000J0D01*
G01*
X10146500Y-6096000D02*
G75*
G03*
X10046500Y-6096000I-50000J0D01*
G01*
X10046500Y-6096000D02*
G75*
G03*
X10146500Y-6096000I50000J0D01*
G01*
X10146500Y-6350000D02*
G75*
G03*
X10046500Y-6350000I-50000J0D01*
G01*
X10046500Y-6350000D02*
G75*
G03*
X10146500Y-6350000I50000J0D01*
G01*
X10146500Y-6604000D02*
G75*
G03*
X10046500Y-6604000I-50000J0D01*
G01*
X10046500Y-6604000D02*
G75*
G03*
X10146500Y-6604000I50000J0D01*
G01*
X10146500Y-6858000D02*
G75*
G03*
X10046500Y-6858000I-50000J0D01*
G01*
X10046500Y-6858000D02*
G75*
G03*
X10146500Y-6858000I50000J0D01*
G01*
X10146500Y-7112000D02*
G75*
G03*
X10046500Y-7112000I-50000J0D01*
G01*
X10046500Y-7112000D02*
G75*
G03*
X10146500Y-7112000I50000J0D01*
G01*
X10146500Y-7366000D02*
G75*
G03*
X10046500Y-7366000I-50000J0D01*
G01*
X10046500Y-7366000D02*
G75*
G03*
X10146500Y-7366000I50000J0D01*
G01*
X10146500Y-7620000D02*
G75*
G03*
X10046500Y-7620000I-50000J0D01*
G01*
X10046500Y-7620000D02*
G75*
G03*
X10146500Y-7620000I50000J0D01*
G01*
X10146500Y-7874000D02*
G75*
G03*
X10046500Y-7874000I-50000J0D01*
G01*
X10046500Y-7874000D02*
G75*
G03*
X10146500Y-7874000I50000J0D01*
G01*
X10146500Y-8128000D02*
G75*
G03*
X10046500Y-8128000I-50000J0D01*
G01*
X10046500Y-8128000D02*
G75*
G03*
X10146500Y-8128000I50000J0D01*
G01*
X10146500Y-8382000D02*
G75*
G03*
X10046500Y-8382000I-50000J0D01*
G01*
X10046500Y-8382000D02*
G75*
G03*
X10146500Y-8382000I50000J0D01*
G01*
X10146500Y-8636000D02*
G75*
G03*
X10046500Y-8636000I-50000J0D01*
G01*
X10046500Y-8636000D02*
G75*
G03*
X10146500Y-8636000I50000J0D01*
G01*
X10146500Y-8890000D02*
G75*
G03*
X10046500Y-8890000I-50000J0D01*
G01*
X10046500Y-8890000D02*
G75*
G03*
X10146500Y-8890000I50000J0D01*
G01*
X10146500Y-9144000D02*
G75*
G03*
X10046500Y-9144000I-50000J0D01*
G01*
X10046500Y-9144000D02*
G75*
G03*
X10146500Y-9144000I50000J0D01*
G01*
X10146500Y-9398000D02*
G75*
G03*
X10046500Y-9398000I-50000J0D01*
G01*
X10046500Y-9398000D02*
G75*
G03*
X10146500Y-9398000I50000J0D01*
G01*
X10146500Y-9652000D02*
G75*
G03*
X10046500Y-9652000I-50000J0D01*
G01*
X10046500Y-9652000D02*
G75*
G03*
X10146500Y-9652000I50000J0D01*
G01*
X10146500Y-9906000D02*
G75*
G03*
X10046500Y-9906000I-50000J0D01*
G01*
X10046500Y-9906000D02*
G75*
G03*
X10146500Y-9906000I50000J0D01*
G01*
X13448500Y-5334000D02*
G75*
G03*
X13348500Y-5334000I-50000J0D01*
G01*
X13348500Y-5334000D02*
G75*
G03*
X13448500Y-5334000I50000J0D01*
G01*
X13448500Y-5588000D02*
G75*
G03*
X13348500Y-5588000I-50000J0D01*
G01*
X13348500Y-5588000D02*
G75*
G03*
X13448500Y-5588000I50000J0D01*
G01*
X13448500Y-5842000D02*
G75*
G03*
X13348500Y-5842000I-50000J0D01*
G01*
X13348500Y-5842000D02*
G75*
G03*
X13448500Y-5842000I50000J0D01*
G01*
X13448500Y-6096000D02*
G75*
G03*
X13348500Y-6096000I-50000J0D01*
G01*
X13348500Y-6096000D02*
G75*
G03*
X13448500Y-6096000I50000J0D01*
G01*
X13448500Y-6350000D02*
G75*
G03*
X13348500Y-6350000I-50000J0D01*
G01*
X13348500Y-6350000D02*
G75*
G03*
X13448500Y-6350000I50000J0D01*
G01*
X13448500Y-6604000D02*
G75*
G03*
X13348500Y-6604000I-50000J0D01*
G01*
X13348500Y-6604000D02*
G75*
G03*
X13448500Y-6604000I50000J0D01*
G01*
X13448500Y-6858000D02*
G75*
G03*
X13348500Y-6858000I-50000J0D01*
G01*
X13348500Y-6858000D02*
G75*
G03*
X13448500Y-6858000I50000J0D01*
G01*
X13448500Y-7112000D02*
G75*
G03*
X13348500Y-7112000I-50000J0D01*
G01*
X13348500Y-7112000D02*
G75*
G03*
X13448500Y-7112000I50000J0D01*
G01*
X13448500Y-7366000D02*
G75*
G03*
X13348500Y-7366000I-50000J0D01*
G01*
X13348500Y-7366000D02*
G75*
G03*
X13448500Y-7366000I50000J0D01*
G01*
X13448500Y-7620000D02*
G75*
G03*
X13348500Y-7620000I-50000J0D01*
G01*
X13348500Y-7620000D02*
G75*
G03*
X13448500Y-7620000I50000J0D01*
G01*
X13448500Y-7874000D02*
G75*
G03*
X13348500Y-7874000I-50000J0D01*
G01*
X13348500Y-7874000D02*
G75*
G03*
X13448500Y-7874000I50000J0D01*
G01*
X13448500Y-8128000D02*
G75*
G03*
X13348500Y-8128000I-50000J0D01*
G01*
X13348500Y-8128000D02*
G75*
G03*
X13448500Y-8128000I50000J0D01*
G01*
X13448500Y-8382000D02*
G75*
G03*
X13348500Y-8382000I-50000J0D01*
G01*
X13348500Y-8382000D02*
G75*
G03*
X13448500Y-8382000I50000J0D01*
G01*
X13448500Y-8636000D02*
G75*
G03*
X13348500Y-8636000I-50000J0D01*
G01*
X13348500Y-8636000D02*
G75*
G03*
X13448500Y-8636000I50000J0D01*
G01*
X13448500Y-8890000D02*
G75*
G03*
X13348500Y-8890000I-50000J0D01*
G01*
X13348500Y-8890000D02*
G75*
G03*
X13448500Y-8890000I50000J0D01*
G01*
X13448500Y-9144000D02*
G75*
G03*
X13348500Y-9144000I-50000J0D01*
G01*
X13348500Y-9144000D02*
G75*
G03*
X13448500Y-9144000I50000J0D01*
G01*
X13448500Y-9398000D02*
G75*
G03*
X13348500Y-9398000I-50000J0D01*
G01*
X13348500Y-9398000D02*
G75*
G03*
X13448500Y-9398000I50000J0D01*
G01*
X13448500Y-9652000D02*
G75*
G03*
X13348500Y-9652000I-50000J0D01*
G01*
X13348500Y-9652000D02*
G75*
G03*
X13448500Y-9652000I50000J0D01*
G01*
X13448500Y-9906000D02*
G75*
G03*
X13348500Y-9906000I-50000J0D01*
G01*
X13348500Y-9906000D02*
G75*
G03*
X13448500Y-9906000I50000J0D01*
G01*
X13956500Y-10223500D02*
G75*
G03*
X13856500Y-10223500I-50000J0D01*
G01*
X13856500Y-10223500D02*
G75*
G03*
X13956500Y-10223500I50000J0D01*
G01*
X14210500Y-10223500D02*
G75*
G03*
X14110500Y-10223500I-50000J0D01*
G01*
X14110500Y-10223500D02*
G75*
G03*
X14210500Y-10223500I50000J0D01*
G01*
X14464500Y-10223500D02*
G75*
G03*
X14364500Y-10223500I-50000J0D01*
G01*
X14364500Y-10223500D02*
G75*
G03*
X14464500Y-10223500I50000J0D01*
G01*
X14550000Y-5300000D02*
G75*
G03*
X14450000Y-5300000I-50000J0D01*
G01*
X14450000Y-5300000D02*
G75*
G03*
X14550000Y-5300000I50000J0D01*
G01*
X14550000Y-6975000D02*
G75*
G03*
X14450000Y-6975000I-50000J0D01*
G01*
X14450000Y-6975000D02*
G75*
G03*
X14550000Y-6975000I50000J0D01*
G01*
X14718500Y-10223500D02*
G75*
G03*
X14618500Y-10223500I-50000J0D01*
G01*
X14618500Y-10223500D02*
G75*
G03*
X14718500Y-10223500I50000J0D01*
G01*
X14972500Y-10223500D02*
G75*
G03*
X14872500Y-10223500I-50000J0D01*
G01*
X14872500Y-10223500D02*
G75*
G03*
X14972500Y-10223500I50000J0D01*
G01*
X15050000Y-5300000D02*
G75*
G03*
X14950000Y-5300000I-50000J0D01*
G01*
X14950000Y-5300000D02*
G75*
G03*
X15050000Y-5300000I50000J0D01*
G01*
X15050000Y-6975000D02*
G75*
G03*
X14950000Y-6975000I-50000J0D01*
G01*
X14950000Y-6975000D02*
G75*
G03*
X15050000Y-6975000I50000J0D01*
G01*
X15226500Y-10223500D02*
G75*
G03*
X15126500Y-10223500I-50000J0D01*
G01*
X15126500Y-10223500D02*
G75*
G03*
X15226500Y-10223500I50000J0D01*
G01*
D12*
X14544500Y-5816000D02*
X14544500Y-5926000D01*
X14489500Y-5871000D02*
X14599500Y-5871000D01*
X14544500Y-6070000D02*
X14544500Y-6180000D01*
X14489500Y-6125000D02*
X14599500Y-6125000D01*
X14544500Y-6324000D02*
X14544500Y-6434000D01*
X14489500Y-6379000D02*
X14599500Y-6379000D01*
D13*
X14598069Y-9010069D02*
X14598069Y-8896931D01*
X14484931Y-8896931D01*
X14484931Y-9010069D01*
X14598069Y-9010069D01*
X14598069Y-9360069D02*
X14598069Y-9246931D01*
X14484931Y-9246931D01*
X14484931Y-9360069D01*
X14598069Y-9360069D01*
X14608069Y-7677069D02*
X14608069Y-7563931D01*
X14494931Y-7563931D01*
X14494931Y-7677069D01*
X14608069Y-7677069D01*
X14608069Y-8027069D02*
X14608069Y-7913931D01*
X14494931Y-7913931D01*
X14494931Y-8027069D01*
X14608069Y-8027069D01*
D14*
X9779000Y-4795500D02*
X9939000Y-4635500D01*
X9779000Y-4475500D01*
X9619000Y-4635500D01*
X9779000Y-4795500D01*
X9779000Y-11717000D02*
X9939000Y-11557000D01*
X9779000Y-11397000D01*
X9619000Y-11557000D01*
X9779000Y-11717000D01*
X13335000Y-11717000D02*
X13495000Y-11557000D01*
X13335000Y-11397000D01*
X13175000Y-11557000D01*
X13335000Y-11717000D01*
X15049500Y-4795500D02*
X15209500Y-4635500D01*
X15049500Y-4475500D01*
X14889500Y-4635500D01*
X15049500Y-4795500D01*
D11*
X9653777Y-12286234D02*
X9653777Y-12086234D01*
X9653777Y-12086234D02*
X9701396Y-12086234D01*
X9701396Y-12086234D02*
X9729967Y-12095758D01*
X9729967Y-12095758D02*
X9749015Y-12114805D01*
X9749015Y-12114805D02*
X9758539Y-12133853D01*
X9758539Y-12133853D02*
X9768063Y-12171948D01*
X9768063Y-12171948D02*
X9768063Y-12200519D01*
X9768063Y-12200519D02*
X9758539Y-12238615D01*
X9758539Y-12238615D02*
X9749015Y-12257662D01*
X9749015Y-12257662D02*
X9729967Y-12276710D01*
X9729967Y-12276710D02*
X9701396Y-12286234D01*
X9701396Y-12286234D02*
X9653777Y-12286234D01*
X9853777Y-12286234D02*
X9853777Y-12152900D01*
X9853777Y-12190996D02*
X9863301Y-12171948D01*
X9863301Y-12171948D02*
X9872824Y-12162424D01*
X9872824Y-12162424D02*
X9891872Y-12152900D01*
X9891872Y-12152900D02*
X9910920Y-12152900D01*
X9977586Y-12286234D02*
X9977586Y-12152900D01*
X9977586Y-12086234D02*
X9968063Y-12095758D01*
X9968063Y-12095758D02*
X9977586Y-12105281D01*
X9977586Y-12105281D02*
X9987110Y-12095758D01*
X9987110Y-12095758D02*
X9977586Y-12086234D01*
X9977586Y-12086234D02*
X9977586Y-12105281D01*
X10101396Y-12286234D02*
X10082348Y-12276710D01*
X10082348Y-12276710D02*
X10072824Y-12257662D01*
X10072824Y-12257662D02*
X10072824Y-12086234D01*
X10206158Y-12286234D02*
X10187110Y-12276710D01*
X10187110Y-12276710D02*
X10177586Y-12257662D01*
X10177586Y-12257662D02*
X10177586Y-12086234D01*
X10434729Y-12286234D02*
X10434729Y-12086234D01*
X10434729Y-12086234D02*
X10501396Y-12229091D01*
X10501396Y-12229091D02*
X10568063Y-12086234D01*
X10568063Y-12086234D02*
X10568063Y-12286234D01*
X10749015Y-12286234D02*
X10749015Y-12181472D01*
X10749015Y-12181472D02*
X10739491Y-12162424D01*
X10739491Y-12162424D02*
X10720444Y-12152900D01*
X10720444Y-12152900D02*
X10682348Y-12152900D01*
X10682348Y-12152900D02*
X10663301Y-12162424D01*
X10749015Y-12276710D02*
X10729967Y-12286234D01*
X10729967Y-12286234D02*
X10682348Y-12286234D01*
X10682348Y-12286234D02*
X10663301Y-12276710D01*
X10663301Y-12276710D02*
X10653777Y-12257662D01*
X10653777Y-12257662D02*
X10653777Y-12238615D01*
X10653777Y-12238615D02*
X10663301Y-12219567D01*
X10663301Y-12219567D02*
X10682348Y-12210043D01*
X10682348Y-12210043D02*
X10729967Y-12210043D01*
X10729967Y-12210043D02*
X10749015Y-12200519D01*
X10844253Y-12152900D02*
X10844253Y-12352900D01*
X10844253Y-12162424D02*
X10863301Y-12152900D01*
X10863301Y-12152900D02*
X10901396Y-12152900D01*
X10901396Y-12152900D02*
X10920444Y-12162424D01*
X10920444Y-12162424D02*
X10929967Y-12171948D01*
X10929967Y-12171948D02*
X10939491Y-12190996D01*
X10939491Y-12190996D02*
X10939491Y-12248138D01*
X10939491Y-12248138D02*
X10929967Y-12267186D01*
X10929967Y-12267186D02*
X10920444Y-12276710D01*
X10920444Y-12276710D02*
X10901396Y-12286234D01*
X10901396Y-12286234D02*
X10863301Y-12286234D01*
X10863301Y-12286234D02*
X10844253Y-12276710D01*
X11025205Y-12267186D02*
X11034729Y-12276710D01*
X11034729Y-12276710D02*
X11025205Y-12286234D01*
X11025205Y-12286234D02*
X11015682Y-12276710D01*
X11015682Y-12276710D02*
X11025205Y-12267186D01*
X11025205Y-12267186D02*
X11025205Y-12286234D01*
X11025205Y-12162424D02*
X11034729Y-12171948D01*
X11034729Y-12171948D02*
X11025205Y-12181472D01*
X11025205Y-12181472D02*
X11015682Y-12171948D01*
X11015682Y-12171948D02*
X11025205Y-12162424D01*
X11025205Y-12162424D02*
X11025205Y-12181472D01*
D10*
X9303000Y-12569750D02*
X9393000Y-12659750D01*
X9393000Y-12569750D02*
X9303000Y-12659750D01*
D11*
X9691872Y-12506234D02*
X9710920Y-12506234D01*
X9710920Y-12506234D02*
X9729967Y-12515758D01*
X9729967Y-12515758D02*
X9739491Y-12525281D01*
X9739491Y-12525281D02*
X9749015Y-12544329D01*
X9749015Y-12544329D02*
X9758539Y-12582424D01*
X9758539Y-12582424D02*
X9758539Y-12630043D01*
X9758539Y-12630043D02*
X9749015Y-12668138D01*
X9749015Y-12668138D02*
X9739491Y-12687186D01*
X9739491Y-12687186D02*
X9729967Y-12696710D01*
X9729967Y-12696710D02*
X9710920Y-12706234D01*
X9710920Y-12706234D02*
X9691872Y-12706234D01*
X9691872Y-12706234D02*
X9672824Y-12696710D01*
X9672824Y-12696710D02*
X9663301Y-12687186D01*
X9663301Y-12687186D02*
X9653777Y-12668138D01*
X9653777Y-12668138D02*
X9644253Y-12630043D01*
X9644253Y-12630043D02*
X9644253Y-12582424D01*
X9644253Y-12582424D02*
X9653777Y-12544329D01*
X9653777Y-12544329D02*
X9663301Y-12525281D01*
X9663301Y-12525281D02*
X9672824Y-12515758D01*
X9672824Y-12515758D02*
X9691872Y-12506234D01*
X9844253Y-12687186D02*
X9853777Y-12696710D01*
X9853777Y-12696710D02*
X9844253Y-12706234D01*
X9844253Y-12706234D02*
X9834729Y-12696710D01*
X9834729Y-12696710D02*
X9844253Y-12687186D01*
X9844253Y-12687186D02*
X9844253Y-12706234D01*
X9949015Y-12706234D02*
X9987110Y-12706234D01*
X9987110Y-12706234D02*
X10006158Y-12696710D01*
X10006158Y-12696710D02*
X10015682Y-12687186D01*
X10015682Y-12687186D02*
X10034729Y-12658615D01*
X10034729Y-12658615D02*
X10044253Y-12620519D01*
X10044253Y-12620519D02*
X10044253Y-12544329D01*
X10044253Y-12544329D02*
X10034729Y-12525281D01*
X10034729Y-12525281D02*
X10025205Y-12515758D01*
X10025205Y-12515758D02*
X10006158Y-12506234D01*
X10006158Y-12506234D02*
X9968063Y-12506234D01*
X9968063Y-12506234D02*
X9949015Y-12515758D01*
X9949015Y-12515758D02*
X9939491Y-12525281D01*
X9939491Y-12525281D02*
X9929967Y-12544329D01*
X9929967Y-12544329D02*
X9929967Y-12591948D01*
X9929967Y-12591948D02*
X9939491Y-12610996D01*
X9939491Y-12610996D02*
X9949015Y-12620519D01*
X9949015Y-12620519D02*
X9968063Y-12630043D01*
X9968063Y-12630043D02*
X10006158Y-12630043D01*
X10006158Y-12630043D02*
X10025205Y-12620519D01*
X10025205Y-12620519D02*
X10034729Y-12610996D01*
X10034729Y-12610996D02*
X10044253Y-12591948D01*
X10168063Y-12506234D02*
X10187110Y-12506234D01*
X10187110Y-12506234D02*
X10206158Y-12515758D01*
X10206158Y-12515758D02*
X10215682Y-12525281D01*
X10215682Y-12525281D02*
X10225205Y-12544329D01*
X10225205Y-12544329D02*
X10234729Y-12582424D01*
X10234729Y-12582424D02*
X10234729Y-12630043D01*
X10234729Y-12630043D02*
X10225205Y-12668138D01*
X10225205Y-12668138D02*
X10215682Y-12687186D01*
X10215682Y-12687186D02*
X10206158Y-12696710D01*
X10206158Y-12696710D02*
X10187110Y-12706234D01*
X10187110Y-12706234D02*
X10168063Y-12706234D01*
X10168063Y-12706234D02*
X10149015Y-12696710D01*
X10149015Y-12696710D02*
X10139491Y-12687186D01*
X10139491Y-12687186D02*
X10129967Y-12668138D01*
X10129967Y-12668138D02*
X10120444Y-12630043D01*
X10120444Y-12630043D02*
X10120444Y-12582424D01*
X10120444Y-12582424D02*
X10129967Y-12544329D01*
X10129967Y-12544329D02*
X10139491Y-12525281D01*
X10139491Y-12525281D02*
X10149015Y-12515758D01*
X10149015Y-12515758D02*
X10168063Y-12506234D01*
X10358539Y-12506234D02*
X10377586Y-12506234D01*
X10377586Y-12506234D02*
X10396634Y-12515758D01*
X10396634Y-12515758D02*
X10406158Y-12525281D01*
X10406158Y-12525281D02*
X10415682Y-12544329D01*
X10415682Y-12544329D02*
X10425205Y-12582424D01*
X10425205Y-12582424D02*
X10425205Y-12630043D01*
X10425205Y-12630043D02*
X10415682Y-12668138D01*
X10415682Y-12668138D02*
X10406158Y-12687186D01*
X10406158Y-12687186D02*
X10396634Y-12696710D01*
X10396634Y-12696710D02*
X10377586Y-12706234D01*
X10377586Y-12706234D02*
X10358539Y-12706234D01*
X10358539Y-12706234D02*
X10339491Y-12696710D01*
X10339491Y-12696710D02*
X10329967Y-12687186D01*
X10329967Y-12687186D02*
X10320444Y-12668138D01*
X10320444Y-12668138D02*
X10310920Y-12630043D01*
X10310920Y-12630043D02*
X10310920Y-12582424D01*
X10310920Y-12582424D02*
X10320444Y-12544329D01*
X10320444Y-12544329D02*
X10329967Y-12525281D01*
X10329967Y-12525281D02*
X10339491Y-12515758D01*
X10339491Y-12515758D02*
X10358539Y-12506234D01*
X10510920Y-12706234D02*
X10510920Y-12572900D01*
X10510920Y-12591948D02*
X10520444Y-12582424D01*
X10520444Y-12582424D02*
X10539491Y-12572900D01*
X10539491Y-12572900D02*
X10568063Y-12572900D01*
X10568063Y-12572900D02*
X10587110Y-12582424D01*
X10587110Y-12582424D02*
X10596634Y-12601472D01*
X10596634Y-12601472D02*
X10596634Y-12706234D01*
X10596634Y-12601472D02*
X10606158Y-12582424D01*
X10606158Y-12582424D02*
X10625205Y-12572900D01*
X10625205Y-12572900D02*
X10653777Y-12572900D01*
X10653777Y-12572900D02*
X10672825Y-12582424D01*
X10672825Y-12582424D02*
X10682348Y-12601472D01*
X10682348Y-12601472D02*
X10682348Y-12706234D01*
X10777586Y-12706234D02*
X10777586Y-12572900D01*
X10777586Y-12591948D02*
X10787110Y-12582424D01*
X10787110Y-12582424D02*
X10806158Y-12572900D01*
X10806158Y-12572900D02*
X10834729Y-12572900D01*
X10834729Y-12572900D02*
X10853777Y-12582424D01*
X10853777Y-12582424D02*
X10863301Y-12601472D01*
X10863301Y-12601472D02*
X10863301Y-12706234D01*
X10863301Y-12601472D02*
X10872825Y-12582424D01*
X10872825Y-12582424D02*
X10891872Y-12572900D01*
X10891872Y-12572900D02*
X10920444Y-12572900D01*
X10920444Y-12572900D02*
X10939491Y-12582424D01*
X10939491Y-12582424D02*
X10949015Y-12601472D01*
X10949015Y-12601472D02*
X10949015Y-12706234D01*
X11339491Y-12496710D02*
X11168063Y-12753853D01*
X11596634Y-12506234D02*
X11615682Y-12506234D01*
X11615682Y-12506234D02*
X11634729Y-12515758D01*
X11634729Y-12515758D02*
X11644253Y-12525281D01*
X11644253Y-12525281D02*
X11653777Y-12544329D01*
X11653777Y-12544329D02*
X11663301Y-12582424D01*
X11663301Y-12582424D02*
X11663301Y-12630043D01*
X11663301Y-12630043D02*
X11653777Y-12668138D01*
X11653777Y-12668138D02*
X11644253Y-12687186D01*
X11644253Y-12687186D02*
X11634729Y-12696710D01*
X11634729Y-12696710D02*
X11615682Y-12706234D01*
X11615682Y-12706234D02*
X11596634Y-12706234D01*
X11596634Y-12706234D02*
X11577586Y-12696710D01*
X11577586Y-12696710D02*
X11568063Y-12687186D01*
X11568063Y-12687186D02*
X11558539Y-12668138D01*
X11558539Y-12668138D02*
X11549015Y-12630043D01*
X11549015Y-12630043D02*
X11549015Y-12582424D01*
X11549015Y-12582424D02*
X11558539Y-12544329D01*
X11558539Y-12544329D02*
X11568063Y-12525281D01*
X11568063Y-12525281D02*
X11577586Y-12515758D01*
X11577586Y-12515758D02*
X11596634Y-12506234D01*
X11749015Y-12687186D02*
X11758539Y-12696710D01*
X11758539Y-12696710D02*
X11749015Y-12706234D01*
X11749015Y-12706234D02*
X11739491Y-12696710D01*
X11739491Y-12696710D02*
X11749015Y-12687186D01*
X11749015Y-12687186D02*
X11749015Y-12706234D01*
X11882348Y-12506234D02*
X11901396Y-12506234D01*
X11901396Y-12506234D02*
X11920444Y-12515758D01*
X11920444Y-12515758D02*
X11929967Y-12525281D01*
X11929967Y-12525281D02*
X11939491Y-12544329D01*
X11939491Y-12544329D02*
X11949015Y-12582424D01*
X11949015Y-12582424D02*
X11949015Y-12630043D01*
X11949015Y-12630043D02*
X11939491Y-12668138D01*
X11939491Y-12668138D02*
X11929967Y-12687186D01*
X11929967Y-12687186D02*
X11920444Y-12696710D01*
X11920444Y-12696710D02*
X11901396Y-12706234D01*
X11901396Y-12706234D02*
X11882348Y-12706234D01*
X11882348Y-12706234D02*
X11863301Y-12696710D01*
X11863301Y-12696710D02*
X11853777Y-12687186D01*
X11853777Y-12687186D02*
X11844253Y-12668138D01*
X11844253Y-12668138D02*
X11834729Y-12630043D01*
X11834729Y-12630043D02*
X11834729Y-12582424D01*
X11834729Y-12582424D02*
X11844253Y-12544329D01*
X11844253Y-12544329D02*
X11853777Y-12525281D01*
X11853777Y-12525281D02*
X11863301Y-12515758D01*
X11863301Y-12515758D02*
X11882348Y-12506234D01*
X12015682Y-12506234D02*
X12139491Y-12506234D01*
X12139491Y-12506234D02*
X12072825Y-12582424D01*
X12072825Y-12582424D02*
X12101396Y-12582424D01*
X12101396Y-12582424D02*
X12120444Y-12591948D01*
X12120444Y-12591948D02*
X12129967Y-12601472D01*
X12129967Y-12601472D02*
X12139491Y-12620519D01*
X12139491Y-12620519D02*
X12139491Y-12668138D01*
X12139491Y-12668138D02*
X12129967Y-12687186D01*
X12129967Y-12687186D02*
X12120444Y-12696710D01*
X12120444Y-12696710D02*
X12101396Y-12706234D01*
X12101396Y-12706234D02*
X12044253Y-12706234D01*
X12044253Y-12706234D02*
X12025206Y-12696710D01*
X12025206Y-12696710D02*
X12015682Y-12687186D01*
X12320444Y-12506234D02*
X12225206Y-12506234D01*
X12225206Y-12506234D02*
X12215682Y-12601472D01*
X12215682Y-12601472D02*
X12225206Y-12591948D01*
X12225206Y-12591948D02*
X12244253Y-12582424D01*
X12244253Y-12582424D02*
X12291872Y-12582424D01*
X12291872Y-12582424D02*
X12310920Y-12591948D01*
X12310920Y-12591948D02*
X12320444Y-12601472D01*
X12320444Y-12601472D02*
X12329967Y-12620519D01*
X12329967Y-12620519D02*
X12329967Y-12668138D01*
X12329967Y-12668138D02*
X12320444Y-12687186D01*
X12320444Y-12687186D02*
X12310920Y-12696710D01*
X12310920Y-12696710D02*
X12291872Y-12706234D01*
X12291872Y-12706234D02*
X12244253Y-12706234D01*
X12244253Y-12706234D02*
X12225206Y-12696710D01*
X12225206Y-12696710D02*
X12215682Y-12687186D01*
X12501396Y-12572900D02*
X12501396Y-12706234D01*
X12453777Y-12496710D02*
X12406158Y-12639567D01*
X12406158Y-12639567D02*
X12529967Y-12639567D01*
X12596634Y-12506234D02*
X12596634Y-12544329D01*
X12672825Y-12506234D02*
X12672825Y-12544329D01*
X12968063Y-12782424D02*
X12958539Y-12772900D01*
X12958539Y-12772900D02*
X12939491Y-12744329D01*
X12939491Y-12744329D02*
X12929968Y-12725281D01*
X12929968Y-12725281D02*
X12920444Y-12696710D01*
X12920444Y-12696710D02*
X12910920Y-12649091D01*
X12910920Y-12649091D02*
X12910920Y-12610996D01*
X12910920Y-12610996D02*
X12920444Y-12563377D01*
X12920444Y-12563377D02*
X12929968Y-12534805D01*
X12929968Y-12534805D02*
X12939491Y-12515758D01*
X12939491Y-12515758D02*
X12958539Y-12487186D01*
X12958539Y-12487186D02*
X12968063Y-12477662D01*
X13139491Y-12506234D02*
X13044253Y-12506234D01*
X13044253Y-12506234D02*
X13034729Y-12601472D01*
X13034729Y-12601472D02*
X13044253Y-12591948D01*
X13044253Y-12591948D02*
X13063301Y-12582424D01*
X13063301Y-12582424D02*
X13110920Y-12582424D01*
X13110920Y-12582424D02*
X13129968Y-12591948D01*
X13129968Y-12591948D02*
X13139491Y-12601472D01*
X13139491Y-12601472D02*
X13149015Y-12620519D01*
X13149015Y-12620519D02*
X13149015Y-12668138D01*
X13149015Y-12668138D02*
X13139491Y-12687186D01*
X13139491Y-12687186D02*
X13129968Y-12696710D01*
X13129968Y-12696710D02*
X13110920Y-12706234D01*
X13110920Y-12706234D02*
X13063301Y-12706234D01*
X13063301Y-12706234D02*
X13044253Y-12696710D01*
X13044253Y-12696710D02*
X13034729Y-12687186D01*
X13320444Y-12506234D02*
X13282348Y-12506234D01*
X13282348Y-12506234D02*
X13263301Y-12515758D01*
X13263301Y-12515758D02*
X13253777Y-12525281D01*
X13253777Y-12525281D02*
X13234729Y-12553853D01*
X13234729Y-12553853D02*
X13225206Y-12591948D01*
X13225206Y-12591948D02*
X13225206Y-12668138D01*
X13225206Y-12668138D02*
X13234729Y-12687186D01*
X13234729Y-12687186D02*
X13244253Y-12696710D01*
X13244253Y-12696710D02*
X13263301Y-12706234D01*
X13263301Y-12706234D02*
X13301396Y-12706234D01*
X13301396Y-12706234D02*
X13320444Y-12696710D01*
X13320444Y-12696710D02*
X13329968Y-12687186D01*
X13329968Y-12687186D02*
X13339491Y-12668138D01*
X13339491Y-12668138D02*
X13339491Y-12620519D01*
X13339491Y-12620519D02*
X13329968Y-12601472D01*
X13329968Y-12601472D02*
X13320444Y-12591948D01*
X13320444Y-12591948D02*
X13301396Y-12582424D01*
X13301396Y-12582424D02*
X13263301Y-12582424D01*
X13263301Y-12582424D02*
X13244253Y-12591948D01*
X13244253Y-12591948D02*
X13234729Y-12601472D01*
X13234729Y-12601472D02*
X13225206Y-12620519D01*
X13577587Y-12706234D02*
X13577587Y-12506234D01*
X13663301Y-12706234D02*
X13663301Y-12601472D01*
X13663301Y-12601472D02*
X13653777Y-12582424D01*
X13653777Y-12582424D02*
X13634730Y-12572900D01*
X13634730Y-12572900D02*
X13606158Y-12572900D01*
X13606158Y-12572900D02*
X13587110Y-12582424D01*
X13587110Y-12582424D02*
X13577587Y-12591948D01*
X13787110Y-12706234D02*
X13768063Y-12696710D01*
X13768063Y-12696710D02*
X13758539Y-12687186D01*
X13758539Y-12687186D02*
X13749015Y-12668138D01*
X13749015Y-12668138D02*
X13749015Y-12610996D01*
X13749015Y-12610996D02*
X13758539Y-12591948D01*
X13758539Y-12591948D02*
X13768063Y-12582424D01*
X13768063Y-12582424D02*
X13787110Y-12572900D01*
X13787110Y-12572900D02*
X13815682Y-12572900D01*
X13815682Y-12572900D02*
X13834730Y-12582424D01*
X13834730Y-12582424D02*
X13844253Y-12591948D01*
X13844253Y-12591948D02*
X13853777Y-12610996D01*
X13853777Y-12610996D02*
X13853777Y-12668138D01*
X13853777Y-12668138D02*
X13844253Y-12687186D01*
X13844253Y-12687186D02*
X13834730Y-12696710D01*
X13834730Y-12696710D02*
X13815682Y-12706234D01*
X13815682Y-12706234D02*
X13787110Y-12706234D01*
X13968063Y-12706234D02*
X13949015Y-12696710D01*
X13949015Y-12696710D02*
X13939491Y-12677662D01*
X13939491Y-12677662D02*
X13939491Y-12506234D01*
X14120444Y-12696710D02*
X14101396Y-12706234D01*
X14101396Y-12706234D02*
X14063301Y-12706234D01*
X14063301Y-12706234D02*
X14044253Y-12696710D01*
X14044253Y-12696710D02*
X14034730Y-12677662D01*
X14034730Y-12677662D02*
X14034730Y-12601472D01*
X14034730Y-12601472D02*
X14044253Y-12582424D01*
X14044253Y-12582424D02*
X14063301Y-12572900D01*
X14063301Y-12572900D02*
X14101396Y-12572900D01*
X14101396Y-12572900D02*
X14120444Y-12582424D01*
X14120444Y-12582424D02*
X14129968Y-12601472D01*
X14129968Y-12601472D02*
X14129968Y-12620519D01*
X14129968Y-12620519D02*
X14034730Y-12639567D01*
X14206158Y-12696710D02*
X14225206Y-12706234D01*
X14225206Y-12706234D02*
X14263301Y-12706234D01*
X14263301Y-12706234D02*
X14282349Y-12696710D01*
X14282349Y-12696710D02*
X14291872Y-12677662D01*
X14291872Y-12677662D02*
X14291872Y-12668138D01*
X14291872Y-12668138D02*
X14282349Y-12649091D01*
X14282349Y-12649091D02*
X14263301Y-12639567D01*
X14263301Y-12639567D02*
X14234730Y-12639567D01*
X14234730Y-12639567D02*
X14215682Y-12630043D01*
X14215682Y-12630043D02*
X14206158Y-12610996D01*
X14206158Y-12610996D02*
X14206158Y-12601472D01*
X14206158Y-12601472D02*
X14215682Y-12582424D01*
X14215682Y-12582424D02*
X14234730Y-12572900D01*
X14234730Y-12572900D02*
X14263301Y-12572900D01*
X14263301Y-12572900D02*
X14282349Y-12582424D01*
X14358539Y-12782424D02*
X14368063Y-12772900D01*
X14368063Y-12772900D02*
X14387111Y-12744329D01*
X14387111Y-12744329D02*
X14396634Y-12725281D01*
X14396634Y-12725281D02*
X14406158Y-12696710D01*
X14406158Y-12696710D02*
X14415682Y-12649091D01*
X14415682Y-12649091D02*
X14415682Y-12610996D01*
X14415682Y-12610996D02*
X14406158Y-12563377D01*
X14406158Y-12563377D02*
X14396634Y-12534805D01*
X14396634Y-12534805D02*
X14387111Y-12515758D01*
X14387111Y-12515758D02*
X14368063Y-12487186D01*
X14368063Y-12487186D02*
X14358539Y-12477662D01*
D10*
X9393000Y-12878750D02*
G75*
G03*
X9293000Y-12878750I-50000J0D01*
G01*
X9293000Y-12878750D02*
G75*
G03*
X9393000Y-12878750I50000J0D01*
G01*
D11*
X9758539Y-12970234D02*
X9644253Y-12970234D01*
X9701396Y-12970234D02*
X9701396Y-12770234D01*
X9701396Y-12770234D02*
X9682348Y-12798805D01*
X9682348Y-12798805D02*
X9663301Y-12817853D01*
X9663301Y-12817853D02*
X9644253Y-12827377D01*
X9844253Y-12951186D02*
X9853777Y-12960710D01*
X9853777Y-12960710D02*
X9844253Y-12970234D01*
X9844253Y-12970234D02*
X9834729Y-12960710D01*
X9834729Y-12960710D02*
X9844253Y-12951186D01*
X9844253Y-12951186D02*
X9844253Y-12970234D01*
X9977586Y-12770234D02*
X9996634Y-12770234D01*
X9996634Y-12770234D02*
X10015682Y-12779758D01*
X10015682Y-12779758D02*
X10025205Y-12789281D01*
X10025205Y-12789281D02*
X10034729Y-12808329D01*
X10034729Y-12808329D02*
X10044253Y-12846424D01*
X10044253Y-12846424D02*
X10044253Y-12894043D01*
X10044253Y-12894043D02*
X10034729Y-12932138D01*
X10034729Y-12932138D02*
X10025205Y-12951186D01*
X10025205Y-12951186D02*
X10015682Y-12960710D01*
X10015682Y-12960710D02*
X9996634Y-12970234D01*
X9996634Y-12970234D02*
X9977586Y-12970234D01*
X9977586Y-12970234D02*
X9958539Y-12960710D01*
X9958539Y-12960710D02*
X9949015Y-12951186D01*
X9949015Y-12951186D02*
X9939491Y-12932138D01*
X9939491Y-12932138D02*
X9929967Y-12894043D01*
X9929967Y-12894043D02*
X9929967Y-12846424D01*
X9929967Y-12846424D02*
X9939491Y-12808329D01*
X9939491Y-12808329D02*
X9949015Y-12789281D01*
X9949015Y-12789281D02*
X9958539Y-12779758D01*
X9958539Y-12779758D02*
X9977586Y-12770234D01*
X10168063Y-12770234D02*
X10187110Y-12770234D01*
X10187110Y-12770234D02*
X10206158Y-12779758D01*
X10206158Y-12779758D02*
X10215682Y-12789281D01*
X10215682Y-12789281D02*
X10225205Y-12808329D01*
X10225205Y-12808329D02*
X10234729Y-12846424D01*
X10234729Y-12846424D02*
X10234729Y-12894043D01*
X10234729Y-12894043D02*
X10225205Y-12932138D01*
X10225205Y-12932138D02*
X10215682Y-12951186D01*
X10215682Y-12951186D02*
X10206158Y-12960710D01*
X10206158Y-12960710D02*
X10187110Y-12970234D01*
X10187110Y-12970234D02*
X10168063Y-12970234D01*
X10168063Y-12970234D02*
X10149015Y-12960710D01*
X10149015Y-12960710D02*
X10139491Y-12951186D01*
X10139491Y-12951186D02*
X10129967Y-12932138D01*
X10129967Y-12932138D02*
X10120444Y-12894043D01*
X10120444Y-12894043D02*
X10120444Y-12846424D01*
X10120444Y-12846424D02*
X10129967Y-12808329D01*
X10129967Y-12808329D02*
X10139491Y-12789281D01*
X10139491Y-12789281D02*
X10149015Y-12779758D01*
X10149015Y-12779758D02*
X10168063Y-12770234D01*
X10358539Y-12770234D02*
X10377586Y-12770234D01*
X10377586Y-12770234D02*
X10396634Y-12779758D01*
X10396634Y-12779758D02*
X10406158Y-12789281D01*
X10406158Y-12789281D02*
X10415682Y-12808329D01*
X10415682Y-12808329D02*
X10425205Y-12846424D01*
X10425205Y-12846424D02*
X10425205Y-12894043D01*
X10425205Y-12894043D02*
X10415682Y-12932138D01*
X10415682Y-12932138D02*
X10406158Y-12951186D01*
X10406158Y-12951186D02*
X10396634Y-12960710D01*
X10396634Y-12960710D02*
X10377586Y-12970234D01*
X10377586Y-12970234D02*
X10358539Y-12970234D01*
X10358539Y-12970234D02*
X10339491Y-12960710D01*
X10339491Y-12960710D02*
X10329967Y-12951186D01*
X10329967Y-12951186D02*
X10320444Y-12932138D01*
X10320444Y-12932138D02*
X10310920Y-12894043D01*
X10310920Y-12894043D02*
X10310920Y-12846424D01*
X10310920Y-12846424D02*
X10320444Y-12808329D01*
X10320444Y-12808329D02*
X10329967Y-12789281D01*
X10329967Y-12789281D02*
X10339491Y-12779758D01*
X10339491Y-12779758D02*
X10358539Y-12770234D01*
X10510920Y-12970234D02*
X10510920Y-12836900D01*
X10510920Y-12855948D02*
X10520444Y-12846424D01*
X10520444Y-12846424D02*
X10539491Y-12836900D01*
X10539491Y-12836900D02*
X10568063Y-12836900D01*
X10568063Y-12836900D02*
X10587110Y-12846424D01*
X10587110Y-12846424D02*
X10596634Y-12865472D01*
X10596634Y-12865472D02*
X10596634Y-12970234D01*
X10596634Y-12865472D02*
X10606158Y-12846424D01*
X10606158Y-12846424D02*
X10625205Y-12836900D01*
X10625205Y-12836900D02*
X10653777Y-12836900D01*
X10653777Y-12836900D02*
X10672825Y-12846424D01*
X10672825Y-12846424D02*
X10682348Y-12865472D01*
X10682348Y-12865472D02*
X10682348Y-12970234D01*
X10777586Y-12970234D02*
X10777586Y-12836900D01*
X10777586Y-12855948D02*
X10787110Y-12846424D01*
X10787110Y-12846424D02*
X10806158Y-12836900D01*
X10806158Y-12836900D02*
X10834729Y-12836900D01*
X10834729Y-12836900D02*
X10853777Y-12846424D01*
X10853777Y-12846424D02*
X10863301Y-12865472D01*
X10863301Y-12865472D02*
X10863301Y-12970234D01*
X10863301Y-12865472D02*
X10872825Y-12846424D01*
X10872825Y-12846424D02*
X10891872Y-12836900D01*
X10891872Y-12836900D02*
X10920444Y-12836900D01*
X10920444Y-12836900D02*
X10939491Y-12846424D01*
X10939491Y-12846424D02*
X10949015Y-12865472D01*
X10949015Y-12865472D02*
X10949015Y-12970234D01*
X11339491Y-12760710D02*
X11168063Y-13017853D01*
X11596634Y-12770234D02*
X11615682Y-12770234D01*
X11615682Y-12770234D02*
X11634729Y-12779758D01*
X11634729Y-12779758D02*
X11644253Y-12789281D01*
X11644253Y-12789281D02*
X11653777Y-12808329D01*
X11653777Y-12808329D02*
X11663301Y-12846424D01*
X11663301Y-12846424D02*
X11663301Y-12894043D01*
X11663301Y-12894043D02*
X11653777Y-12932138D01*
X11653777Y-12932138D02*
X11644253Y-12951186D01*
X11644253Y-12951186D02*
X11634729Y-12960710D01*
X11634729Y-12960710D02*
X11615682Y-12970234D01*
X11615682Y-12970234D02*
X11596634Y-12970234D01*
X11596634Y-12970234D02*
X11577586Y-12960710D01*
X11577586Y-12960710D02*
X11568063Y-12951186D01*
X11568063Y-12951186D02*
X11558539Y-12932138D01*
X11558539Y-12932138D02*
X11549015Y-12894043D01*
X11549015Y-12894043D02*
X11549015Y-12846424D01*
X11549015Y-12846424D02*
X11558539Y-12808329D01*
X11558539Y-12808329D02*
X11568063Y-12789281D01*
X11568063Y-12789281D02*
X11577586Y-12779758D01*
X11577586Y-12779758D02*
X11596634Y-12770234D01*
X11749015Y-12951186D02*
X11758539Y-12960710D01*
X11758539Y-12960710D02*
X11749015Y-12970234D01*
X11749015Y-12970234D02*
X11739491Y-12960710D01*
X11739491Y-12960710D02*
X11749015Y-12951186D01*
X11749015Y-12951186D02*
X11749015Y-12970234D01*
X11882348Y-12770234D02*
X11901396Y-12770234D01*
X11901396Y-12770234D02*
X11920444Y-12779758D01*
X11920444Y-12779758D02*
X11929967Y-12789281D01*
X11929967Y-12789281D02*
X11939491Y-12808329D01*
X11939491Y-12808329D02*
X11949015Y-12846424D01*
X11949015Y-12846424D02*
X11949015Y-12894043D01*
X11949015Y-12894043D02*
X11939491Y-12932138D01*
X11939491Y-12932138D02*
X11929967Y-12951186D01*
X11929967Y-12951186D02*
X11920444Y-12960710D01*
X11920444Y-12960710D02*
X11901396Y-12970234D01*
X11901396Y-12970234D02*
X11882348Y-12970234D01*
X11882348Y-12970234D02*
X11863301Y-12960710D01*
X11863301Y-12960710D02*
X11853777Y-12951186D01*
X11853777Y-12951186D02*
X11844253Y-12932138D01*
X11844253Y-12932138D02*
X11834729Y-12894043D01*
X11834729Y-12894043D02*
X11834729Y-12846424D01*
X11834729Y-12846424D02*
X11844253Y-12808329D01*
X11844253Y-12808329D02*
X11853777Y-12789281D01*
X11853777Y-12789281D02*
X11863301Y-12779758D01*
X11863301Y-12779758D02*
X11882348Y-12770234D01*
X12015682Y-12770234D02*
X12139491Y-12770234D01*
X12139491Y-12770234D02*
X12072825Y-12846424D01*
X12072825Y-12846424D02*
X12101396Y-12846424D01*
X12101396Y-12846424D02*
X12120444Y-12855948D01*
X12120444Y-12855948D02*
X12129967Y-12865472D01*
X12129967Y-12865472D02*
X12139491Y-12884519D01*
X12139491Y-12884519D02*
X12139491Y-12932138D01*
X12139491Y-12932138D02*
X12129967Y-12951186D01*
X12129967Y-12951186D02*
X12120444Y-12960710D01*
X12120444Y-12960710D02*
X12101396Y-12970234D01*
X12101396Y-12970234D02*
X12044253Y-12970234D01*
X12044253Y-12970234D02*
X12025206Y-12960710D01*
X12025206Y-12960710D02*
X12015682Y-12951186D01*
X12234729Y-12970234D02*
X12272825Y-12970234D01*
X12272825Y-12970234D02*
X12291872Y-12960710D01*
X12291872Y-12960710D02*
X12301396Y-12951186D01*
X12301396Y-12951186D02*
X12320444Y-12922615D01*
X12320444Y-12922615D02*
X12329967Y-12884519D01*
X12329967Y-12884519D02*
X12329967Y-12808329D01*
X12329967Y-12808329D02*
X12320444Y-12789281D01*
X12320444Y-12789281D02*
X12310920Y-12779758D01*
X12310920Y-12779758D02*
X12291872Y-12770234D01*
X12291872Y-12770234D02*
X12253777Y-12770234D01*
X12253777Y-12770234D02*
X12234729Y-12779758D01*
X12234729Y-12779758D02*
X12225206Y-12789281D01*
X12225206Y-12789281D02*
X12215682Y-12808329D01*
X12215682Y-12808329D02*
X12215682Y-12855948D01*
X12215682Y-12855948D02*
X12225206Y-12874996D01*
X12225206Y-12874996D02*
X12234729Y-12884519D01*
X12234729Y-12884519D02*
X12253777Y-12894043D01*
X12253777Y-12894043D02*
X12291872Y-12894043D01*
X12291872Y-12894043D02*
X12310920Y-12884519D01*
X12310920Y-12884519D02*
X12320444Y-12874996D01*
X12320444Y-12874996D02*
X12329967Y-12855948D01*
X12501396Y-12836900D02*
X12501396Y-12970234D01*
X12453777Y-12760710D02*
X12406158Y-12903567D01*
X12406158Y-12903567D02*
X12529967Y-12903567D01*
X12596634Y-12770234D02*
X12596634Y-12808329D01*
X12672825Y-12770234D02*
X12672825Y-12808329D01*
X12968063Y-13046424D02*
X12958539Y-13036900D01*
X12958539Y-13036900D02*
X12939491Y-13008329D01*
X12939491Y-13008329D02*
X12929968Y-12989281D01*
X12929968Y-12989281D02*
X12920444Y-12960710D01*
X12920444Y-12960710D02*
X12910920Y-12913091D01*
X12910920Y-12913091D02*
X12910920Y-12874996D01*
X12910920Y-12874996D02*
X12920444Y-12827377D01*
X12920444Y-12827377D02*
X12929968Y-12798805D01*
X12929968Y-12798805D02*
X12939491Y-12779758D01*
X12939491Y-12779758D02*
X12958539Y-12751186D01*
X12958539Y-12751186D02*
X12968063Y-12741662D01*
X13129968Y-12836900D02*
X13129968Y-12970234D01*
X13082348Y-12760710D02*
X13034729Y-12903567D01*
X13034729Y-12903567D02*
X13158539Y-12903567D01*
X13263301Y-12855948D02*
X13244253Y-12846424D01*
X13244253Y-12846424D02*
X13234729Y-12836900D01*
X13234729Y-12836900D02*
X13225206Y-12817853D01*
X13225206Y-12817853D02*
X13225206Y-12808329D01*
X13225206Y-12808329D02*
X13234729Y-12789281D01*
X13234729Y-12789281D02*
X13244253Y-12779758D01*
X13244253Y-12779758D02*
X13263301Y-12770234D01*
X13263301Y-12770234D02*
X13301396Y-12770234D01*
X13301396Y-12770234D02*
X13320444Y-12779758D01*
X13320444Y-12779758D02*
X13329968Y-12789281D01*
X13329968Y-12789281D02*
X13339491Y-12808329D01*
X13339491Y-12808329D02*
X13339491Y-12817853D01*
X13339491Y-12817853D02*
X13329968Y-12836900D01*
X13329968Y-12836900D02*
X13320444Y-12846424D01*
X13320444Y-12846424D02*
X13301396Y-12855948D01*
X13301396Y-12855948D02*
X13263301Y-12855948D01*
X13263301Y-12855948D02*
X13244253Y-12865472D01*
X13244253Y-12865472D02*
X13234729Y-12874996D01*
X13234729Y-12874996D02*
X13225206Y-12894043D01*
X13225206Y-12894043D02*
X13225206Y-12932138D01*
X13225206Y-12932138D02*
X13234729Y-12951186D01*
X13234729Y-12951186D02*
X13244253Y-12960710D01*
X13244253Y-12960710D02*
X13263301Y-12970234D01*
X13263301Y-12970234D02*
X13301396Y-12970234D01*
X13301396Y-12970234D02*
X13320444Y-12960710D01*
X13320444Y-12960710D02*
X13329968Y-12951186D01*
X13329968Y-12951186D02*
X13339491Y-12932138D01*
X13339491Y-12932138D02*
X13339491Y-12894043D01*
X13339491Y-12894043D02*
X13329968Y-12874996D01*
X13329968Y-12874996D02*
X13320444Y-12865472D01*
X13320444Y-12865472D02*
X13301396Y-12855948D01*
X13577587Y-12970234D02*
X13577587Y-12770234D01*
X13663301Y-12970234D02*
X13663301Y-12865472D01*
X13663301Y-12865472D02*
X13653777Y-12846424D01*
X13653777Y-12846424D02*
X13634730Y-12836900D01*
X13634730Y-12836900D02*
X13606158Y-12836900D01*
X13606158Y-12836900D02*
X13587110Y-12846424D01*
X13587110Y-12846424D02*
X13577587Y-12855948D01*
X13787110Y-12970234D02*
X13768063Y-12960710D01*
X13768063Y-12960710D02*
X13758539Y-12951186D01*
X13758539Y-12951186D02*
X13749015Y-12932138D01*
X13749015Y-12932138D02*
X13749015Y-12874996D01*
X13749015Y-12874996D02*
X13758539Y-12855948D01*
X13758539Y-12855948D02*
X13768063Y-12846424D01*
X13768063Y-12846424D02*
X13787110Y-12836900D01*
X13787110Y-12836900D02*
X13815682Y-12836900D01*
X13815682Y-12836900D02*
X13834730Y-12846424D01*
X13834730Y-12846424D02*
X13844253Y-12855948D01*
X13844253Y-12855948D02*
X13853777Y-12874996D01*
X13853777Y-12874996D02*
X13853777Y-12932138D01*
X13853777Y-12932138D02*
X13844253Y-12951186D01*
X13844253Y-12951186D02*
X13834730Y-12960710D01*
X13834730Y-12960710D02*
X13815682Y-12970234D01*
X13815682Y-12970234D02*
X13787110Y-12970234D01*
X13968063Y-12970234D02*
X13949015Y-12960710D01*
X13949015Y-12960710D02*
X13939491Y-12941662D01*
X13939491Y-12941662D02*
X13939491Y-12770234D01*
X14120444Y-12960710D02*
X14101396Y-12970234D01*
X14101396Y-12970234D02*
X14063301Y-12970234D01*
X14063301Y-12970234D02*
X14044253Y-12960710D01*
X14044253Y-12960710D02*
X14034730Y-12941662D01*
X14034730Y-12941662D02*
X14034730Y-12865472D01*
X14034730Y-12865472D02*
X14044253Y-12846424D01*
X14044253Y-12846424D02*
X14063301Y-12836900D01*
X14063301Y-12836900D02*
X14101396Y-12836900D01*
X14101396Y-12836900D02*
X14120444Y-12846424D01*
X14120444Y-12846424D02*
X14129968Y-12865472D01*
X14129968Y-12865472D02*
X14129968Y-12884519D01*
X14129968Y-12884519D02*
X14034730Y-12903567D01*
X14206158Y-12960710D02*
X14225206Y-12970234D01*
X14225206Y-12970234D02*
X14263301Y-12970234D01*
X14263301Y-12970234D02*
X14282349Y-12960710D01*
X14282349Y-12960710D02*
X14291872Y-12941662D01*
X14291872Y-12941662D02*
X14291872Y-12932138D01*
X14291872Y-12932138D02*
X14282349Y-12913091D01*
X14282349Y-12913091D02*
X14263301Y-12903567D01*
X14263301Y-12903567D02*
X14234730Y-12903567D01*
X14234730Y-12903567D02*
X14215682Y-12894043D01*
X14215682Y-12894043D02*
X14206158Y-12874996D01*
X14206158Y-12874996D02*
X14206158Y-12865472D01*
X14206158Y-12865472D02*
X14215682Y-12846424D01*
X14215682Y-12846424D02*
X14234730Y-12836900D01*
X14234730Y-12836900D02*
X14263301Y-12836900D01*
X14263301Y-12836900D02*
X14282349Y-12846424D01*
X14358539Y-13046424D02*
X14368063Y-13036900D01*
X14368063Y-13036900D02*
X14387111Y-13008329D01*
X14387111Y-13008329D02*
X14396634Y-12989281D01*
X14396634Y-12989281D02*
X14406158Y-12960710D01*
X14406158Y-12960710D02*
X14415682Y-12913091D01*
X14415682Y-12913091D02*
X14415682Y-12874996D01*
X14415682Y-12874996D02*
X14406158Y-12827377D01*
X14406158Y-12827377D02*
X14396634Y-12798805D01*
X14396634Y-12798805D02*
X14387111Y-12779758D01*
X14387111Y-12779758D02*
X14368063Y-12751186D01*
X14368063Y-12751186D02*
X14358539Y-12741662D01*
D12*
X9338000Y-13087750D02*
X9338000Y-13197750D01*
X9283000Y-13142750D02*
X9393000Y-13142750D01*
D11*
X9758539Y-13234234D02*
X9644253Y-13234234D01*
X9701396Y-13234234D02*
X9701396Y-13034234D01*
X9701396Y-13034234D02*
X9682348Y-13062805D01*
X9682348Y-13062805D02*
X9663301Y-13081853D01*
X9663301Y-13081853D02*
X9644253Y-13091377D01*
X9844253Y-13215186D02*
X9853777Y-13224710D01*
X9853777Y-13224710D02*
X9844253Y-13234234D01*
X9844253Y-13234234D02*
X9834729Y-13224710D01*
X9834729Y-13224710D02*
X9844253Y-13215186D01*
X9844253Y-13215186D02*
X9844253Y-13234234D01*
X10044253Y-13234234D02*
X9929967Y-13234234D01*
X9987110Y-13234234D02*
X9987110Y-13034234D01*
X9987110Y-13034234D02*
X9968063Y-13062805D01*
X9968063Y-13062805D02*
X9949015Y-13081853D01*
X9949015Y-13081853D02*
X9929967Y-13091377D01*
X10168063Y-13034234D02*
X10187110Y-13034234D01*
X10187110Y-13034234D02*
X10206158Y-13043758D01*
X10206158Y-13043758D02*
X10215682Y-13053281D01*
X10215682Y-13053281D02*
X10225205Y-13072329D01*
X10225205Y-13072329D02*
X10234729Y-13110424D01*
X10234729Y-13110424D02*
X10234729Y-13158043D01*
X10234729Y-13158043D02*
X10225205Y-13196138D01*
X10225205Y-13196138D02*
X10215682Y-13215186D01*
X10215682Y-13215186D02*
X10206158Y-13224710D01*
X10206158Y-13224710D02*
X10187110Y-13234234D01*
X10187110Y-13234234D02*
X10168063Y-13234234D01*
X10168063Y-13234234D02*
X10149015Y-13224710D01*
X10149015Y-13224710D02*
X10139491Y-13215186D01*
X10139491Y-13215186D02*
X10129967Y-13196138D01*
X10129967Y-13196138D02*
X10120444Y-13158043D01*
X10120444Y-13158043D02*
X10120444Y-13110424D01*
X10120444Y-13110424D02*
X10129967Y-13072329D01*
X10129967Y-13072329D02*
X10139491Y-13053281D01*
X10139491Y-13053281D02*
X10149015Y-13043758D01*
X10149015Y-13043758D02*
X10168063Y-13034234D01*
X10358539Y-13034234D02*
X10377586Y-13034234D01*
X10377586Y-13034234D02*
X10396634Y-13043758D01*
X10396634Y-13043758D02*
X10406158Y-13053281D01*
X10406158Y-13053281D02*
X10415682Y-13072329D01*
X10415682Y-13072329D02*
X10425205Y-13110424D01*
X10425205Y-13110424D02*
X10425205Y-13158043D01*
X10425205Y-13158043D02*
X10415682Y-13196138D01*
X10415682Y-13196138D02*
X10406158Y-13215186D01*
X10406158Y-13215186D02*
X10396634Y-13224710D01*
X10396634Y-13224710D02*
X10377586Y-13234234D01*
X10377586Y-13234234D02*
X10358539Y-13234234D01*
X10358539Y-13234234D02*
X10339491Y-13224710D01*
X10339491Y-13224710D02*
X10329967Y-13215186D01*
X10329967Y-13215186D02*
X10320444Y-13196138D01*
X10320444Y-13196138D02*
X10310920Y-13158043D01*
X10310920Y-13158043D02*
X10310920Y-13110424D01*
X10310920Y-13110424D02*
X10320444Y-13072329D01*
X10320444Y-13072329D02*
X10329967Y-13053281D01*
X10329967Y-13053281D02*
X10339491Y-13043758D01*
X10339491Y-13043758D02*
X10358539Y-13034234D01*
X10510920Y-13234234D02*
X10510920Y-13100900D01*
X10510920Y-13119948D02*
X10520444Y-13110424D01*
X10520444Y-13110424D02*
X10539491Y-13100900D01*
X10539491Y-13100900D02*
X10568063Y-13100900D01*
X10568063Y-13100900D02*
X10587110Y-13110424D01*
X10587110Y-13110424D02*
X10596634Y-13129472D01*
X10596634Y-13129472D02*
X10596634Y-13234234D01*
X10596634Y-13129472D02*
X10606158Y-13110424D01*
X10606158Y-13110424D02*
X10625205Y-13100900D01*
X10625205Y-13100900D02*
X10653777Y-13100900D01*
X10653777Y-13100900D02*
X10672825Y-13110424D01*
X10672825Y-13110424D02*
X10682348Y-13129472D01*
X10682348Y-13129472D02*
X10682348Y-13234234D01*
X10777586Y-13234234D02*
X10777586Y-13100900D01*
X10777586Y-13119948D02*
X10787110Y-13110424D01*
X10787110Y-13110424D02*
X10806158Y-13100900D01*
X10806158Y-13100900D02*
X10834729Y-13100900D01*
X10834729Y-13100900D02*
X10853777Y-13110424D01*
X10853777Y-13110424D02*
X10863301Y-13129472D01*
X10863301Y-13129472D02*
X10863301Y-13234234D01*
X10863301Y-13129472D02*
X10872825Y-13110424D01*
X10872825Y-13110424D02*
X10891872Y-13100900D01*
X10891872Y-13100900D02*
X10920444Y-13100900D01*
X10920444Y-13100900D02*
X10939491Y-13110424D01*
X10939491Y-13110424D02*
X10949015Y-13129472D01*
X10949015Y-13129472D02*
X10949015Y-13234234D01*
X11339491Y-13024710D02*
X11168063Y-13281853D01*
X11596634Y-13034234D02*
X11615682Y-13034234D01*
X11615682Y-13034234D02*
X11634729Y-13043758D01*
X11634729Y-13043758D02*
X11644253Y-13053281D01*
X11644253Y-13053281D02*
X11653777Y-13072329D01*
X11653777Y-13072329D02*
X11663301Y-13110424D01*
X11663301Y-13110424D02*
X11663301Y-13158043D01*
X11663301Y-13158043D02*
X11653777Y-13196138D01*
X11653777Y-13196138D02*
X11644253Y-13215186D01*
X11644253Y-13215186D02*
X11634729Y-13224710D01*
X11634729Y-13224710D02*
X11615682Y-13234234D01*
X11615682Y-13234234D02*
X11596634Y-13234234D01*
X11596634Y-13234234D02*
X11577586Y-13224710D01*
X11577586Y-13224710D02*
X11568063Y-13215186D01*
X11568063Y-13215186D02*
X11558539Y-13196138D01*
X11558539Y-13196138D02*
X11549015Y-13158043D01*
X11549015Y-13158043D02*
X11549015Y-13110424D01*
X11549015Y-13110424D02*
X11558539Y-13072329D01*
X11558539Y-13072329D02*
X11568063Y-13053281D01*
X11568063Y-13053281D02*
X11577586Y-13043758D01*
X11577586Y-13043758D02*
X11596634Y-13034234D01*
X11749015Y-13215186D02*
X11758539Y-13224710D01*
X11758539Y-13224710D02*
X11749015Y-13234234D01*
X11749015Y-13234234D02*
X11739491Y-13224710D01*
X11739491Y-13224710D02*
X11749015Y-13215186D01*
X11749015Y-13215186D02*
X11749015Y-13234234D01*
X11882348Y-13034234D02*
X11901396Y-13034234D01*
X11901396Y-13034234D02*
X11920444Y-13043758D01*
X11920444Y-13043758D02*
X11929967Y-13053281D01*
X11929967Y-13053281D02*
X11939491Y-13072329D01*
X11939491Y-13072329D02*
X11949015Y-13110424D01*
X11949015Y-13110424D02*
X11949015Y-13158043D01*
X11949015Y-13158043D02*
X11939491Y-13196138D01*
X11939491Y-13196138D02*
X11929967Y-13215186D01*
X11929967Y-13215186D02*
X11920444Y-13224710D01*
X11920444Y-13224710D02*
X11901396Y-13234234D01*
X11901396Y-13234234D02*
X11882348Y-13234234D01*
X11882348Y-13234234D02*
X11863301Y-13224710D01*
X11863301Y-13224710D02*
X11853777Y-13215186D01*
X11853777Y-13215186D02*
X11844253Y-13196138D01*
X11844253Y-13196138D02*
X11834729Y-13158043D01*
X11834729Y-13158043D02*
X11834729Y-13110424D01*
X11834729Y-13110424D02*
X11844253Y-13072329D01*
X11844253Y-13072329D02*
X11853777Y-13053281D01*
X11853777Y-13053281D02*
X11863301Y-13043758D01*
X11863301Y-13043758D02*
X11882348Y-13034234D01*
X12120444Y-13100900D02*
X12120444Y-13234234D01*
X12072825Y-13024710D02*
X12025206Y-13167567D01*
X12025206Y-13167567D02*
X12149015Y-13167567D01*
X12206158Y-13034234D02*
X12329967Y-13034234D01*
X12329967Y-13034234D02*
X12263301Y-13110424D01*
X12263301Y-13110424D02*
X12291872Y-13110424D01*
X12291872Y-13110424D02*
X12310920Y-13119948D01*
X12310920Y-13119948D02*
X12320444Y-13129472D01*
X12320444Y-13129472D02*
X12329967Y-13148519D01*
X12329967Y-13148519D02*
X12329967Y-13196138D01*
X12329967Y-13196138D02*
X12320444Y-13215186D01*
X12320444Y-13215186D02*
X12310920Y-13224710D01*
X12310920Y-13224710D02*
X12291872Y-13234234D01*
X12291872Y-13234234D02*
X12234729Y-13234234D01*
X12234729Y-13234234D02*
X12215682Y-13224710D01*
X12215682Y-13224710D02*
X12206158Y-13215186D01*
X12396634Y-13034234D02*
X12520444Y-13034234D01*
X12520444Y-13034234D02*
X12453777Y-13110424D01*
X12453777Y-13110424D02*
X12482348Y-13110424D01*
X12482348Y-13110424D02*
X12501396Y-13119948D01*
X12501396Y-13119948D02*
X12510920Y-13129472D01*
X12510920Y-13129472D02*
X12520444Y-13148519D01*
X12520444Y-13148519D02*
X12520444Y-13196138D01*
X12520444Y-13196138D02*
X12510920Y-13215186D01*
X12510920Y-13215186D02*
X12501396Y-13224710D01*
X12501396Y-13224710D02*
X12482348Y-13234234D01*
X12482348Y-13234234D02*
X12425206Y-13234234D01*
X12425206Y-13234234D02*
X12406158Y-13224710D01*
X12406158Y-13224710D02*
X12396634Y-13215186D01*
X12596634Y-13034234D02*
X12596634Y-13072329D01*
X12672825Y-13034234D02*
X12672825Y-13072329D01*
X12968063Y-13310424D02*
X12958539Y-13300900D01*
X12958539Y-13300900D02*
X12939491Y-13272329D01*
X12939491Y-13272329D02*
X12929968Y-13253281D01*
X12929968Y-13253281D02*
X12920444Y-13224710D01*
X12920444Y-13224710D02*
X12910920Y-13177091D01*
X12910920Y-13177091D02*
X12910920Y-13138996D01*
X12910920Y-13138996D02*
X12920444Y-13091377D01*
X12920444Y-13091377D02*
X12929968Y-13062805D01*
X12929968Y-13062805D02*
X12939491Y-13043758D01*
X12939491Y-13043758D02*
X12958539Y-13015186D01*
X12958539Y-13015186D02*
X12968063Y-13005662D01*
X13025206Y-13034234D02*
X13149015Y-13034234D01*
X13149015Y-13034234D02*
X13082348Y-13110424D01*
X13082348Y-13110424D02*
X13110920Y-13110424D01*
X13110920Y-13110424D02*
X13129968Y-13119948D01*
X13129968Y-13119948D02*
X13139491Y-13129472D01*
X13139491Y-13129472D02*
X13149015Y-13148519D01*
X13149015Y-13148519D02*
X13149015Y-13196138D01*
X13149015Y-13196138D02*
X13139491Y-13215186D01*
X13139491Y-13215186D02*
X13129968Y-13224710D01*
X13129968Y-13224710D02*
X13110920Y-13234234D01*
X13110920Y-13234234D02*
X13053777Y-13234234D01*
X13053777Y-13234234D02*
X13034729Y-13224710D01*
X13034729Y-13224710D02*
X13025206Y-13215186D01*
X13387110Y-13234234D02*
X13387110Y-13034234D01*
X13472825Y-13234234D02*
X13472825Y-13129472D01*
X13472825Y-13129472D02*
X13463301Y-13110424D01*
X13463301Y-13110424D02*
X13444253Y-13100900D01*
X13444253Y-13100900D02*
X13415682Y-13100900D01*
X13415682Y-13100900D02*
X13396634Y-13110424D01*
X13396634Y-13110424D02*
X13387110Y-13119948D01*
X13596634Y-13234234D02*
X13577587Y-13224710D01*
X13577587Y-13224710D02*
X13568063Y-13215186D01*
X13568063Y-13215186D02*
X13558539Y-13196138D01*
X13558539Y-13196138D02*
X13558539Y-13138996D01*
X13558539Y-13138996D02*
X13568063Y-13119948D01*
X13568063Y-13119948D02*
X13577587Y-13110424D01*
X13577587Y-13110424D02*
X13596634Y-13100900D01*
X13596634Y-13100900D02*
X13625206Y-13100900D01*
X13625206Y-13100900D02*
X13644253Y-13110424D01*
X13644253Y-13110424D02*
X13653777Y-13119948D01*
X13653777Y-13119948D02*
X13663301Y-13138996D01*
X13663301Y-13138996D02*
X13663301Y-13196138D01*
X13663301Y-13196138D02*
X13653777Y-13215186D01*
X13653777Y-13215186D02*
X13644253Y-13224710D01*
X13644253Y-13224710D02*
X13625206Y-13234234D01*
X13625206Y-13234234D02*
X13596634Y-13234234D01*
X13777587Y-13234234D02*
X13758539Y-13224710D01*
X13758539Y-13224710D02*
X13749015Y-13205662D01*
X13749015Y-13205662D02*
X13749015Y-13034234D01*
X13929968Y-13224710D02*
X13910920Y-13234234D01*
X13910920Y-13234234D02*
X13872825Y-13234234D01*
X13872825Y-13234234D02*
X13853777Y-13224710D01*
X13853777Y-13224710D02*
X13844253Y-13205662D01*
X13844253Y-13205662D02*
X13844253Y-13129472D01*
X13844253Y-13129472D02*
X13853777Y-13110424D01*
X13853777Y-13110424D02*
X13872825Y-13100900D01*
X13872825Y-13100900D02*
X13910920Y-13100900D01*
X13910920Y-13100900D02*
X13929968Y-13110424D01*
X13929968Y-13110424D02*
X13939491Y-13129472D01*
X13939491Y-13129472D02*
X13939491Y-13148519D01*
X13939491Y-13148519D02*
X13844253Y-13167567D01*
X14015682Y-13224710D02*
X14034730Y-13234234D01*
X14034730Y-13234234D02*
X14072825Y-13234234D01*
X14072825Y-13234234D02*
X14091872Y-13224710D01*
X14091872Y-13224710D02*
X14101396Y-13205662D01*
X14101396Y-13205662D02*
X14101396Y-13196138D01*
X14101396Y-13196138D02*
X14091872Y-13177091D01*
X14091872Y-13177091D02*
X14072825Y-13167567D01*
X14072825Y-13167567D02*
X14044253Y-13167567D01*
X14044253Y-13167567D02*
X14025206Y-13158043D01*
X14025206Y-13158043D02*
X14015682Y-13138996D01*
X14015682Y-13138996D02*
X14015682Y-13129472D01*
X14015682Y-13129472D02*
X14025206Y-13110424D01*
X14025206Y-13110424D02*
X14044253Y-13100900D01*
X14044253Y-13100900D02*
X14072825Y-13100900D01*
X14072825Y-13100900D02*
X14091872Y-13110424D01*
X14168063Y-13310424D02*
X14177587Y-13300900D01*
X14177587Y-13300900D02*
X14196634Y-13272329D01*
X14196634Y-13272329D02*
X14206158Y-13253281D01*
X14206158Y-13253281D02*
X14215682Y-13224710D01*
X14215682Y-13224710D02*
X14225206Y-13177091D01*
X14225206Y-13177091D02*
X14225206Y-13138996D01*
X14225206Y-13138996D02*
X14215682Y-13091377D01*
X14215682Y-13091377D02*
X14206158Y-13062805D01*
X14206158Y-13062805D02*
X14196634Y-13043758D01*
X14196634Y-13043758D02*
X14177587Y-13015186D01*
X14177587Y-13015186D02*
X14168063Y-13005662D01*
D13*
X9369569Y-13463319D02*
X9369569Y-13350181D01*
X9256431Y-13350181D01*
X9256431Y-13463319D01*
X9369569Y-13463319D01*
D11*
X9758539Y-13498234D02*
X9644253Y-13498234D01*
X9701396Y-13498234D02*
X9701396Y-13298234D01*
X9701396Y-13298234D02*
X9682348Y-13326805D01*
X9682348Y-13326805D02*
X9663301Y-13345853D01*
X9663301Y-13345853D02*
X9644253Y-13355377D01*
X9844253Y-13479186D02*
X9853777Y-13488710D01*
X9853777Y-13488710D02*
X9844253Y-13498234D01*
X9844253Y-13498234D02*
X9834729Y-13488710D01*
X9834729Y-13488710D02*
X9844253Y-13479186D01*
X9844253Y-13479186D02*
X9844253Y-13498234D01*
X10025205Y-13298234D02*
X9987110Y-13298234D01*
X9987110Y-13298234D02*
X9968063Y-13307758D01*
X9968063Y-13307758D02*
X9958539Y-13317281D01*
X9958539Y-13317281D02*
X9939491Y-13345853D01*
X9939491Y-13345853D02*
X9929967Y-13383948D01*
X9929967Y-13383948D02*
X9929967Y-13460138D01*
X9929967Y-13460138D02*
X9939491Y-13479186D01*
X9939491Y-13479186D02*
X9949015Y-13488710D01*
X9949015Y-13488710D02*
X9968063Y-13498234D01*
X9968063Y-13498234D02*
X10006158Y-13498234D01*
X10006158Y-13498234D02*
X10025205Y-13488710D01*
X10025205Y-13488710D02*
X10034729Y-13479186D01*
X10034729Y-13479186D02*
X10044253Y-13460138D01*
X10044253Y-13460138D02*
X10044253Y-13412519D01*
X10044253Y-13412519D02*
X10034729Y-13393472D01*
X10034729Y-13393472D02*
X10025205Y-13383948D01*
X10025205Y-13383948D02*
X10006158Y-13374424D01*
X10006158Y-13374424D02*
X9968063Y-13374424D01*
X9968063Y-13374424D02*
X9949015Y-13383948D01*
X9949015Y-13383948D02*
X9939491Y-13393472D01*
X9939491Y-13393472D02*
X9929967Y-13412519D01*
X10168063Y-13298234D02*
X10187110Y-13298234D01*
X10187110Y-13298234D02*
X10206158Y-13307758D01*
X10206158Y-13307758D02*
X10215682Y-13317281D01*
X10215682Y-13317281D02*
X10225205Y-13336329D01*
X10225205Y-13336329D02*
X10234729Y-13374424D01*
X10234729Y-13374424D02*
X10234729Y-13422043D01*
X10234729Y-13422043D02*
X10225205Y-13460138D01*
X10225205Y-13460138D02*
X10215682Y-13479186D01*
X10215682Y-13479186D02*
X10206158Y-13488710D01*
X10206158Y-13488710D02*
X10187110Y-13498234D01*
X10187110Y-13498234D02*
X10168063Y-13498234D01*
X10168063Y-13498234D02*
X10149015Y-13488710D01*
X10149015Y-13488710D02*
X10139491Y-13479186D01*
X10139491Y-13479186D02*
X10129967Y-13460138D01*
X10129967Y-13460138D02*
X10120444Y-13422043D01*
X10120444Y-13422043D02*
X10120444Y-13374424D01*
X10120444Y-13374424D02*
X10129967Y-13336329D01*
X10129967Y-13336329D02*
X10139491Y-13317281D01*
X10139491Y-13317281D02*
X10149015Y-13307758D01*
X10149015Y-13307758D02*
X10168063Y-13298234D01*
X10358539Y-13298234D02*
X10377586Y-13298234D01*
X10377586Y-13298234D02*
X10396634Y-13307758D01*
X10396634Y-13307758D02*
X10406158Y-13317281D01*
X10406158Y-13317281D02*
X10415682Y-13336329D01*
X10415682Y-13336329D02*
X10425205Y-13374424D01*
X10425205Y-13374424D02*
X10425205Y-13422043D01*
X10425205Y-13422043D02*
X10415682Y-13460138D01*
X10415682Y-13460138D02*
X10406158Y-13479186D01*
X10406158Y-13479186D02*
X10396634Y-13488710D01*
X10396634Y-13488710D02*
X10377586Y-13498234D01*
X10377586Y-13498234D02*
X10358539Y-13498234D01*
X10358539Y-13498234D02*
X10339491Y-13488710D01*
X10339491Y-13488710D02*
X10329967Y-13479186D01*
X10329967Y-13479186D02*
X10320444Y-13460138D01*
X10320444Y-13460138D02*
X10310920Y-13422043D01*
X10310920Y-13422043D02*
X10310920Y-13374424D01*
X10310920Y-13374424D02*
X10320444Y-13336329D01*
X10320444Y-13336329D02*
X10329967Y-13317281D01*
X10329967Y-13317281D02*
X10339491Y-13307758D01*
X10339491Y-13307758D02*
X10358539Y-13298234D01*
X10510920Y-13498234D02*
X10510920Y-13364900D01*
X10510920Y-13383948D02*
X10520444Y-13374424D01*
X10520444Y-13374424D02*
X10539491Y-13364900D01*
X10539491Y-13364900D02*
X10568063Y-13364900D01*
X10568063Y-13364900D02*
X10587110Y-13374424D01*
X10587110Y-13374424D02*
X10596634Y-13393472D01*
X10596634Y-13393472D02*
X10596634Y-13498234D01*
X10596634Y-13393472D02*
X10606158Y-13374424D01*
X10606158Y-13374424D02*
X10625205Y-13364900D01*
X10625205Y-13364900D02*
X10653777Y-13364900D01*
X10653777Y-13364900D02*
X10672825Y-13374424D01*
X10672825Y-13374424D02*
X10682348Y-13393472D01*
X10682348Y-13393472D02*
X10682348Y-13498234D01*
X10777586Y-13498234D02*
X10777586Y-13364900D01*
X10777586Y-13383948D02*
X10787110Y-13374424D01*
X10787110Y-13374424D02*
X10806158Y-13364900D01*
X10806158Y-13364900D02*
X10834729Y-13364900D01*
X10834729Y-13364900D02*
X10853777Y-13374424D01*
X10853777Y-13374424D02*
X10863301Y-13393472D01*
X10863301Y-13393472D02*
X10863301Y-13498234D01*
X10863301Y-13393472D02*
X10872825Y-13374424D01*
X10872825Y-13374424D02*
X10891872Y-13364900D01*
X10891872Y-13364900D02*
X10920444Y-13364900D01*
X10920444Y-13364900D02*
X10939491Y-13374424D01*
X10939491Y-13374424D02*
X10949015Y-13393472D01*
X10949015Y-13393472D02*
X10949015Y-13498234D01*
X11339491Y-13288710D02*
X11168063Y-13545853D01*
X11596634Y-13298234D02*
X11615682Y-13298234D01*
X11615682Y-13298234D02*
X11634729Y-13307758D01*
X11634729Y-13307758D02*
X11644253Y-13317281D01*
X11644253Y-13317281D02*
X11653777Y-13336329D01*
X11653777Y-13336329D02*
X11663301Y-13374424D01*
X11663301Y-13374424D02*
X11663301Y-13422043D01*
X11663301Y-13422043D02*
X11653777Y-13460138D01*
X11653777Y-13460138D02*
X11644253Y-13479186D01*
X11644253Y-13479186D02*
X11634729Y-13488710D01*
X11634729Y-13488710D02*
X11615682Y-13498234D01*
X11615682Y-13498234D02*
X11596634Y-13498234D01*
X11596634Y-13498234D02*
X11577586Y-13488710D01*
X11577586Y-13488710D02*
X11568063Y-13479186D01*
X11568063Y-13479186D02*
X11558539Y-13460138D01*
X11558539Y-13460138D02*
X11549015Y-13422043D01*
X11549015Y-13422043D02*
X11549015Y-13374424D01*
X11549015Y-13374424D02*
X11558539Y-13336329D01*
X11558539Y-13336329D02*
X11568063Y-13317281D01*
X11568063Y-13317281D02*
X11577586Y-13307758D01*
X11577586Y-13307758D02*
X11596634Y-13298234D01*
X11749015Y-13479186D02*
X11758539Y-13488710D01*
X11758539Y-13488710D02*
X11749015Y-13498234D01*
X11749015Y-13498234D02*
X11739491Y-13488710D01*
X11739491Y-13488710D02*
X11749015Y-13479186D01*
X11749015Y-13479186D02*
X11749015Y-13498234D01*
X11882348Y-13298234D02*
X11901396Y-13298234D01*
X11901396Y-13298234D02*
X11920444Y-13307758D01*
X11920444Y-13307758D02*
X11929967Y-13317281D01*
X11929967Y-13317281D02*
X11939491Y-13336329D01*
X11939491Y-13336329D02*
X11949015Y-13374424D01*
X11949015Y-13374424D02*
X11949015Y-13422043D01*
X11949015Y-13422043D02*
X11939491Y-13460138D01*
X11939491Y-13460138D02*
X11929967Y-13479186D01*
X11929967Y-13479186D02*
X11920444Y-13488710D01*
X11920444Y-13488710D02*
X11901396Y-13498234D01*
X11901396Y-13498234D02*
X11882348Y-13498234D01*
X11882348Y-13498234D02*
X11863301Y-13488710D01*
X11863301Y-13488710D02*
X11853777Y-13479186D01*
X11853777Y-13479186D02*
X11844253Y-13460138D01*
X11844253Y-13460138D02*
X11834729Y-13422043D01*
X11834729Y-13422043D02*
X11834729Y-13374424D01*
X11834729Y-13374424D02*
X11844253Y-13336329D01*
X11844253Y-13336329D02*
X11853777Y-13317281D01*
X11853777Y-13317281D02*
X11863301Y-13307758D01*
X11863301Y-13307758D02*
X11882348Y-13298234D01*
X12120444Y-13298234D02*
X12082348Y-13298234D01*
X12082348Y-13298234D02*
X12063301Y-13307758D01*
X12063301Y-13307758D02*
X12053777Y-13317281D01*
X12053777Y-13317281D02*
X12034729Y-13345853D01*
X12034729Y-13345853D02*
X12025206Y-13383948D01*
X12025206Y-13383948D02*
X12025206Y-13460138D01*
X12025206Y-13460138D02*
X12034729Y-13479186D01*
X12034729Y-13479186D02*
X12044253Y-13488710D01*
X12044253Y-13488710D02*
X12063301Y-13498234D01*
X12063301Y-13498234D02*
X12101396Y-13498234D01*
X12101396Y-13498234D02*
X12120444Y-13488710D01*
X12120444Y-13488710D02*
X12129967Y-13479186D01*
X12129967Y-13479186D02*
X12139491Y-13460138D01*
X12139491Y-13460138D02*
X12139491Y-13412519D01*
X12139491Y-13412519D02*
X12129967Y-13393472D01*
X12129967Y-13393472D02*
X12120444Y-13383948D01*
X12120444Y-13383948D02*
X12101396Y-13374424D01*
X12101396Y-13374424D02*
X12063301Y-13374424D01*
X12063301Y-13374424D02*
X12044253Y-13383948D01*
X12044253Y-13383948D02*
X12034729Y-13393472D01*
X12034729Y-13393472D02*
X12025206Y-13412519D01*
X12206158Y-13298234D02*
X12329967Y-13298234D01*
X12329967Y-13298234D02*
X12263301Y-13374424D01*
X12263301Y-13374424D02*
X12291872Y-13374424D01*
X12291872Y-13374424D02*
X12310920Y-13383948D01*
X12310920Y-13383948D02*
X12320444Y-13393472D01*
X12320444Y-13393472D02*
X12329967Y-13412519D01*
X12329967Y-13412519D02*
X12329967Y-13460138D01*
X12329967Y-13460138D02*
X12320444Y-13479186D01*
X12320444Y-13479186D02*
X12310920Y-13488710D01*
X12310920Y-13488710D02*
X12291872Y-13498234D01*
X12291872Y-13498234D02*
X12234729Y-13498234D01*
X12234729Y-13498234D02*
X12215682Y-13488710D01*
X12215682Y-13488710D02*
X12206158Y-13479186D01*
X12453777Y-13298234D02*
X12472825Y-13298234D01*
X12472825Y-13298234D02*
X12491872Y-13307758D01*
X12491872Y-13307758D02*
X12501396Y-13317281D01*
X12501396Y-13317281D02*
X12510920Y-13336329D01*
X12510920Y-13336329D02*
X12520444Y-13374424D01*
X12520444Y-13374424D02*
X12520444Y-13422043D01*
X12520444Y-13422043D02*
X12510920Y-13460138D01*
X12510920Y-13460138D02*
X12501396Y-13479186D01*
X12501396Y-13479186D02*
X12491872Y-13488710D01*
X12491872Y-13488710D02*
X12472825Y-13498234D01*
X12472825Y-13498234D02*
X12453777Y-13498234D01*
X12453777Y-13498234D02*
X12434729Y-13488710D01*
X12434729Y-13488710D02*
X12425206Y-13479186D01*
X12425206Y-13479186D02*
X12415682Y-13460138D01*
X12415682Y-13460138D02*
X12406158Y-13422043D01*
X12406158Y-13422043D02*
X12406158Y-13374424D01*
X12406158Y-13374424D02*
X12415682Y-13336329D01*
X12415682Y-13336329D02*
X12425206Y-13317281D01*
X12425206Y-13317281D02*
X12434729Y-13307758D01*
X12434729Y-13307758D02*
X12453777Y-13298234D01*
X12596634Y-13298234D02*
X12596634Y-13336329D01*
X12672825Y-13298234D02*
X12672825Y-13336329D01*
X12968063Y-13574424D02*
X12958539Y-13564900D01*
X12958539Y-13564900D02*
X12939491Y-13536329D01*
X12939491Y-13536329D02*
X12929968Y-13517281D01*
X12929968Y-13517281D02*
X12920444Y-13488710D01*
X12920444Y-13488710D02*
X12910920Y-13441091D01*
X12910920Y-13441091D02*
X12910920Y-13402996D01*
X12910920Y-13402996D02*
X12920444Y-13355377D01*
X12920444Y-13355377D02*
X12929968Y-13326805D01*
X12929968Y-13326805D02*
X12939491Y-13307758D01*
X12939491Y-13307758D02*
X12958539Y-13279186D01*
X12958539Y-13279186D02*
X12968063Y-13269662D01*
X13129968Y-13364900D02*
X13129968Y-13498234D01*
X13082348Y-13288710D02*
X13034729Y-13431567D01*
X13034729Y-13431567D02*
X13158539Y-13431567D01*
X13387110Y-13498234D02*
X13387110Y-13298234D01*
X13472825Y-13498234D02*
X13472825Y-13393472D01*
X13472825Y-13393472D02*
X13463301Y-13374424D01*
X13463301Y-13374424D02*
X13444253Y-13364900D01*
X13444253Y-13364900D02*
X13415682Y-13364900D01*
X13415682Y-13364900D02*
X13396634Y-13374424D01*
X13396634Y-13374424D02*
X13387110Y-13383948D01*
X13596634Y-13498234D02*
X13577587Y-13488710D01*
X13577587Y-13488710D02*
X13568063Y-13479186D01*
X13568063Y-13479186D02*
X13558539Y-13460138D01*
X13558539Y-13460138D02*
X13558539Y-13402996D01*
X13558539Y-13402996D02*
X13568063Y-13383948D01*
X13568063Y-13383948D02*
X13577587Y-13374424D01*
X13577587Y-13374424D02*
X13596634Y-13364900D01*
X13596634Y-13364900D02*
X13625206Y-13364900D01*
X13625206Y-13364900D02*
X13644253Y-13374424D01*
X13644253Y-13374424D02*
X13653777Y-13383948D01*
X13653777Y-13383948D02*
X13663301Y-13402996D01*
X13663301Y-13402996D02*
X13663301Y-13460138D01*
X13663301Y-13460138D02*
X13653777Y-13479186D01*
X13653777Y-13479186D02*
X13644253Y-13488710D01*
X13644253Y-13488710D02*
X13625206Y-13498234D01*
X13625206Y-13498234D02*
X13596634Y-13498234D01*
X13777587Y-13498234D02*
X13758539Y-13488710D01*
X13758539Y-13488710D02*
X13749015Y-13469662D01*
X13749015Y-13469662D02*
X13749015Y-13298234D01*
X13929968Y-13488710D02*
X13910920Y-13498234D01*
X13910920Y-13498234D02*
X13872825Y-13498234D01*
X13872825Y-13498234D02*
X13853777Y-13488710D01*
X13853777Y-13488710D02*
X13844253Y-13469662D01*
X13844253Y-13469662D02*
X13844253Y-13393472D01*
X13844253Y-13393472D02*
X13853777Y-13374424D01*
X13853777Y-13374424D02*
X13872825Y-13364900D01*
X13872825Y-13364900D02*
X13910920Y-13364900D01*
X13910920Y-13364900D02*
X13929968Y-13374424D01*
X13929968Y-13374424D02*
X13939491Y-13393472D01*
X13939491Y-13393472D02*
X13939491Y-13412519D01*
X13939491Y-13412519D02*
X13844253Y-13431567D01*
X14015682Y-13488710D02*
X14034730Y-13498234D01*
X14034730Y-13498234D02*
X14072825Y-13498234D01*
X14072825Y-13498234D02*
X14091872Y-13488710D01*
X14091872Y-13488710D02*
X14101396Y-13469662D01*
X14101396Y-13469662D02*
X14101396Y-13460138D01*
X14101396Y-13460138D02*
X14091872Y-13441091D01*
X14091872Y-13441091D02*
X14072825Y-13431567D01*
X14072825Y-13431567D02*
X14044253Y-13431567D01*
X14044253Y-13431567D02*
X14025206Y-13422043D01*
X14025206Y-13422043D02*
X14015682Y-13402996D01*
X14015682Y-13402996D02*
X14015682Y-13393472D01*
X14015682Y-13393472D02*
X14025206Y-13374424D01*
X14025206Y-13374424D02*
X14044253Y-13364900D01*
X14044253Y-13364900D02*
X14072825Y-13364900D01*
X14072825Y-13364900D02*
X14091872Y-13374424D01*
X14168063Y-13574424D02*
X14177587Y-13564900D01*
X14177587Y-13564900D02*
X14196634Y-13536329D01*
X14196634Y-13536329D02*
X14206158Y-13517281D01*
X14206158Y-13517281D02*
X14215682Y-13488710D01*
X14215682Y-13488710D02*
X14225206Y-13441091D01*
X14225206Y-13441091D02*
X14225206Y-13402996D01*
X14225206Y-13402996D02*
X14215682Y-13355377D01*
X14215682Y-13355377D02*
X14206158Y-13326805D01*
X14206158Y-13326805D02*
X14196634Y-13307758D01*
X14196634Y-13307758D02*
X14177587Y-13279186D01*
X14177587Y-13279186D02*
X14168063Y-13269662D01*
X9293000Y-13786750D02*
X9393000Y-13686750D01*
X9293000Y-13586750D01*
X9193000Y-13686750D01*
X9293000Y-13786750D01*
X9634729Y-13578234D02*
X9758539Y-13578234D01*
X9758539Y-13578234D02*
X9691872Y-13654424D01*
X9691872Y-13654424D02*
X9720444Y-13654424D01*
X9720444Y-13654424D02*
X9739491Y-13663948D01*
X9739491Y-13663948D02*
X9749015Y-13673472D01*
X9749015Y-13673472D02*
X9758539Y-13692519D01*
X9758539Y-13692519D02*
X9758539Y-13740138D01*
X9758539Y-13740138D02*
X9749015Y-13759186D01*
X9749015Y-13759186D02*
X9739491Y-13768710D01*
X9739491Y-13768710D02*
X9720444Y-13778234D01*
X9720444Y-13778234D02*
X9663301Y-13778234D01*
X9663301Y-13778234D02*
X9644253Y-13768710D01*
X9644253Y-13768710D02*
X9634729Y-13759186D01*
X9844253Y-13759186D02*
X9853777Y-13768710D01*
X9853777Y-13768710D02*
X9844253Y-13778234D01*
X9844253Y-13778234D02*
X9834729Y-13768710D01*
X9834729Y-13768710D02*
X9844253Y-13759186D01*
X9844253Y-13759186D02*
X9844253Y-13778234D01*
X9929967Y-13597281D02*
X9939491Y-13587758D01*
X9939491Y-13587758D02*
X9958539Y-13578234D01*
X9958539Y-13578234D02*
X10006158Y-13578234D01*
X10006158Y-13578234D02*
X10025205Y-13587758D01*
X10025205Y-13587758D02*
X10034729Y-13597281D01*
X10034729Y-13597281D02*
X10044253Y-13616329D01*
X10044253Y-13616329D02*
X10044253Y-13635377D01*
X10044253Y-13635377D02*
X10034729Y-13663948D01*
X10034729Y-13663948D02*
X9920444Y-13778234D01*
X9920444Y-13778234D02*
X10044253Y-13778234D01*
X10168063Y-13578234D02*
X10187110Y-13578234D01*
X10187110Y-13578234D02*
X10206158Y-13587758D01*
X10206158Y-13587758D02*
X10215682Y-13597281D01*
X10215682Y-13597281D02*
X10225205Y-13616329D01*
X10225205Y-13616329D02*
X10234729Y-13654424D01*
X10234729Y-13654424D02*
X10234729Y-13702043D01*
X10234729Y-13702043D02*
X10225205Y-13740138D01*
X10225205Y-13740138D02*
X10215682Y-13759186D01*
X10215682Y-13759186D02*
X10206158Y-13768710D01*
X10206158Y-13768710D02*
X10187110Y-13778234D01*
X10187110Y-13778234D02*
X10168063Y-13778234D01*
X10168063Y-13778234D02*
X10149015Y-13768710D01*
X10149015Y-13768710D02*
X10139491Y-13759186D01*
X10139491Y-13759186D02*
X10129967Y-13740138D01*
X10129967Y-13740138D02*
X10120444Y-13702043D01*
X10120444Y-13702043D02*
X10120444Y-13654424D01*
X10120444Y-13654424D02*
X10129967Y-13616329D01*
X10129967Y-13616329D02*
X10139491Y-13597281D01*
X10139491Y-13597281D02*
X10149015Y-13587758D01*
X10149015Y-13587758D02*
X10168063Y-13578234D01*
X10358539Y-13578234D02*
X10377586Y-13578234D01*
X10377586Y-13578234D02*
X10396634Y-13587758D01*
X10396634Y-13587758D02*
X10406158Y-13597281D01*
X10406158Y-13597281D02*
X10415682Y-13616329D01*
X10415682Y-13616329D02*
X10425205Y-13654424D01*
X10425205Y-13654424D02*
X10425205Y-13702043D01*
X10425205Y-13702043D02*
X10415682Y-13740138D01*
X10415682Y-13740138D02*
X10406158Y-13759186D01*
X10406158Y-13759186D02*
X10396634Y-13768710D01*
X10396634Y-13768710D02*
X10377586Y-13778234D01*
X10377586Y-13778234D02*
X10358539Y-13778234D01*
X10358539Y-13778234D02*
X10339491Y-13768710D01*
X10339491Y-13768710D02*
X10329967Y-13759186D01*
X10329967Y-13759186D02*
X10320444Y-13740138D01*
X10320444Y-13740138D02*
X10310920Y-13702043D01*
X10310920Y-13702043D02*
X10310920Y-13654424D01*
X10310920Y-13654424D02*
X10320444Y-13616329D01*
X10320444Y-13616329D02*
X10329967Y-13597281D01*
X10329967Y-13597281D02*
X10339491Y-13587758D01*
X10339491Y-13587758D02*
X10358539Y-13578234D01*
X10510920Y-13778234D02*
X10510920Y-13644900D01*
X10510920Y-13663948D02*
X10520444Y-13654424D01*
X10520444Y-13654424D02*
X10539491Y-13644900D01*
X10539491Y-13644900D02*
X10568063Y-13644900D01*
X10568063Y-13644900D02*
X10587110Y-13654424D01*
X10587110Y-13654424D02*
X10596634Y-13673472D01*
X10596634Y-13673472D02*
X10596634Y-13778234D01*
X10596634Y-13673472D02*
X10606158Y-13654424D01*
X10606158Y-13654424D02*
X10625205Y-13644900D01*
X10625205Y-13644900D02*
X10653777Y-13644900D01*
X10653777Y-13644900D02*
X10672825Y-13654424D01*
X10672825Y-13654424D02*
X10682348Y-13673472D01*
X10682348Y-13673472D02*
X10682348Y-13778234D01*
X10777586Y-13778234D02*
X10777586Y-13644900D01*
X10777586Y-13663948D02*
X10787110Y-13654424D01*
X10787110Y-13654424D02*
X10806158Y-13644900D01*
X10806158Y-13644900D02*
X10834729Y-13644900D01*
X10834729Y-13644900D02*
X10853777Y-13654424D01*
X10853777Y-13654424D02*
X10863301Y-13673472D01*
X10863301Y-13673472D02*
X10863301Y-13778234D01*
X10863301Y-13673472D02*
X10872825Y-13654424D01*
X10872825Y-13654424D02*
X10891872Y-13644900D01*
X10891872Y-13644900D02*
X10920444Y-13644900D01*
X10920444Y-13644900D02*
X10939491Y-13654424D01*
X10939491Y-13654424D02*
X10949015Y-13673472D01*
X10949015Y-13673472D02*
X10949015Y-13778234D01*
X11339491Y-13568710D02*
X11168063Y-13825853D01*
X11596634Y-13578234D02*
X11615682Y-13578234D01*
X11615682Y-13578234D02*
X11634729Y-13587758D01*
X11634729Y-13587758D02*
X11644253Y-13597281D01*
X11644253Y-13597281D02*
X11653777Y-13616329D01*
X11653777Y-13616329D02*
X11663301Y-13654424D01*
X11663301Y-13654424D02*
X11663301Y-13702043D01*
X11663301Y-13702043D02*
X11653777Y-13740138D01*
X11653777Y-13740138D02*
X11644253Y-13759186D01*
X11644253Y-13759186D02*
X11634729Y-13768710D01*
X11634729Y-13768710D02*
X11615682Y-13778234D01*
X11615682Y-13778234D02*
X11596634Y-13778234D01*
X11596634Y-13778234D02*
X11577586Y-13768710D01*
X11577586Y-13768710D02*
X11568063Y-13759186D01*
X11568063Y-13759186D02*
X11558539Y-13740138D01*
X11558539Y-13740138D02*
X11549015Y-13702043D01*
X11549015Y-13702043D02*
X11549015Y-13654424D01*
X11549015Y-13654424D02*
X11558539Y-13616329D01*
X11558539Y-13616329D02*
X11568063Y-13597281D01*
X11568063Y-13597281D02*
X11577586Y-13587758D01*
X11577586Y-13587758D02*
X11596634Y-13578234D01*
X11749015Y-13759186D02*
X11758539Y-13768710D01*
X11758539Y-13768710D02*
X11749015Y-13778234D01*
X11749015Y-13778234D02*
X11739491Y-13768710D01*
X11739491Y-13768710D02*
X11749015Y-13759186D01*
X11749015Y-13759186D02*
X11749015Y-13778234D01*
X11949015Y-13778234D02*
X11834729Y-13778234D01*
X11891872Y-13778234D02*
X11891872Y-13578234D01*
X11891872Y-13578234D02*
X11872825Y-13606805D01*
X11872825Y-13606805D02*
X11853777Y-13625853D01*
X11853777Y-13625853D02*
X11834729Y-13635377D01*
X12025206Y-13597281D02*
X12034729Y-13587758D01*
X12034729Y-13587758D02*
X12053777Y-13578234D01*
X12053777Y-13578234D02*
X12101396Y-13578234D01*
X12101396Y-13578234D02*
X12120444Y-13587758D01*
X12120444Y-13587758D02*
X12129967Y-13597281D01*
X12129967Y-13597281D02*
X12139491Y-13616329D01*
X12139491Y-13616329D02*
X12139491Y-13635377D01*
X12139491Y-13635377D02*
X12129967Y-13663948D01*
X12129967Y-13663948D02*
X12015682Y-13778234D01*
X12015682Y-13778234D02*
X12139491Y-13778234D01*
X12310920Y-13578234D02*
X12272825Y-13578234D01*
X12272825Y-13578234D02*
X12253777Y-13587758D01*
X12253777Y-13587758D02*
X12244253Y-13597281D01*
X12244253Y-13597281D02*
X12225206Y-13625853D01*
X12225206Y-13625853D02*
X12215682Y-13663948D01*
X12215682Y-13663948D02*
X12215682Y-13740138D01*
X12215682Y-13740138D02*
X12225206Y-13759186D01*
X12225206Y-13759186D02*
X12234729Y-13768710D01*
X12234729Y-13768710D02*
X12253777Y-13778234D01*
X12253777Y-13778234D02*
X12291872Y-13778234D01*
X12291872Y-13778234D02*
X12310920Y-13768710D01*
X12310920Y-13768710D02*
X12320444Y-13759186D01*
X12320444Y-13759186D02*
X12329967Y-13740138D01*
X12329967Y-13740138D02*
X12329967Y-13692519D01*
X12329967Y-13692519D02*
X12320444Y-13673472D01*
X12320444Y-13673472D02*
X12310920Y-13663948D01*
X12310920Y-13663948D02*
X12291872Y-13654424D01*
X12291872Y-13654424D02*
X12253777Y-13654424D01*
X12253777Y-13654424D02*
X12234729Y-13663948D01*
X12234729Y-13663948D02*
X12225206Y-13673472D01*
X12225206Y-13673472D02*
X12215682Y-13692519D01*
X12453777Y-13578234D02*
X12472825Y-13578234D01*
X12472825Y-13578234D02*
X12491872Y-13587758D01*
X12491872Y-13587758D02*
X12501396Y-13597281D01*
X12501396Y-13597281D02*
X12510920Y-13616329D01*
X12510920Y-13616329D02*
X12520444Y-13654424D01*
X12520444Y-13654424D02*
X12520444Y-13702043D01*
X12520444Y-13702043D02*
X12510920Y-13740138D01*
X12510920Y-13740138D02*
X12501396Y-13759186D01*
X12501396Y-13759186D02*
X12491872Y-13768710D01*
X12491872Y-13768710D02*
X12472825Y-13778234D01*
X12472825Y-13778234D02*
X12453777Y-13778234D01*
X12453777Y-13778234D02*
X12434729Y-13768710D01*
X12434729Y-13768710D02*
X12425206Y-13759186D01*
X12425206Y-13759186D02*
X12415682Y-13740138D01*
X12415682Y-13740138D02*
X12406158Y-13702043D01*
X12406158Y-13702043D02*
X12406158Y-13654424D01*
X12406158Y-13654424D02*
X12415682Y-13616329D01*
X12415682Y-13616329D02*
X12425206Y-13597281D01*
X12425206Y-13597281D02*
X12434729Y-13587758D01*
X12434729Y-13587758D02*
X12453777Y-13578234D01*
X12596634Y-13578234D02*
X12596634Y-13616329D01*
X12672825Y-13578234D02*
X12672825Y-13616329D01*
X12968063Y-13854424D02*
X12958539Y-13844900D01*
X12958539Y-13844900D02*
X12939491Y-13816329D01*
X12939491Y-13816329D02*
X12929968Y-13797281D01*
X12929968Y-13797281D02*
X12920444Y-13768710D01*
X12920444Y-13768710D02*
X12910920Y-13721091D01*
X12910920Y-13721091D02*
X12910920Y-13682996D01*
X12910920Y-13682996D02*
X12920444Y-13635377D01*
X12920444Y-13635377D02*
X12929968Y-13606805D01*
X12929968Y-13606805D02*
X12939491Y-13587758D01*
X12939491Y-13587758D02*
X12958539Y-13559186D01*
X12958539Y-13559186D02*
X12968063Y-13549662D01*
X13129968Y-13644900D02*
X13129968Y-13778234D01*
X13082348Y-13568710D02*
X13034729Y-13711567D01*
X13034729Y-13711567D02*
X13158539Y-13711567D01*
X13387110Y-13778234D02*
X13387110Y-13578234D01*
X13472825Y-13778234D02*
X13472825Y-13673472D01*
X13472825Y-13673472D02*
X13463301Y-13654424D01*
X13463301Y-13654424D02*
X13444253Y-13644900D01*
X13444253Y-13644900D02*
X13415682Y-13644900D01*
X13415682Y-13644900D02*
X13396634Y-13654424D01*
X13396634Y-13654424D02*
X13387110Y-13663948D01*
X13596634Y-13778234D02*
X13577587Y-13768710D01*
X13577587Y-13768710D02*
X13568063Y-13759186D01*
X13568063Y-13759186D02*
X13558539Y-13740138D01*
X13558539Y-13740138D02*
X13558539Y-13682996D01*
X13558539Y-13682996D02*
X13568063Y-13663948D01*
X13568063Y-13663948D02*
X13577587Y-13654424D01*
X13577587Y-13654424D02*
X13596634Y-13644900D01*
X13596634Y-13644900D02*
X13625206Y-13644900D01*
X13625206Y-13644900D02*
X13644253Y-13654424D01*
X13644253Y-13654424D02*
X13653777Y-13663948D01*
X13653777Y-13663948D02*
X13663301Y-13682996D01*
X13663301Y-13682996D02*
X13663301Y-13740138D01*
X13663301Y-13740138D02*
X13653777Y-13759186D01*
X13653777Y-13759186D02*
X13644253Y-13768710D01*
X13644253Y-13768710D02*
X13625206Y-13778234D01*
X13625206Y-13778234D02*
X13596634Y-13778234D01*
X13777587Y-13778234D02*
X13758539Y-13768710D01*
X13758539Y-13768710D02*
X13749015Y-13749662D01*
X13749015Y-13749662D02*
X13749015Y-13578234D01*
X13929968Y-13768710D02*
X13910920Y-13778234D01*
X13910920Y-13778234D02*
X13872825Y-13778234D01*
X13872825Y-13778234D02*
X13853777Y-13768710D01*
X13853777Y-13768710D02*
X13844253Y-13749662D01*
X13844253Y-13749662D02*
X13844253Y-13673472D01*
X13844253Y-13673472D02*
X13853777Y-13654424D01*
X13853777Y-13654424D02*
X13872825Y-13644900D01*
X13872825Y-13644900D02*
X13910920Y-13644900D01*
X13910920Y-13644900D02*
X13929968Y-13654424D01*
X13929968Y-13654424D02*
X13939491Y-13673472D01*
X13939491Y-13673472D02*
X13939491Y-13692519D01*
X13939491Y-13692519D02*
X13844253Y-13711567D01*
X14015682Y-13768710D02*
X14034730Y-13778234D01*
X14034730Y-13778234D02*
X14072825Y-13778234D01*
X14072825Y-13778234D02*
X14091872Y-13768710D01*
X14091872Y-13768710D02*
X14101396Y-13749662D01*
X14101396Y-13749662D02*
X14101396Y-13740138D01*
X14101396Y-13740138D02*
X14091872Y-13721091D01*
X14091872Y-13721091D02*
X14072825Y-13711567D01*
X14072825Y-13711567D02*
X14044253Y-13711567D01*
X14044253Y-13711567D02*
X14025206Y-13702043D01*
X14025206Y-13702043D02*
X14015682Y-13682996D01*
X14015682Y-13682996D02*
X14015682Y-13673472D01*
X14015682Y-13673472D02*
X14025206Y-13654424D01*
X14025206Y-13654424D02*
X14044253Y-13644900D01*
X14044253Y-13644900D02*
X14072825Y-13644900D01*
X14072825Y-13644900D02*
X14091872Y-13654424D01*
X14168063Y-13854424D02*
X14177587Y-13844900D01*
X14177587Y-13844900D02*
X14196634Y-13816329D01*
X14196634Y-13816329D02*
X14206158Y-13797281D01*
X14206158Y-13797281D02*
X14215682Y-13768710D01*
X14215682Y-13768710D02*
X14225206Y-13721091D01*
X14225206Y-13721091D02*
X14225206Y-13682996D01*
X14225206Y-13682996D02*
X14215682Y-13635377D01*
X14215682Y-13635377D02*
X14206158Y-13606805D01*
X14206158Y-13606805D02*
X14196634Y-13587758D01*
X14196634Y-13587758D02*
X14177587Y-13559186D01*
X14177587Y-13559186D02*
X14168063Y-13549662D01*
M02*
